# Blender v3.0.0 OBJ File: 'tropical-scene_volume.blend'
# www.blender.org
o Cube.008
v 0.093620 0.425134 -0.336474
v 0.043510 0.225519 -0.223569
v 0.101679 0.406276 -0.366237
v 0.051569 0.206662 -0.253332
v 0.115389 0.423565 -0.329585
v 0.065279 0.223951 -0.216680
v 0.123449 0.404708 -0.359348
v 0.073339 0.205093 -0.246443
vt 0.375000 0.000000
vt 0.375000 0.250000
vt 0.625000 0.250000
vt 0.625000 0.000000
vt 0.375000 0.500000
vt 0.625000 0.500000
vt 0.375000 0.750000
vt 0.625000 0.750000
vt 0.375000 1.000000
vt 0.625000 1.000000
vt 0.125000 0.500000
vt 0.125000 0.750000
vt 0.875000 0.750000
vt 0.875000 0.500000
vn -0.9512 0.0685 -0.3010
vn 0.2230 -0.5217 -0.8235
vn 0.9512 -0.0685 0.3010
vn -0.2230 0.5217 0.8235
vn 0.2135 0.8504 -0.4810
vn -0.2135 -0.8504 0.4810
s off
f 1/1/1 3/2/1 4/3/1 2/4/1
f 3/2/2 7/5/2 8/6/2 4/3/2
f 7/5/3 5/7/3 6/8/3 8/6/3
f 5/7/4 1/9/4 2/10/4 6/8/4
f 3/11/5 1/12/5 5/7/5 7/5/5
f 8/6/6 6/8/6 2/13/6 4/14/6
