# Blender v3.0.0 OBJ File: 'tropical-scene_volume.blend'
# www.blender.org
o Cylinder.004_Cylinder.002
v -0.577583 0.045128 -0.411451
v -0.577583 0.340390 -0.411451
v -0.573449 0.045128 -0.410907
v -0.573449 0.340390 -0.410907
v -0.569596 0.045128 -0.409311
v -0.569596 0.340390 -0.409311
v -0.566288 0.045128 -0.406773
v -0.566288 0.340390 -0.406773
v -0.563750 0.045128 -0.403464
v -0.563750 0.340390 -0.403464
v -0.562154 0.045128 -0.399612
v -0.562154 0.340390 -0.399612
v -0.561610 0.045128 -0.395478
v -0.561610 0.340390 -0.395478
v -0.562154 0.045128 -0.391344
v -0.562154 0.340390 -0.391344
v -0.563750 0.045128 -0.387491
v -0.563750 0.340390 -0.387491
v -0.566288 0.045128 -0.384183
v -0.566288 0.340390 -0.384183
v -0.569596 0.045128 -0.381644
v -0.569596 0.340390 -0.381644
v -0.573449 0.045128 -0.380049
v -0.573449 0.340390 -0.380049
v -0.577583 0.045128 -0.379504
v -0.577583 0.340390 -0.379504
v -0.581717 0.045128 -0.380049
v -0.581717 0.340390 -0.380049
v -0.585570 0.045128 -0.381644
v -0.585570 0.340390 -0.381644
v -0.588878 0.045128 -0.384183
v -0.588878 0.340390 -0.384183
v -0.591416 0.045128 -0.387491
v -0.591416 0.340390 -0.387491
v -0.593012 0.045128 -0.391344
v -0.593012 0.340390 -0.391344
v -0.593556 0.045128 -0.395478
v -0.593556 0.340390 -0.395478
v -0.593012 0.045128 -0.399612
v -0.593012 0.340390 -0.399612
v -0.591416 0.045128 -0.403464
v -0.591416 0.340390 -0.403464
v -0.588878 0.045128 -0.406773
v -0.588878 0.340390 -0.406773
v -0.585570 0.045128 -0.409311
v -0.585570 0.340390 -0.409311
v -0.581717 0.045128 -0.410907
v -0.581717 0.340390 -0.410907
vt 1.000000 0.500000
vt 1.000000 1.000000
vt 0.958333 1.000000
vt 0.958333 0.500000
vt 0.916667 1.000000
vt 0.916667 0.500000
vt 0.875000 1.000000
vt 0.875000 0.500000
vt 0.833333 1.000000
vt 0.833333 0.500000
vt 0.791667 1.000000
vt 0.791667 0.500000
vt 0.750000 1.000000
vt 0.750000 0.500000
vt 0.708333 1.000000
vt 0.708333 0.500000
vt 0.666667 1.000000
vt 0.666667 0.500000
vt 0.625000 1.000000
vt 0.625000 0.500000
vt 0.583333 1.000000
vt 0.583333 0.500000
vt 0.541666 1.000000
vt 0.541666 0.500000
vt 0.500000 1.000000
vt 0.500000 0.500000
vt 0.458333 1.000000
vt 0.458333 0.500000
vt 0.416666 1.000000
vt 0.416666 0.500000
vt 0.375000 1.000000
vt 0.375000 0.500000
vt 0.333333 1.000000
vt 0.333333 0.500000
vt 0.291667 1.000000
vt 0.291667 0.500000
vt 0.250000 1.000000
vt 0.250000 0.500000
vt 0.208333 1.000000
vt 0.208333 0.500000
vt 0.166666 1.000000
vt 0.166666 0.500000
vt 0.125000 1.000000
vt 0.125000 0.500000
vt 0.083333 1.000000
vt 0.083333 0.500000
vt 0.312117 0.481822
vt 0.250000 0.490000
vt 0.187883 0.481822
vt 0.130000 0.457846
vt 0.080294 0.419706
vt 0.042154 0.370000
vt 0.018178 0.312117
vt 0.010000 0.250000
vt 0.018178 0.187883
vt 0.042154 0.130000
vt 0.080294 0.080294
vt 0.130000 0.042154
vt 0.187883 0.018178
vt 0.250000 0.010000
vt 0.312117 0.018178
vt 0.370000 0.042154
vt 0.419706 0.080294
vt 0.457846 0.130000
vt 0.481822 0.187883
vt 0.490000 0.250000
vt 0.481822 0.312117
vt 0.457846 0.370000
vt 0.419706 0.419706
vt 0.370000 0.457846
vt 0.041666 1.000000
vt 0.041666 0.500000
vt -0.000000 1.000000
vt -0.000000 0.500000
vt 0.750000 0.490000
vt 0.812117 0.481822
vt 0.870000 0.457846
vt 0.919706 0.419706
vt 0.957846 0.370000
vt 0.981822 0.312117
vt 0.990000 0.250000
vt 0.981822 0.187883
vt 0.957846 0.130000
vt 0.919706 0.080294
vt 0.870000 0.042154
vt 0.812117 0.018178
vt 0.750000 0.010000
vt 0.687883 0.018178
vt 0.630000 0.042154
vt 0.580294 0.080294
vt 0.542154 0.130000
vt 0.518178 0.187883
vt 0.510000 0.250000
vt 0.518178 0.312117
vt 0.542154 0.370000
vt 0.580294 0.419706
vt 0.630000 0.457846
vt 0.687883 0.481822
vn 0.0000 0.0000 -1.0000
vn 0.2588 0.0000 -0.9659
vn 0.5000 0.0000 -0.8660
vn 0.7071 0.0000 -0.7071
vn 0.8660 0.0000 -0.5000
vn 0.9659 0.0000 -0.2588
vn 1.0000 0.0000 -0.0000
vn 0.9659 0.0000 0.2588
vn 0.8660 0.0000 0.5000
vn 0.7071 0.0000 0.7071
vn 0.5000 0.0000 0.8660
vn 0.2588 0.0000 0.9659
vn 0.0000 0.0000 1.0000
vn -0.2588 0.0000 0.9659
vn -0.5000 0.0000 0.8660
vn -0.7071 0.0000 0.7071
vn -0.8660 0.0000 0.5000
vn -0.9659 0.0000 0.2588
vn -1.0000 0.0000 -0.0000
vn -0.9659 0.0000 -0.2588
vn -0.8660 0.0000 -0.5000
vn -0.7071 0.0000 -0.7071
vn -0.5000 0.0000 -0.8660
vn 0.0000 1.0000 -0.0000
vn -0.2588 0.0000 -0.9659
vn 0.0000 -1.0000 0.0000
s 1
f 1/1/1 2/2/1 4/3/2 3/4/2
f 3/4/2 4/3/2 6/5/3 5/6/3
f 5/6/3 6/5/3 8/7/4 7/8/4
f 7/8/4 8/7/4 10/9/5 9/10/5
f 9/10/5 10/9/5 12/11/6 11/12/6
f 11/12/6 12/11/6 14/13/7 13/14/7
f 13/14/7 14/13/7 16/15/8 15/16/8
f 15/16/8 16/15/8 18/17/9 17/18/9
f 17/18/9 18/17/9 20/19/10 19/20/10
f 19/20/10 20/19/10 22/21/11 21/22/11
f 21/22/11 22/21/11 24/23/12 23/24/12
f 23/24/12 24/23/12 26/25/13 25/26/13
f 25/26/13 26/25/13 28/27/14 27/28/14
f 27/28/14 28/27/14 30/29/15 29/30/15
f 29/30/15 30/29/15 32/31/16 31/32/16
f 31/32/16 32/31/16 34/33/17 33/34/17
f 33/34/17 34/33/17 36/35/18 35/36/18
f 35/36/18 36/35/18 38/37/19 37/38/19
f 37/38/19 38/37/19 40/39/20 39/40/20
f 39/40/20 40/39/20 42/41/21 41/42/21
f 41/42/21 42/41/21 44/43/22 43/44/22
f 43/44/22 44/43/22 46/45/23 45/46/23
f 4/47/24 2/48/24 48/49/24 46/50/24 44/51/24 42/52/24 40/53/24 38/54/24 36/55/24 34/56/24 32/57/24 30/58/24 28/59/24 26/60/24 24/61/24 22/62/24 20/63/24 18/64/24 16/65/24 14/66/24 12/67/24 10/68/24 8/69/24 6/70/24
f 45/46/23 46/45/23 48/71/25 47/72/25
f 47/72/25 48/71/25 2/73/1 1/74/1
f 1/75/26 3/76/26 5/77/26 7/78/26 9/79/26 11/80/26 13/81/26 15/82/26 17/83/26 19/84/26 21/85/26 23/86/26 25/87/26 27/88/26 29/89/26 31/90/26 33/91/26 35/92/26 37/93/26 39/94/26 41/95/26 43/96/26 45/97/26 47/98/26
