# Blender v3.0.0 OBJ File: 'tropical-scene_volume.blend'
# www.blender.org
o Plane.022_Plane.001
v -0.824355 0.952971 -0.195803
v -0.787161 0.904612 -0.122432
v -0.802226 0.923628 -0.161593
v -0.997589 1.101073 -0.249618
v -0.852334 0.985223 -0.220403
v -0.885597 1.017516 -0.238206
v -0.923632 1.049181 -0.248741
v -0.964406 1.078787 -0.251836
v -0.829136 1.009787 -0.107938
v -0.788873 0.924957 -0.090969
v -0.805932 0.967675 -0.093476
v -0.998436 1.111131 -0.234064
v -0.782527 0.909355 -0.102891
v -1.007496 1.110782 -0.245383
v -0.857285 1.044062 -0.129411
v -0.890174 1.071906 -0.154094
v -0.927289 1.092640 -0.181532
v -0.966664 1.105622 -0.210337
v -0.800617 0.946925 -0.128169
v -0.823461 0.982977 -0.152725
v -0.851753 1.016551 -0.175975
v -0.885095 1.046898 -0.197413
v -0.922968 1.073339 -0.216572
v -0.964443 1.094888 -0.232763
v -0.837649 0.968947 -0.209077
v -0.783482 0.905052 -0.110737
v -0.983146 1.091268 -0.251095
v -0.793606 0.911616 -0.140824
v -0.812526 0.937725 -0.180119
v -1.005245 1.107409 -0.247914
v -0.985883 1.103294 -0.239365
v -0.868337 1.001436 -0.230142
v -0.904054 1.033454 -0.244427
v -0.944074 1.064500 -0.251154
v -0.791212 0.928243 -0.115577
v -0.811337 0.965210 -0.140576
v -0.836949 1.000122 -0.164546
v -0.867823 1.032172 -0.186950
v -0.903502 1.060646 -0.207305
v -0.943373 1.084856 -0.225129
v -0.800772 0.935515 -0.145000
v -0.823292 0.968273 -0.174424
v -0.851471 1.001245 -0.198389
v -0.884823 1.032617 -0.218046
v -0.922832 1.061715 -0.232925
v -0.964219 1.087341 -0.242614
v -0.842600 1.027784 -0.118089
v -0.784292 0.914678 -0.095851
v -0.984651 1.109156 -0.223433
v -0.796352 0.944258 -0.090344
v -0.816911 0.989826 -0.099547
v -1.005615 1.111809 -0.241110
v -0.873164 1.058804 -0.141424
v -0.908241 1.083212 -0.167479
v -0.947072 1.100129 -0.196057
v -0.802626 0.957539 -0.110942
v -0.825682 0.996682 -0.130492
v -0.853946 1.030664 -0.152893
v -0.887111 1.059812 -0.175990
v -0.924661 1.083445 -0.199321
v -0.965348 1.100758 -0.221864
v -0.984979 1.097924 -0.245592
v -0.791669 0.919899 -0.128073
v -0.811298 0.951736 -0.160487
v -0.836703 0.984864 -0.186992
v -0.867531 1.017188 -0.208765
v -0.903282 1.047484 -0.226119
v -0.943311 1.075155 -0.238427
v -0.985725 1.106796 -0.231872
v -0.793038 0.936159 -0.102929
v -0.813490 0.977787 -0.120201
v -0.839179 1.014282 -0.141498
v -0.869945 1.045873 -0.164406
v -0.905375 1.072363 -0.187645
v -0.944810 1.092969 -0.210879
vt 0.695647 0.765414
vt 0.786650 0.708578
vt 0.864993 0.758012
vt 0.817139 0.819239
vt 0.875404 0.651206
vt 0.912621 0.696731
vt 0.949838 0.742255
vt 0.944235 0.807660
vt 0.938631 0.873065
vt 0.032243 0.089830
vt 0.059811 0.095008
vt 0.064282 0.098343
vt 0.035611 0.092635
vt 0.087379 0.100186
vt 0.088997 0.102041
vt 0.090615 0.103896
vt 0.084575 0.109717
vt 0.038980 0.095439
vt 0.140399 0.140018
vt 0.065812 0.147409
vt 0.211165 0.128943
vt 0.331715 0.153989
vt 0.211505 0.185058
vt 0.092644 0.199379
vt 0.283410 0.246654
vt 0.154265 0.275467
vt 0.412621 0.215213
vt 0.493528 0.276438
vt 0.355044 0.318764
vt 0.215887 0.351555
vt 0.427083 0.399647
vt 0.295307 0.439703
vt 0.559062 0.359926
vt 0.624595 0.443414
vt 0.498313 0.479190
vt 0.374728 0.527851
vt 0.567364 0.547229
vt 0.449295 0.591880
vt 0.685275 0.504638
vt 0.745955 0.565863
vt 0.637043 0.607021
vt 0.523861 0.655909
vt 0.710543 0.659238
vt 0.609754 0.710662
vt 0.810680 0.608534
vt 0.864993 0.758012
vt 0.786650 0.708578
vt 0.944235 0.807660
vt 0.949838 0.742255
vt 0.912621 0.696731
vt 0.875404 0.651206
vt 0.064282 0.098343
vt 0.059811 0.095008
vt 0.084575 0.109717
vt 0.090615 0.103896
vt 0.088997 0.102041
vt 0.087379 0.100186
vt 0.140399 0.140018
vt 0.211505 0.185058
vt 0.331715 0.153989
vt 0.211165 0.128943
vt 0.283410 0.246654
vt 0.355044 0.318764
vt 0.493528 0.276438
vt 0.412621 0.215213
vt 0.427083 0.399647
vt 0.498313 0.479190
vt 0.624595 0.443414
vt 0.559062 0.359926
vt 0.567364 0.547228
vt 0.637043 0.607021
vt 0.745955 0.565863
vt 0.685275 0.504638
vt 0.710543 0.659238
vt 0.810680 0.608534
vn 0.4751 0.7505 -0.4594
vn 0.4651 0.6782 -0.5690
vn 0.4096 0.6826 -0.6052
vn 0.4200 0.7723 -0.4765
vn 0.4601 0.6508 -0.6039
vn 0.4058 0.6519 -0.6406
vn 0.3739 0.6436 -0.6678
vn 0.3998 0.7067 -0.5837
vn 0.4010 0.7790 -0.4819
vn 0.9365 0.3154 -0.1530
vn 0.9396 0.2409 -0.2430
vn 0.9367 0.2435 -0.2516
vn 0.9305 0.3285 -0.1618
vn 0.9440 0.1753 -0.2794
vn 0.9379 0.2153 -0.2719
vn 0.9193 0.2777 -0.2789
vn 0.9189 0.2994 -0.2567
vn 0.9126 0.3641 -0.1858
vn 0.8909 0.3586 -0.2787
vn 0.8861 0.4097 -0.2167
vn 0.8908 0.3409 -0.3004
vn 0.8580 0.3959 -0.3272
vn 0.8583 0.4117 -0.3062
vn 0.8552 0.4552 -0.2478
vn 0.8227 0.4590 -0.3353
vn 0.8209 0.4988 -0.2778
vn 0.8222 0.4440 -0.3562
vn 0.7832 0.4873 -0.3861
vn 0.7840 0.5021 -0.3650
vn 0.7833 0.5405 -0.3069
vn 0.7417 0.5419 -0.3952
vn 0.7422 0.5804 -0.3349
vn 0.7406 0.5269 -0.4169
vn 0.6938 0.5630 -0.4491
vn 0.6955 0.5784 -0.4262
vn 0.6976 0.6184 -0.3619
vn 0.6451 0.6111 -0.4587
vn 0.6494 0.6542 -0.3877
vn 0.6423 0.5947 -0.4834
vn 0.5857 0.6207 -0.5212
vn 0.5902 0.6388 -0.4935
vn 0.5973 0.6879 -0.4123
vn 0.5301 0.6611 -0.5309
vn 0.5395 0.7201 -0.4363
vn 0.5242 0.6394 -0.5624
vn 0.3953 0.8519 -0.3434
vn 0.4532 0.8199 -0.3498
vn 0.3884 0.8419 -0.3746
vn 0.3531 0.8911 -0.2850
vn 0.3873 0.8713 -0.3012
vn 0.4442 0.8402 -0.3110
vn 0.9256 0.3755 -0.0474
vn 0.9290 0.3667 -0.0482
vn 0.9103 0.4023 -0.0975
vn 0.9078 0.4136 -0.0687
vn 0.9238 0.3825 -0.0134
vn 0.9274 0.3731 0.0265
vn 0.8836 0.4454 -0.1446
vn 0.8517 0.4906 -0.1842
vn 0.8490 0.5032 -0.1612
vn 0.8809 0.4578 -0.1196
vn 0.8164 0.5347 -0.2181
vn 0.7776 0.5776 -0.2482
vn 0.7745 0.5907 -0.2262
vn 0.8135 0.5476 -0.1960
vn 0.7352 0.6194 -0.2753
vn 0.6886 0.6604 -0.2995
vn 0.6843 0.6747 -0.2763
vn 0.7317 0.6330 -0.2530
vn 0.6375 0.7008 -0.3199
vn 0.5816 0.7412 -0.3351
vn 0.5741 0.7588 -0.3077
vn 0.6320 0.7165 -0.2951
vn 0.5200 0.7815 -0.3448
vn 0.5107 0.8009 -0.3127
s 1
f 24/1/1 46/2/2 62/3/3 31/4/4
f 46/2/2 8/5/5 27/6/6 62/3/3
f 62/3/3 27/6/6 4/7/7 30/8/8
f 31/4/4 62/3/3 30/8/8 14/9/9
f 13/10/10 26/11/11 63/12/12 35/13/13
f 26/11/11 2/14/14 28/15/15 63/12/12
f 63/12/12 28/15/15 3/16/16 41/17/17
f 35/13/13 63/12/12 41/17/17 19/18/18
f 19/18/18 41/17/17 64/19/19 36/20/20
f 41/17/17 3/16/16 29/21/21 64/19/19
f 64/19/19 29/21/21 1/22/22 42/23/23
f 36/20/20 64/19/19 42/23/23 20/24/24
f 20/24/24 42/23/23 65/25/25 37/26/26
f 42/23/23 1/22/22 25/27/27 65/25/25
f 65/25/25 25/27/27 5/28/28 43/29/29
f 37/26/26 65/25/25 43/29/29 21/30/30
f 21/30/30 43/29/29 66/31/31 38/32/32
f 43/29/29 5/28/28 32/33/33 66/31/31
f 66/31/31 32/33/33 6/34/34 44/35/35
f 38/32/32 66/31/31 44/35/35 22/36/36
f 22/36/36 44/35/35 67/37/37 39/38/38
f 44/35/35 6/34/34 33/39/39 67/37/37
f 67/37/37 33/39/39 7/40/40 45/41/41
f 39/38/38 67/37/37 45/41/41 23/42/42
f 23/42/42 45/41/41 68/43/43 40/44/44
f 45/41/41 7/40/40 34/45/45 68/43/43
f 68/43/43 34/45/45 8/5/5 46/2/2
f 40/44/44 68/43/43 46/2/2 24/1/1
f 24/1/1 31/4/4 69/46/46 61/47/47
f 31/4/4 14/9/9 52/48/48 69/46/46
f 69/46/46 52/48/48 12/49/49 49/50/50
f 61/47/47 69/46/46 49/50/50 18/51/51
f 13/10/10 35/13/13 70/52/52 48/53/53
f 35/13/13 19/18/18 56/54/54 70/52/52
f 70/52/52 56/54/54 11/55/55 50/56/56
f 48/53/53 70/52/52 50/56/56 10/57/57
f 19/18/18 36/20/20 71/58/58 56/54/54
f 36/20/20 20/24/24 57/59/59 71/58/58
f 71/58/58 57/59/59 9/60/60 51/61/61
f 56/54/54 71/58/58 51/61/61 11/55/55
f 20/24/24 37/26/26 72/62/62 57/59/59
f 37/26/26 21/30/30 58/63/63 72/62/62
f 72/62/62 58/63/63 15/64/64 47/65/65
f 57/59/59 72/62/62 47/65/65 9/60/60
f 21/30/30 38/32/32 73/66/66 58/63/63
f 38/32/32 22/36/36 59/67/67 73/66/66
f 73/66/66 59/67/67 16/68/68 53/69/69
f 58/63/63 73/66/66 53/69/69 15/64/64
f 22/36/36 39/38/38 74/70/70 59/67/67
f 39/38/38 23/42/42 60/71/71 74/70/70
f 74/70/70 60/71/71 17/72/72 54/73/73
f 59/67/67 74/70/70 54/73/73 16/68/68
f 23/42/42 40/44/44 75/74/74 60/71/71
f 40/44/44 24/1/1 61/47/47 75/74/74
f 75/74/74 61/47/47 18/51/51 55/75/75
f 60/71/71 75/74/74 55/75/75 17/72/72
