# Blender v3.0.0 OBJ File: 'tropical-scene_volume.blend'
# www.blender.org
o Plane.010_Plane.001
v -0.767557 1.227911 -0.488775
v -0.862061 1.164920 -0.488596
v -0.813772 1.190390 -0.483516
v -0.626306 1.410327 -0.645178
v -0.728500 1.268341 -0.505507
v -0.693748 1.308449 -0.531531
v -0.664030 1.347401 -0.566555
v -0.640541 1.383453 -0.608494
v -0.861566 1.289605 -0.542612
v -0.895725 1.187013 -0.507874
v -0.886651 1.238218 -0.525253
v -0.642948 1.421249 -0.654709
v -0.885542 1.169170 -0.494413
v -0.626034 1.421741 -0.658125
v -0.825855 1.332232 -0.561260
v -0.783741 1.367509 -0.583069
v -0.735939 1.394592 -0.607735
v -0.684942 1.412592 -0.633922
v -0.851512 1.215802 -0.500396
v -0.815555 1.260660 -0.511779
v -0.777843 1.302575 -0.529598
v -0.739078 1.340617 -0.553695
v -0.699990 1.373939 -0.583765
v -0.661746 1.401306 -0.619183
v -0.747369 1.248002 -0.495872
v -0.876445 1.164599 -0.491080
v -0.631955 1.398540 -0.628931
v -0.839595 1.174582 -0.485512
v -0.789541 1.208550 -0.484554
v -0.624361 1.417866 -0.654310
v -0.643659 1.412088 -0.638411
v -0.710587 1.288519 -0.517399
v -0.678195 1.328106 -0.547932
v -0.651376 1.366100 -0.587121
v -0.868680 1.192606 -0.496999
v -0.833797 1.238536 -0.505279
v -0.796875 1.282046 -0.519891
v -0.758547 1.322135 -0.540878
v -0.719528 1.357917 -0.568008
v -0.680610 1.388530 -0.600884
v -0.832886 1.203377 -0.491208
v -0.791742 1.244642 -0.499543
v -0.753296 1.285887 -0.516843
v -0.716475 1.325028 -0.541937
v -0.682011 1.361222 -0.574526
v -0.650957 1.392995 -0.613459
v -0.844719 1.311890 -0.551623
v -0.892372 1.175051 -0.500201
v -0.661551 1.417963 -0.645880
v -0.893606 1.210027 -0.516442
v -0.875747 1.265125 -0.533923
v -0.631641 1.422643 -0.658479
v -0.805508 1.350813 -0.571759
v -0.760524 1.382136 -0.595080
v -0.710326 1.404787 -0.620880
v -0.869326 1.227291 -0.512077
v -0.838747 1.275489 -0.526461
v -0.801974 1.317832 -0.544719
v -0.761472 1.354557 -0.567706
v -0.717965 1.384817 -0.595116
v -0.673157 1.407565 -0.626173
v -0.637214 1.406109 -0.633976
v -0.854674 1.183538 -0.490542
v -0.811885 1.223862 -0.494174
v -0.772278 1.265418 -0.507159
v -0.734660 1.305790 -0.528445
v -0.698893 1.343536 -0.557314
v -0.665948 1.377894 -0.593418
v -0.651894 1.415743 -0.642382
v -0.881576 1.201193 -0.505949
v -0.854988 1.252149 -0.518858
v -0.820953 1.297361 -0.535034
v -0.782121 1.336937 -0.555624
v -0.740057 1.370551 -0.580888
v -0.695423 1.397237 -0.610297
vt 0.695647 0.765414
vt 0.786650 0.708578
vt 0.864993 0.758012
vt 0.817139 0.819239
vt 0.875404 0.651206
vt 0.912621 0.696731
vt 0.949838 0.742255
vt 0.944235 0.807660
vt 0.938631 0.873065
vt 0.032243 0.089830
vt 0.059811 0.095008
vt 0.064282 0.098343
vt 0.035611 0.092635
vt 0.087379 0.100186
vt 0.088997 0.102041
vt 0.090615 0.103896
vt 0.084575 0.109717
vt 0.038980 0.095439
vt 0.140399 0.140018
vt 0.065812 0.147409
vt 0.211165 0.128943
vt 0.331715 0.153989
vt 0.211505 0.185058
vt 0.092644 0.199379
vt 0.283410 0.246654
vt 0.154265 0.275467
vt 0.412621 0.215213
vt 0.493528 0.276438
vt 0.355044 0.318764
vt 0.215887 0.351555
vt 0.427083 0.399647
vt 0.295307 0.439703
vt 0.559062 0.359926
vt 0.624595 0.443414
vt 0.498313 0.479190
vt 0.374728 0.527851
vt 0.567364 0.547229
vt 0.449295 0.591880
vt 0.685275 0.504638
vt 0.745955 0.565863
vt 0.637043 0.607021
vt 0.523861 0.655909
vt 0.710543 0.659238
vt 0.609754 0.710662
vt 0.810680 0.608534
vt 0.864993 0.758012
vt 0.786650 0.708578
vt 0.944235 0.807660
vt 0.949838 0.742255
vt 0.912621 0.696731
vt 0.875404 0.651206
vt 0.064282 0.098343
vt 0.059811 0.095008
vt 0.084575 0.109717
vt 0.090615 0.103896
vt 0.088997 0.102041
vt 0.087379 0.100186
vt 0.140399 0.140018
vt 0.211505 0.185058
vt 0.331715 0.153989
vt 0.211165 0.128943
vt 0.283410 0.246654
vt 0.355044 0.318764
vt 0.493528 0.276438
vt 0.412621 0.215213
vt 0.427083 0.399647
vt 0.498313 0.479190
vt 0.624595 0.443414
vt 0.559062 0.359926
vt 0.567364 0.547228
vt 0.637043 0.607021
vt 0.745955 0.565863
vt 0.685275 0.504638
vt 0.710543 0.659238
vt 0.810680 0.608534
vn 0.1480 0.7686 0.6224
vn 0.2538 0.7027 0.6647
vn 0.3110 0.7100 0.6318
vn 0.1871 0.7921 0.5810
vn 0.2886 0.6774 0.6766
vn 0.3460 0.6813 0.6450
vn 0.3852 0.6750 0.6293
vn 0.2952 0.7329 0.6130
vn 0.2002 0.7994 0.5664
vn -0.3105 0.3107 0.8983
vn -0.2279 0.2412 0.9433
vn -0.2191 0.2444 0.9446
vn -0.3008 0.3243 0.8968
vn -0.1939 0.1778 0.9648
vn -0.2000 0.2174 0.9554
vn -0.1888 0.2803 0.9411
vn -0.2096 0.3007 0.9304
vn -0.2733 0.3615 0.8914
vn -0.1805 0.3615 0.9147
vn -0.2363 0.4090 0.8814
vn -0.1603 0.3450 0.9248
vn -0.1245 0.4019 0.9072
vn -0.1443 0.4165 0.8976
vn -0.1971 0.4566 0.8675
vn -0.1048 0.4658 0.8786
vn -0.1572 0.5023 0.8502
vn -0.0852 0.4520 0.8879
vn -0.0432 0.4975 0.8663
vn -0.0632 0.5111 0.8572
vn -0.1166 0.5462 0.8295
vn -0.0193 0.5530 0.8329
vn -0.0752 0.5881 0.8052
vn 0.0014 0.5394 0.8420
vn 0.0493 0.5778 0.8146
vn 0.0273 0.5919 0.8055
vn -0.0329 0.6281 0.7774
vn 0.0773 0.6271 0.7751
vn 0.0100 0.6660 0.7458
vn 0.1015 0.6122 0.7841
vn 0.1595 0.6409 0.7508
vn 0.1318 0.6574 0.7419
vn 0.0537 0.7018 0.7103
vn 0.1912 0.6827 0.7053
vn 0.0997 0.7361 0.6695
vn 0.2231 0.6628 0.7147
vn 0.0757 0.8644 0.4970
vn 0.0567 0.8320 0.5518
vn 0.1072 0.8562 0.5053
vn 0.0411 0.9008 0.4322
vn 0.0409 0.8815 0.4704
vn 0.0253 0.8502 0.5258
vn -0.4027 0.3649 0.8394
vn -0.4030 0.3561 0.8430
vn -0.3527 0.3946 0.8484
vn -0.3778 0.4043 0.8329
vn -0.4324 0.3699 0.8222
vn -0.4689 0.3583 0.8072
vn -0.3011 0.4406 0.8456
vn -0.2539 0.4884 0.8348
vn -0.2738 0.4998 0.8217
vn -0.3228 0.4517 0.8317
vn -0.2102 0.5349 0.8183
vn -0.1682 0.5800 0.7971
vn -0.1870 0.5919 0.7840
vn -0.2292 0.5465 0.8054
vn -0.1270 0.6238 0.7712
vn -0.0866 0.6667 0.7403
vn -0.1060 0.6798 0.7257
vn -0.1460 0.6361 0.7576
vn -0.0474 0.7089 0.7036
vn -0.0106 0.7509 0.6603
vn -0.0325 0.7669 0.6409
vn -0.0677 0.7233 0.6872
vn 0.0239 0.7924 0.6094
vn -0.0014 0.8101 0.5862
s 1
f 24/1/1 46/2/2 62/3/3 31/4/4
f 46/2/2 8/5/5 27/6/6 62/3/3
f 62/3/3 27/6/6 4/7/7 30/8/8
f 31/4/4 62/3/3 30/8/8 14/9/9
f 13/10/10 26/11/11 63/12/12 35/13/13
f 26/11/11 2/14/14 28/15/15 63/12/12
f 63/12/12 28/15/15 3/16/16 41/17/17
f 35/13/13 63/12/12 41/17/17 19/18/18
f 19/18/18 41/17/17 64/19/19 36/20/20
f 41/17/17 3/16/16 29/21/21 64/19/19
f 64/19/19 29/21/21 1/22/22 42/23/23
f 36/20/20 64/19/19 42/23/23 20/24/24
f 20/24/24 42/23/23 65/25/25 37/26/26
f 42/23/23 1/22/22 25/27/27 65/25/25
f 65/25/25 25/27/27 5/28/28 43/29/29
f 37/26/26 65/25/25 43/29/29 21/30/30
f 21/30/30 43/29/29 66/31/31 38/32/32
f 43/29/29 5/28/28 32/33/33 66/31/31
f 66/31/31 32/33/33 6/34/34 44/35/35
f 38/32/32 66/31/31 44/35/35 22/36/36
f 22/36/36 44/35/35 67/37/37 39/38/38
f 44/35/35 6/34/34 33/39/39 67/37/37
f 67/37/37 33/39/39 7/40/40 45/41/41
f 39/38/38 67/37/37 45/41/41 23/42/42
f 23/42/42 45/41/41 68/43/43 40/44/44
f 45/41/41 7/40/40 34/45/45 68/43/43
f 68/43/43 34/45/45 8/5/5 46/2/2
f 40/44/44 68/43/43 46/2/2 24/1/1
f 24/1/1 31/4/4 69/46/46 61/47/47
f 31/4/4 14/9/9 52/48/48 69/46/46
f 69/46/46 52/48/48 12/49/49 49/50/50
f 61/47/47 69/46/46 49/50/50 18/51/51
f 13/10/10 35/13/13 70/52/52 48/53/53
f 35/13/13 19/18/18 56/54/54 70/52/52
f 70/52/52 56/54/54 11/55/55 50/56/56
f 48/53/53 70/52/52 50/56/56 10/57/57
f 19/18/18 36/20/20 71/58/58 56/54/54
f 36/20/20 20/24/24 57/59/59 71/58/58
f 71/58/58 57/59/59 9/60/60 51/61/61
f 56/54/54 71/58/58 51/61/61 11/55/55
f 20/24/24 37/26/26 72/62/62 57/59/59
f 37/26/26 21/30/30 58/63/63 72/62/62
f 72/62/62 58/63/63 15/64/64 47/65/65
f 57/59/59 72/62/62 47/65/65 9/60/60
f 21/30/30 38/32/32 73/66/66 58/63/63
f 38/32/32 22/36/36 59/67/67 73/66/66
f 73/66/66 59/67/67 16/68/68 53/69/69
f 58/63/63 73/66/66 53/69/69 15/64/64
f 22/36/36 39/38/38 74/70/70 59/67/67
f 39/38/38 23/42/42 60/71/71 74/70/70
f 74/70/70 60/71/71 17/72/72 54/73/73
f 59/67/67 74/70/70 54/73/73 16/68/68
f 23/42/42 40/44/44 75/74/74 60/71/71
f 40/44/44 24/1/1 61/47/47 75/74/74
f 75/74/74 61/47/47 18/51/51 55/75/75
f 60/71/71 75/74/74 55/75/75 17/72/72
