# Blender v3.0.0 OBJ File: 'tropical-scene_volume.blend'
# www.blender.org
o Plane.008_Plane.001
v -0.993655 1.171699 -0.520691
v -0.901070 1.158931 -0.501128
v -0.943779 1.168987 -0.515267
v -1.203391 1.071110 -0.492254
v -1.042468 1.164775 -0.519691
v -1.089715 1.149832 -0.515960
v -1.134441 1.126975 -0.509562
v -1.174661 1.097663 -0.500884
v -0.981552 1.128271 -0.426066
v -0.896736 1.143380 -0.467244
v -0.934396 1.135320 -0.441910
v -1.201248 1.063422 -0.475503
v -0.890524 1.153154 -0.484341
v -1.211880 1.061669 -0.485224
v -1.029934 1.119802 -0.421698
v -1.078129 1.108259 -0.425377
v -1.125184 1.093757 -0.437182
v -1.168944 1.077152 -0.456192
v -0.938715 1.155559 -0.477074
v -0.987658 1.153394 -0.471807
v -1.036692 1.145653 -0.469088
v -1.084836 1.132320 -0.469049
v -1.131126 1.113508 -0.471762
v -1.174072 1.089524 -0.477276
v -1.018219 1.169317 -0.520705
v -0.892752 1.155955 -0.492605
v -1.191119 1.082923 -0.496401
v -0.919561 1.163960 -0.509020
v -0.968826 1.171665 -0.519064
v -1.210106 1.064499 -0.488648
v -1.193414 1.075877 -0.481066
v -1.066341 1.158281 -0.518116
v -1.112455 1.139389 -0.513111
v -1.155431 1.112786 -0.505387
v -0.914550 1.154697 -0.480560
v -0.963112 1.155167 -0.474133
v -1.012226 1.150224 -0.470119
v -1.060936 1.139681 -0.468728
v -1.108272 1.123587 -0.470059
v -1.153211 1.102126 -0.474161
v -0.941177 1.162911 -0.495886
v -0.990667 1.163185 -0.495954
v -1.039672 1.155845 -0.494088
v -1.087447 1.141690 -0.492201
v -1.133030 1.120831 -0.490360
v -1.174792 1.093990 -0.488844
v -1.005685 1.124346 -0.422717
v -0.890701 1.148598 -0.476574
v -1.187309 1.069252 -0.466611
v -0.912607 1.139010 -0.454656
v -0.957727 1.131842 -0.432292
v -1.209168 1.061136 -0.481320
v -1.054121 1.114432 -0.422572
v -1.101855 1.101357 -0.430243
v -1.147842 1.085554 -0.446051
v -0.936485 1.146078 -0.459208
v -0.984615 1.141472 -0.448642
v -1.033405 1.133358 -0.445092
v -1.081654 1.120904 -0.446909
v -1.128401 1.104222 -0.454170
v -1.171933 1.083735 -0.466498
v -1.193121 1.079273 -0.488609
v -0.916620 1.159882 -0.494528
v -0.965938 1.164056 -0.496309
v -1.015273 1.160406 -0.495114
v -1.063771 1.149604 -0.493119
v -1.110573 1.132091 -0.491282
v -1.154617 1.108010 -0.489482
v -1.191231 1.072492 -0.473833
v -0.913156 1.147454 -0.467450
v -0.960389 1.144145 -0.452923
v -1.009007 1.137921 -0.446120
v -1.057660 1.127680 -0.445347
v -1.105273 1.113075 -0.449848
v -1.150822 1.094394 -0.459814
vt 0.695647 0.765414
vt 0.786650 0.708578
vt 0.864993 0.758012
vt 0.817139 0.819239
vt 0.875404 0.651206
vt 0.912621 0.696731
vt 0.949838 0.742255
vt 0.944235 0.807660
vt 0.938631 0.873065
vt 0.032243 0.089830
vt 0.059811 0.095008
vt 0.064282 0.098343
vt 0.035611 0.092635
vt 0.087379 0.100186
vt 0.088997 0.102041
vt 0.090615 0.103896
vt 0.084575 0.109717
vt 0.038980 0.095439
vt 0.140399 0.140018
vt 0.065812 0.147409
vt 0.211165 0.128943
vt 0.331715 0.153989
vt 0.211505 0.185058
vt 0.092644 0.199379
vt 0.283410 0.246654
vt 0.154265 0.275467
vt 0.412621 0.215213
vt 0.493528 0.276438
vt 0.355044 0.318764
vt 0.215887 0.351555
vt 0.427083 0.399647
vt 0.295307 0.439703
vt 0.559062 0.359926
vt 0.624595 0.443414
vt 0.498313 0.479190
vt 0.374728 0.527851
vt 0.567364 0.547229
vt 0.449295 0.591880
vt 0.685275 0.504638
vt 0.745955 0.565863
vt 0.637043 0.607021
vt 0.523861 0.655909
vt 0.710543 0.659238
vt 0.609754 0.710662
vt 0.810680 0.608534
vt 0.864993 0.758012
vt 0.786650 0.708578
vt 0.944235 0.807660
vt 0.949838 0.742255
vt 0.912621 0.696731
vt 0.875404 0.651206
vt 0.064282 0.098343
vt 0.059811 0.095008
vt 0.084575 0.109717
vt 0.090615 0.103896
vt 0.088997 0.102041
vt 0.087379 0.100186
vt 0.140399 0.140018
vt 0.211505 0.185058
vt 0.331715 0.153989
vt 0.211165 0.128943
vt 0.283410 0.246654
vt 0.355044 0.318764
vt 0.493528 0.276438
vt 0.412621 0.215213
vt 0.427083 0.399647
vt 0.498313 0.479190
vt 0.624595 0.443414
vt 0.559062 0.359926
vt 0.567364 0.547228
vt 0.637043 0.607021
vt 0.745955 0.565863
vt 0.685275 0.504638
vt 0.710543 0.659238
vt 0.810680 0.608534
vn -0.5506 0.7297 0.4053
vn -0.5720 0.7702 0.2819
vn -0.6219 0.7429 0.2477
vn -0.6005 0.6948 0.3957
vn -0.5768 0.7811 0.2389
vn -0.6242 0.7546 0.2021
vn -0.6495 0.7410 0.1704
vn -0.6296 0.7262 0.2758
vn -0.6169 0.6824 0.3921
vn 0.1309 0.9073 0.3996
vn 0.1286 0.9483 0.2902
vn 0.1204 0.9506 0.2860
vn 0.1143 0.9084 0.4023
vn 0.1525 0.9633 0.2206
vn 0.1276 0.9590 0.2531
vn 0.0736 0.9543 0.2897
vn 0.0722 0.9449 0.3193
vn 0.0683 0.9100 0.4089
vn 0.0070 0.9397 0.3418
vn 0.0077 0.9092 0.4163
vn 0.0059 0.9489 0.3154
vn -0.0615 0.9418 0.3305
vn -0.0593 0.9329 0.3552
vn -0.0551 0.9048 0.4223
vn -0.1242 0.9237 0.3624
vn -0.1175 0.8968 0.4266
vn -0.1269 0.9324 0.3384
vn -0.1913 0.9203 0.3412
vn -0.1882 0.9116 0.3653
vn -0.1796 0.8852 0.4292
vn -0.2518 0.8965 0.3645
vn -0.2415 0.8698 0.4301
vn -0.2553 0.9051 0.3398
vn -0.3197 0.8867 0.3338
vn -0.3156 0.8780 0.3597
vn -0.3031 0.8508 0.4292
vn -0.3797 0.8563 0.3500
vn -0.3643 0.8278 0.4265
vn -0.3847 0.8650 0.3219
vn -0.4502 0.8402 0.3022
vn -0.4438 0.8316 0.3338
vn -0.4251 0.8008 0.4219
vn -0.5083 0.8031 0.3107
vn -0.4872 0.7684 0.4150
vn -0.5153 0.8121 0.2738
vn -0.5859 0.6136 0.5293
vn -0.5418 0.6620 0.5178
vn -0.6009 0.6230 0.5008
vn -0.5968 0.5519 0.5824
vn -0.5775 0.5870 0.5673
vn -0.5365 0.6364 0.5541
vn 0.1485 0.8497 0.5058
vn 0.1554 0.8521 0.4997
vn 0.0941 0.8663 0.4906
vn 0.1025 0.8504 0.5159
vn 0.1632 0.8313 0.5313
vn 0.1946 0.8123 0.5499
vn 0.0255 0.8735 0.4862
vn -0.0425 0.8726 0.4865
vn -0.0386 0.8598 0.5091
vn 0.0308 0.8596 0.5099
vn -0.1081 0.8658 0.4885
vn -0.1721 0.8539 0.4910
vn -0.1693 0.8413 0.5133
vn -0.1048 0.8533 0.5108
vn -0.2353 0.8373 0.4935
vn -0.2982 0.8155 0.4960
vn -0.2959 0.8014 0.5197
vn -0.2328 0.8242 0.5163
vn -0.3605 0.7878 0.4993
vn -0.4220 0.7533 0.5043
vn -0.4209 0.7347 0.5320
vn -0.3588 0.7720 0.5246
vn -0.4827 0.7112 0.5110
vn -0.4809 0.6888 0.5425
s 1
f 24/1/1 46/2/2 62/3/3 31/4/4
f 46/2/2 8/5/5 27/6/6 62/3/3
f 62/3/3 27/6/6 4/7/7 30/8/8
f 31/4/4 62/3/3 30/8/8 14/9/9
f 13/10/10 26/11/11 63/12/12 35/13/13
f 26/11/11 2/14/14 28/15/15 63/12/12
f 63/12/12 28/15/15 3/16/16 41/17/17
f 35/13/13 63/12/12 41/17/17 19/18/18
f 19/18/18 41/17/17 64/19/19 36/20/20
f 41/17/17 3/16/16 29/21/21 64/19/19
f 64/19/19 29/21/21 1/22/22 42/23/23
f 36/20/20 64/19/19 42/23/23 20/24/24
f 20/24/24 42/23/23 65/25/25 37/26/26
f 42/23/23 1/22/22 25/27/27 65/25/25
f 65/25/25 25/27/27 5/28/28 43/29/29
f 37/26/26 65/25/25 43/29/29 21/30/30
f 21/30/30 43/29/29 66/31/31 38/32/32
f 43/29/29 5/28/28 32/33/33 66/31/31
f 66/31/31 32/33/33 6/34/34 44/35/35
f 38/32/32 66/31/31 44/35/35 22/36/36
f 22/36/36 44/35/35 67/37/37 39/38/38
f 44/35/35 6/34/34 33/39/39 67/37/37
f 67/37/37 33/39/39 7/40/40 45/41/41
f 39/38/38 67/37/37 45/41/41 23/42/42
f 23/42/42 45/41/41 68/43/43 40/44/44
f 45/41/41 7/40/40 34/45/45 68/43/43
f 68/43/43 34/45/45 8/5/5 46/2/2
f 40/44/44 68/43/43 46/2/2 24/1/1
f 24/1/1 31/4/4 69/46/46 61/47/47
f 31/4/4 14/9/9 52/48/48 69/46/46
f 69/46/46 52/48/48 12/49/49 49/50/50
f 61/47/47 69/46/46 49/50/50 18/51/51
f 13/10/10 35/13/13 70/52/52 48/53/53
f 35/13/13 19/18/18 56/54/54 70/52/52
f 70/52/52 56/54/54 11/55/55 50/56/56
f 48/53/53 70/52/52 50/56/56 10/57/57
f 19/18/18 36/20/20 71/58/58 56/54/54
f 36/20/20 20/24/24 57/59/59 71/58/58
f 71/58/58 57/59/59 9/60/60 51/61/61
f 56/54/54 71/58/58 51/61/61 11/55/55
f 20/24/24 37/26/26 72/62/62 57/59/59
f 37/26/26 21/30/30 58/63/63 72/62/62
f 72/62/62 58/63/63 15/64/64 47/65/65
f 57/59/59 72/62/62 47/65/65 9/60/60
f 21/30/30 38/32/32 73/66/66 58/63/63
f 38/32/32 22/36/36 59/67/67 73/66/66
f 73/66/66 59/67/67 16/68/68 53/69/69
f 58/63/63 73/66/66 53/69/69 15/64/64
f 22/36/36 39/38/38 74/70/70 59/67/67
f 39/38/38 23/42/42 60/71/71 74/70/70
f 74/70/70 60/71/71 17/72/72 54/73/73
f 59/67/67 74/70/70 54/73/73 16/68/68
f 23/42/42 40/44/44 75/74/74 60/71/71
f 40/44/44 24/1/1 61/47/47 75/74/74
f 75/74/74 61/47/47 18/51/51 55/75/75
f 60/71/71 75/74/74 55/75/75 17/72/72
