# Blender v3.0.0 OBJ File: 'tropical-scene_volume.blend'
# www.blender.org
o Plane.009_Plane.001
v -0.975040 1.249822 -0.554538
v -0.892208 1.165208 -0.502230
v -0.925412 1.208914 -0.532110
v -1.285038 1.296118 -0.606348
v -1.033016 1.279107 -0.570351
v -1.096199 1.298200 -0.583838
v -1.163459 1.306493 -0.594755
v -1.231446 1.304117 -0.602656
v -1.030122 1.191955 -0.437029
v -0.911932 1.144487 -0.460151
v -0.968114 1.164053 -0.441012
v -1.294788 1.285874 -0.585546
v -0.891535 1.150729 -0.478280
v -1.303762 1.291967 -0.601960
v -1.090059 1.219181 -0.448659
v -1.148929 1.242805 -0.471349
v -1.205592 1.262231 -0.504871
v -1.257462 1.276787 -0.547155
v -0.944466 1.190026 -0.483740
v -1.000764 1.224760 -0.493025
v -1.060236 1.253297 -0.506850
v -1.121788 1.274876 -0.525076
v -1.184273 1.288890 -0.547464
v -1.245843 1.294553 -0.573537
v -1.003212 1.265797 -0.562931
v -0.888706 1.155559 -0.489131
v -1.261626 1.300064 -0.605268
v -0.905409 1.184886 -0.517322
v -0.948961 1.230935 -0.544484
v -1.298470 1.293795 -0.605233
v -1.275141 1.293908 -0.587588
v -1.064053 1.289941 -0.577341
v -1.129382 1.303739 -0.589660
v -1.197997 1.306499 -0.599099
v -0.917735 1.170708 -0.480723
v -0.972151 1.208112 -0.487811
v -1.030171 1.239854 -0.499377
v -1.090823 1.264997 -0.515426
v -1.152988 1.282860 -0.535769
v -1.215412 1.292872 -0.560100
v -0.934508 1.200134 -0.507396
v -0.987561 1.238017 -0.523264
v -1.046382 1.266981 -0.538102
v -1.108848 1.287358 -0.553985
v -1.173818 1.298541 -0.570669
v -1.238905 1.300104 -0.587840
v -1.060252 1.205873 -0.441245
v -0.898038 1.145755 -0.469223
v -1.278967 1.281846 -0.568274
v -0.937055 1.151641 -0.449810
v -0.999472 1.177871 -0.436728
v -1.302736 1.289314 -0.596133
v -1.119671 1.231512 -0.458691
v -1.177620 1.253062 -0.486751
v -1.232537 1.270213 -0.525414
v -0.955860 1.177704 -0.461847
v -1.015103 1.209083 -0.464510
v -1.074903 1.237018 -0.477257
v -1.135213 1.259661 -0.497740
v -1.194885 1.276409 -0.525728
v -1.251913 1.286439 -0.560090
v -1.269443 1.297492 -0.596568
v -0.910801 1.178088 -0.498424
v -0.960169 1.220219 -0.515623
v -1.016399 1.253579 -0.530645
v -1.077243 1.278270 -0.545898
v -1.141088 1.294136 -0.562258
v -1.206731 1.300532 -0.579195
v -1.278044 1.288456 -0.578218
v -0.926564 1.161529 -0.464796
v -0.985424 1.193687 -0.461745
v -1.044919 1.223617 -0.469803
v -1.105052 1.249056 -0.486573
v -1.165208 1.268797 -0.510803
v -1.224002 1.282389 -0.542353
vt 0.695647 0.765414
vt 0.786650 0.708578
vt 0.864993 0.758012
vt 0.817139 0.819239
vt 0.875404 0.651206
vt 0.912621 0.696731
vt 0.949838 0.742255
vt 0.944235 0.807660
vt 0.938631 0.873065
vt 0.032243 0.089830
vt 0.059811 0.095008
vt 0.064282 0.098343
vt 0.035611 0.092635
vt 0.087379 0.100186
vt 0.088997 0.102041
vt 0.090615 0.103896
vt 0.084575 0.109717
vt 0.038980 0.095439
vt 0.140399 0.140018
vt 0.065812 0.147409
vt 0.211165 0.128943
vt 0.331715 0.153989
vt 0.211505 0.185058
vt 0.092644 0.199379
vt 0.283410 0.246654
vt 0.154265 0.275467
vt 0.412621 0.215213
vt 0.493528 0.276438
vt 0.355044 0.318764
vt 0.215887 0.351555
vt 0.427083 0.399647
vt 0.295307 0.439703
vt 0.559062 0.359926
vt 0.624595 0.443414
vt 0.498313 0.479190
vt 0.374728 0.527851
vt 0.567364 0.547229
vt 0.449295 0.591880
vt 0.685275 0.504638
vt 0.745955 0.565863
vt 0.637043 0.607021
vt 0.523861 0.655909
vt 0.710543 0.659238
vt 0.609754 0.710662
vt 0.810680 0.608534
vt 0.864993 0.758012
vt 0.786650 0.708578
vt 0.944235 0.807660
vt 0.949838 0.742255
vt 0.912621 0.696731
vt 0.875404 0.651206
vt 0.064282 0.098343
vt 0.059811 0.095008
vt 0.084575 0.109717
vt 0.090615 0.103896
vt 0.088997 0.102041
vt 0.087379 0.100186
vt 0.140399 0.140018
vt 0.211505 0.185058
vt 0.331715 0.153989
vt 0.211165 0.128943
vt 0.283410 0.246654
vt 0.355044 0.318764
vt 0.493528 0.276438
vt 0.412621 0.215213
vt 0.427083 0.399647
vt 0.498313 0.479190
vt 0.624595 0.443414
vt 0.559062 0.359926
vt 0.567364 0.547228
vt 0.637043 0.607021
vt 0.745955 0.565863
vt 0.685275 0.504638
vt 0.710543 0.659238
vt 0.810680 0.608534
vn -0.1606 0.9132 0.3744
vn -0.1207 0.9587 0.2575
vn -0.1653 0.9639 0.2085
vn -0.2163 0.9123 0.3478
vn -0.1065 0.9704 0.2168
vn -0.1479 0.9749 0.1662
vn -0.1662 0.9778 0.1276
vn -0.1884 0.9545 0.2310
vn -0.2349 0.9111 0.3385
vn 0.4775 0.6786 0.5580
vn 0.5289 0.7138 0.4591
vn 0.5248 0.7203 0.4535
vn 0.4642 0.6888 0.5568
vn 0.5758 0.7128 0.4004
vn 0.5444 0.7232 0.4250
vn 0.4885 0.7495 0.4466
vn 0.4740 0.7426 0.4732
vn 0.4267 0.7159 0.5526
vn 0.4130 0.7748 0.4785
vn 0.3760 0.7492 0.5452
vn 0.4246 0.7831 0.4544
vn 0.3630 0.8149 0.4518
vn 0.3529 0.8064 0.4746
vn 0.3221 0.7807 0.5354
vn 0.2943 0.8351 0.4647
vn 0.2670 0.8090 0.5235
vn 0.3037 0.8438 0.4424
vn 0.2453 0.8698 0.4281
vn 0.2362 0.8609 0.4505
vn 0.2106 0.8342 0.5096
vn 0.1778 0.8840 0.4323
vn 0.1530 0.8562 0.4934
vn 0.1867 0.8931 0.4092
vn 0.1274 0.9140 0.3852
vn 0.1186 0.9045 0.4096
vn 0.0941 0.8749 0.4750
vn 0.0589 0.9224 0.3818
vn 0.0340 0.8902 0.4543
vn 0.0675 0.9324 0.3551
vn 0.0078 0.9485 0.3168
vn -0.0008 0.9378 0.3472
vn -0.0275 0.9018 0.4312
vn -0.0607 0.9503 0.3053
vn -0.0923 0.9098 0.4047
vn -0.0509 0.9616 0.2697
vn -0.2863 0.8368 0.4666
vn -0.2220 0.8523 0.4736
vn -0.2850 0.8530 0.4371
vn -0.3432 0.7919 0.5050
vn -0.3047 0.8102 0.5007
vn -0.2419 0.8282 0.5056
vn 0.4304 0.6212 0.6548
vn 0.4389 0.6193 0.6510
vn 0.4005 0.6653 0.6301
vn 0.3914 0.6475 0.6538
vn 0.4249 0.5976 0.6799
vn 0.4344 0.5643 0.7020
vn 0.3511 0.7097 0.6107
vn 0.2965 0.7472 0.5948
vn 0.2863 0.7343 0.6155
vn 0.3411 0.6953 0.6326
vn 0.2402 0.7782 0.5802
vn 0.1823 0.8042 0.5657
vn 0.1714 0.7922 0.5857
vn 0.2297 0.7660 0.6004
vn 0.1224 0.8258 0.5505
vn 0.0600 0.8430 0.5346
vn 0.0475 0.8301 0.5556
vn 0.1109 0.8135 0.5708
vn -0.0052 0.8550 0.5186
vn -0.0740 0.8608 0.5034
vn -0.0909 0.8448 0.5273
vn -0.0195 0.8410 0.5407
vn -0.1467 0.8599 0.4888
vn -0.1663 0.8404 0.5159
s 1
f 24/1/1 46/2/2 62/3/3 31/4/4
f 46/2/2 8/5/5 27/6/6 62/3/3
f 62/3/3 27/6/6 4/7/7 30/8/8
f 31/4/4 62/3/3 30/8/8 14/9/9
f 13/10/10 26/11/11 63/12/12 35/13/13
f 26/11/11 2/14/14 28/15/15 63/12/12
f 63/12/12 28/15/15 3/16/16 41/17/17
f 35/13/13 63/12/12 41/17/17 19/18/18
f 19/18/18 41/17/17 64/19/19 36/20/20
f 41/17/17 3/16/16 29/21/21 64/19/19
f 64/19/19 29/21/21 1/22/22 42/23/23
f 36/20/20 64/19/19 42/23/23 20/24/24
f 20/24/24 42/23/23 65/25/25 37/26/26
f 42/23/23 1/22/22 25/27/27 65/25/25
f 65/25/25 25/27/27 5/28/28 43/29/29
f 37/26/26 65/25/25 43/29/29 21/30/30
f 21/30/30 43/29/29 66/31/31 38/32/32
f 43/29/29 5/28/28 32/33/33 66/31/31
f 66/31/31 32/33/33 6/34/34 44/35/35
f 38/32/32 66/31/31 44/35/35 22/36/36
f 22/36/36 44/35/35 67/37/37 39/38/38
f 44/35/35 6/34/34 33/39/39 67/37/37
f 67/37/37 33/39/39 7/40/40 45/41/41
f 39/38/38 67/37/37 45/41/41 23/42/42
f 23/42/42 45/41/41 68/43/43 40/44/44
f 45/41/41 7/40/40 34/45/45 68/43/43
f 68/43/43 34/45/45 8/5/5 46/2/2
f 40/44/44 68/43/43 46/2/2 24/1/1
f 24/1/1 31/4/4 69/46/46 61/47/47
f 31/4/4 14/9/9 52/48/48 69/46/46
f 69/46/46 52/48/48 12/49/49 49/50/50
f 61/47/47 69/46/46 49/50/50 18/51/51
f 13/10/10 35/13/13 70/52/52 48/53/53
f 35/13/13 19/18/18 56/54/54 70/52/52
f 70/52/52 56/54/54 11/55/55 50/56/56
f 48/53/53 70/52/52 50/56/56 10/57/57
f 19/18/18 36/20/20 71/58/58 56/54/54
f 36/20/20 20/24/24 57/59/59 71/58/58
f 71/58/58 57/59/59 9/60/60 51/61/61
f 56/54/54 71/58/58 51/61/61 11/55/55
f 20/24/24 37/26/26 72/62/62 57/59/59
f 37/26/26 21/30/30 58/63/63 72/62/62
f 72/62/62 58/63/63 15/64/64 47/65/65
f 57/59/59 72/62/62 47/65/65 9/60/60
f 21/30/30 38/32/32 73/66/66 58/63/63
f 38/32/32 22/36/36 59/67/67 73/66/66
f 73/66/66 59/67/67 16/68/68 53/69/69
f 58/63/63 73/66/66 53/69/69 15/64/64
f 22/36/36 39/38/38 74/70/70 59/67/67
f 39/38/38 23/42/42 60/71/71 74/70/70
f 74/70/70 60/71/71 17/72/72 54/73/73
f 59/67/67 74/70/70 54/73/73 16/68/68
f 23/42/42 40/44/44 75/74/74 60/71/71
f 40/44/44 24/1/1 61/47/47 75/74/74
f 75/74/74 61/47/47 18/51/51 55/75/75
f 60/71/71 75/74/74 55/75/75 17/72/72
