# Blender v3.0.0 OBJ File: 'tropical-scene_volume.blend'
# www.blender.org
o Plane.003_Plane.001
v -0.902542 1.189429 -0.623875
v -0.879358 1.154636 -0.509514
v -0.882555 1.173079 -0.565239
v -1.100997 1.153784 -0.844432
v -0.933831 1.197397 -0.677834
v -0.971519 1.196957 -0.728778
v -1.014964 1.187901 -0.775678
v -1.061884 1.171090 -0.816494
v -1.015879 1.179845 -0.553677
v -0.919943 1.151204 -0.484377
v -0.970419 1.165649 -0.510818
v -1.121060 1.152087 -0.832005
v -0.893844 1.152487 -0.487629
v -1.117972 1.148925 -0.849976
v -1.051203 1.187472 -0.605137
v -1.080016 1.187783 -0.661578
v -1.101657 1.180570 -0.721982
v -1.115414 1.166564 -0.783338
v -0.925911 1.173848 -0.536487
v -0.958921 1.189286 -0.587674
v -0.992524 1.197187 -0.640849
v -1.026066 1.197160 -0.695007
v -1.058890 1.188996 -0.749116
v -1.089967 1.172553 -0.801536
v -0.917147 1.194460 -0.651293
v -0.885132 1.152559 -0.495113
v -1.083561 1.161502 -0.832761
v -0.878576 1.162571 -0.534709
v -0.890771 1.182299 -0.595284
v -1.111970 1.150014 -0.849991
v -1.104236 1.161284 -0.826112
v -0.951971 1.198240 -0.703713
v -0.992540 1.193514 -0.752812
v -1.038473 1.180233 -0.797141
v -0.909798 1.163604 -0.511870
v -0.942300 1.182477 -0.561769
v -0.975689 1.194207 -0.614075
v -1.009344 1.198181 -0.667869
v -1.042609 1.194101 -0.722133
v -1.074781 1.181832 -0.775750
v -0.904125 1.174304 -0.550574
v -0.930677 1.190229 -0.605568
v -0.963179 1.198183 -0.659222
v -0.998849 1.197957 -0.711860
v -1.037036 1.189341 -0.762450
v -1.076173 1.172520 -0.809318
v -1.034513 1.184536 -0.578599
v -0.904334 1.150936 -0.483220
v -1.119242 1.158485 -0.810661
v -0.943691 1.157065 -0.494378
v -0.994702 1.173510 -0.530912
v -1.120747 1.149272 -0.844555
v -1.066409 1.188563 -0.632832
v -1.091796 1.185121 -0.691335
v -1.109543 1.174223 -0.753121
v -0.948057 1.170589 -0.523363
v -0.987346 1.185437 -0.570468
v -1.021865 1.193220 -0.622873
v -1.053097 1.193370 -0.678260
v -1.080382 1.185676 -0.735603
v -1.102938 1.170257 -0.792741
v -1.094557 1.161576 -0.830314
v -0.893906 1.163705 -0.522613
v -0.916454 1.183245 -0.578277
v -0.946392 1.195216 -0.632521
v -0.980686 1.199107 -0.685715
v -1.017657 1.194704 -0.737484
v -1.056772 1.181896 -0.786562
v -1.112255 1.160079 -0.819353
v -0.926340 1.160962 -0.502524
v -0.968419 1.178851 -0.546091
v -1.005075 1.190254 -0.596174
v -1.037905 1.194268 -0.650275
v -1.067285 1.190508 -0.706745
v -1.092307 1.178891 -0.764552
vt 0.695647 0.765414
vt 0.786650 0.708578
vt 0.864993 0.758012
vt 0.817139 0.819239
vt 0.875404 0.651206
vt 0.912621 0.696731
vt 0.949838 0.742255
vt 0.944235 0.807660
vt 0.938631 0.873065
vt 0.032243 0.089830
vt 0.059811 0.095008
vt 0.064282 0.098343
vt 0.035611 0.092635
vt 0.087379 0.100186
vt 0.088997 0.102041
vt 0.090615 0.103896
vt 0.084575 0.109717
vt 0.038980 0.095439
vt 0.140399 0.140018
vt 0.065812 0.147409
vt 0.211165 0.128943
vt 0.331715 0.153989
vt 0.211505 0.185058
vt 0.092644 0.199379
vt 0.283410 0.246654
vt 0.154265 0.275467
vt 0.412621 0.215213
vt 0.493528 0.276438
vt 0.355044 0.318764
vt 0.215887 0.351555
vt 0.427083 0.399647
vt 0.295307 0.439703
vt 0.559062 0.359926
vt 0.624595 0.443414
vt 0.498313 0.479190
vt 0.374728 0.527851
vt 0.567364 0.547229
vt 0.449295 0.591880
vt 0.685275 0.504638
vt 0.745955 0.565863
vt 0.637043 0.607021
vt 0.523861 0.655909
vt 0.710543 0.659238
vt 0.609754 0.710662
vt 0.810680 0.608534
vt 0.864993 0.758012
vt 0.786650 0.708578
vt 0.944235 0.807660
vt 0.949838 0.742255
vt 0.912621 0.696731
vt 0.875404 0.651206
vt 0.064282 0.098343
vt 0.059811 0.095008
vt 0.084575 0.109717
vt 0.090615 0.103896
vt 0.088997 0.102041
vt 0.087379 0.100186
vt 0.140399 0.140018
vt 0.211505 0.185058
vt 0.331715 0.153989
vt 0.211165 0.128943
vt 0.283410 0.246654
vt 0.355044 0.318764
vt 0.493528 0.276438
vt 0.412621 0.215213
vt 0.427083 0.399647
vt 0.498313 0.479190
vt 0.624595 0.443414
vt 0.559062 0.359926
vt 0.567364 0.547228
vt 0.637043 0.607021
vt 0.745955 0.565863
vt 0.685275 0.504638
vt 0.710543 0.659238
vt 0.810680 0.608534
vn -0.2347 0.9392 -0.2506
vn -0.1282 0.9359 -0.3280
vn -0.1342 0.9113 -0.3894
vn -0.2635 0.9167 -0.3002
vn -0.0913 0.9312 -0.3528
vn -0.0940 0.9058 -0.4131
vn -0.0855 0.8883 -0.4512
vn -0.1671 0.9085 -0.3830
vn -0.2730 0.9083 -0.3168
vn 0.1368 0.9276 0.3476
vn 0.2406 0.9251 0.2937
vn 0.2414 0.9277 0.2847
vn 0.1282 0.9336 0.3345
vn 0.3124 0.9073 0.2811
vn 0.2742 0.9214 0.2752
vn 0.2202 0.9439 0.2459
vn 0.1921 0.9466 0.2588
vn 0.1042 0.9489 0.2977
vn 0.1444 0.9664 0.2127
vn 0.0722 0.9659 0.2485
vn 0.1688 0.9653 0.1992
vn 0.1252 0.9811 0.1476
vn 0.1026 0.9816 0.1612
vn 0.0389 0.9797 0.1966
vn 0.0653 0.9920 0.1079
vn 0.0055 0.9895 0.1440
vn 0.0870 0.9917 0.0941
vn 0.0521 0.9979 0.0389
vn 0.0305 0.9981 0.0531
vn -0.0280 0.9955 0.0907
vn -0.0024 1.0000 -0.0034
vn -0.0616 0.9974 0.0366
vn 0.0195 0.9996 -0.0182
vn -0.0111 0.9969 -0.0780
vn -0.0337 0.9975 -0.0621
vn -0.0955 0.9952 -0.0183
vn -0.0627 0.9904 -0.1235
vn -0.1293 0.9888 -0.0738
vn -0.0388 0.9892 -0.1413
vn -0.0619 0.9759 -0.2091
vn -0.0880 0.9781 -0.1884
vn -0.1633 0.9779 -0.1302
vn -0.1096 0.9601 -0.2570
vn -0.1984 0.9617 -0.1891
vn -0.0793 0.9565 -0.2808
vn -0.3988 0.8889 -0.2254
vn -0.3497 0.9172 -0.1907
vn -0.3784 0.8906 -0.2521
vn -0.4725 0.8556 -0.2116
vn -0.4370 0.8768 -0.2007
vn -0.3874 0.9062 -0.1694
vn 0.0350 0.9102 0.4125
vn 0.0438 0.9084 0.4156
vn 0.0312 0.9330 0.3584
vn 0.0078 0.9260 0.3775
vn 0.0129 0.8993 0.4370
vn 0.0032 0.8812 0.4727
vn 0.0088 0.9549 0.2967
vn -0.0207 0.9711 0.2376
vn -0.0426 0.9669 0.2516
vn -0.0139 0.9498 0.3124
vn -0.0531 0.9820 0.1812
vn -0.0875 0.9881 0.1262
vn -0.1095 0.9842 0.1391
vn -0.0749 0.9780 0.1944
vn -0.1236 0.9897 0.0717
vn -0.1618 0.9867 0.0172
vn -0.1858 0.9821 0.0302
vn -0.1462 0.9856 0.0845
vn -0.2030 0.9785 -0.0366
vn -0.2481 0.9646 -0.0891
vn -0.2777 0.9577 -0.0753
vn -0.2292 0.9731 -0.0234
vn -0.2977 0.9442 -0.1405
vn -0.3317 0.9351 -0.1245
s 1
f 24/1/1 46/2/2 62/3/3 31/4/4
f 46/2/2 8/5/5 27/6/6 62/3/3
f 62/3/3 27/6/6 4/7/7 30/8/8
f 31/4/4 62/3/3 30/8/8 14/9/9
f 13/10/10 26/11/11 63/12/12 35/13/13
f 26/11/11 2/14/14 28/15/15 63/12/12
f 63/12/12 28/15/15 3/16/16 41/17/17
f 35/13/13 63/12/12 41/17/17 19/18/18
f 19/18/18 41/17/17 64/19/19 36/20/20
f 41/17/17 3/16/16 29/21/21 64/19/19
f 64/19/19 29/21/21 1/22/22 42/23/23
f 36/20/20 64/19/19 42/23/23 20/24/24
f 20/24/24 42/23/23 65/25/25 37/26/26
f 42/23/23 1/22/22 25/27/27 65/25/25
f 65/25/25 25/27/27 5/28/28 43/29/29
f 37/26/26 65/25/25 43/29/29 21/30/30
f 21/30/30 43/29/29 66/31/31 38/32/32
f 43/29/29 5/28/28 32/33/33 66/31/31
f 66/31/31 32/33/33 6/34/34 44/35/35
f 38/32/32 66/31/31 44/35/35 22/36/36
f 22/36/36 44/35/35 67/37/37 39/38/38
f 44/35/35 6/34/34 33/39/39 67/37/37
f 67/37/37 33/39/39 7/40/40 45/41/41
f 39/38/38 67/37/37 45/41/41 23/42/42
f 23/42/42 45/41/41 68/43/43 40/44/44
f 45/41/41 7/40/40 34/45/45 68/43/43
f 68/43/43 34/45/45 8/5/5 46/2/2
f 40/44/44 68/43/43 46/2/2 24/1/1
f 24/1/1 31/4/4 69/46/46 61/47/47
f 31/4/4 14/9/9 52/48/48 69/46/46
f 69/46/46 52/48/48 12/49/49 49/50/50
f 61/47/47 69/46/46 49/50/50 18/51/51
f 13/10/10 35/13/13 70/52/52 48/53/53
f 35/13/13 19/18/18 56/54/54 70/52/52
f 70/52/52 56/54/54 11/55/55 50/56/56
f 48/53/53 70/52/52 50/56/56 10/57/57
f 19/18/18 36/20/20 71/58/58 56/54/54
f 36/20/20 20/24/24 57/59/59 71/58/58
f 71/58/58 57/59/59 9/60/60 51/61/61
f 56/54/54 71/58/58 51/61/61 11/55/55
f 20/24/24 37/26/26 72/62/62 57/59/59
f 37/26/26 21/30/30 58/63/63 72/62/62
f 72/62/62 58/63/63 15/64/64 47/65/65
f 57/59/59 72/62/62 47/65/65 9/60/60
f 21/30/30 38/32/32 73/66/66 58/63/63
f 38/32/32 22/36/36 59/67/67 73/66/66
f 73/66/66 59/67/67 16/68/68 53/69/69
f 58/63/63 73/66/66 53/69/69 15/64/64
f 22/36/36 39/38/38 74/70/70 59/67/67
f 39/38/38 23/42/42 60/71/71 74/70/70
f 74/70/70 60/71/71 17/72/72 54/73/73
f 59/67/67 74/70/70 54/73/73 16/68/68
f 23/42/42 40/44/44 75/74/74 60/71/71
f 40/44/44 24/1/1 61/47/47 75/74/74
f 75/74/74 61/47/47 18/51/51 55/75/75
f 60/71/71 75/74/74 55/75/75 17/72/72
