# Blender v3.0.0 OBJ File: 'tropical-scene_volume.blend'
# www.blender.org
o Plane.002_Plane.001
v -0.848955 1.177962 -0.398687
v -0.901139 1.159627 -0.490757
v -0.882307 1.170703 -0.443731
v -0.632339 1.107734 -0.265916
v -0.808343 1.177128 -0.360916
v -0.764168 1.168551 -0.327756
v -0.717247 1.152201 -0.299919
v -0.669892 1.129237 -0.278489
v -0.772738 1.163694 -0.487501
v -0.873846 1.154518 -0.522561
v -0.823220 1.159641 -0.512583
v -0.618846 1.105209 -0.281638
v -0.894726 1.158080 -0.513029
v -0.617350 1.101266 -0.265867
v -0.729414 1.162352 -0.452891
v -0.691206 1.154892 -0.412777
v -0.658948 1.141287 -0.367853
v -0.633894 1.122498 -0.320436
v -0.853074 1.169271 -0.479082
v -0.810787 1.175004 -0.443714
v -0.768442 1.173937 -0.407204
v -0.726886 1.165881 -0.370247
v -0.686951 1.150810 -0.333556
v -0.649924 1.128844 -0.298251
v -0.829280 1.178529 -0.379113
v -0.900147 1.158422 -0.504477
v -0.648884 1.117257 -0.270861
v -0.894539 1.164514 -0.468942
v -0.866808 1.175367 -0.420086
v -0.622236 1.102839 -0.264252
v -0.633258 1.115473 -0.281801
v -0.786612 1.173806 -0.343759
v -0.741015 1.161346 -0.313110
v -0.693174 1.141268 -0.288291
v -0.873959 1.164080 -0.496171
v -0.831993 1.172969 -0.461585
v -0.789569 1.175335 -0.425558
v -0.747513 1.170788 -0.388737
v -0.706665 1.159218 -0.351824
v -0.667906 1.140677 -0.315584
v -0.867749 1.170755 -0.461580
v -0.829860 1.177266 -0.421317
v -0.788311 1.176319 -0.384116
v -0.745377 1.167996 -0.348998
v -0.701884 1.152268 -0.316675
v -0.659539 1.129598 -0.288143
v -0.750354 1.163754 -0.471083
v -0.887234 1.156005 -0.519524
v -0.624889 1.112765 -0.298821
v -0.850751 1.156317 -0.519967
v -0.796917 1.162283 -0.501529
v -0.616334 1.101734 -0.271130
v -0.709655 1.159399 -0.433436
v -0.674268 1.148850 -0.390889
v -0.645381 1.132321 -0.343983
v -0.838205 1.165224 -0.496006
v -0.791752 1.170132 -0.465724
v -0.748846 1.168931 -0.430104
v -0.708896 1.161167 -0.391508
v -0.672735 1.146811 -0.350642
v -0.641540 1.126229 -0.309117
v -0.640279 1.116382 -0.275752
v -0.884576 1.164922 -0.483023
v -0.849425 1.174945 -0.440981
v -0.809378 1.177719 -0.402422
v -0.766946 1.173081 -0.366274
v -0.723657 1.161054 -0.332434
v -0.680283 1.141701 -0.301834
v -0.628377 1.114154 -0.289621
v -0.862765 1.160838 -0.508438
v -0.814479 1.168403 -0.481703
v -0.769915 1.170331 -0.448407
v -0.728468 1.165878 -0.411113
v -0.690283 1.154807 -0.371323
v -0.656386 1.137227 -0.329680
vt 0.695647 0.765414
vt 0.786650 0.708578
vt 0.864993 0.758012
vt 0.817139 0.819239
vt 0.875404 0.651206
vt 0.912621 0.696731
vt 0.949838 0.742255
vt 0.944235 0.807660
vt 0.938631 0.873065
vt 0.032243 0.089830
vt 0.059811 0.095008
vt 0.064282 0.098343
vt 0.035611 0.092635
vt 0.087379 0.100186
vt 0.088997 0.102041
vt 0.090615 0.103896
vt 0.084575 0.109717
vt 0.038980 0.095439
vt 0.140399 0.140018
vt 0.065812 0.147409
vt 0.211165 0.128943
vt 0.331715 0.153989
vt 0.211505 0.185058
vt 0.092644 0.199379
vt 0.283410 0.246654
vt 0.154265 0.275467
vt 0.412621 0.215213
vt 0.493528 0.276438
vt 0.355044 0.318764
vt 0.215887 0.351555
vt 0.427083 0.399647
vt 0.295307 0.439703
vt 0.559062 0.359926
vt 0.624595 0.443414
vt 0.498313 0.479190
vt 0.374728 0.527851
vt 0.567364 0.547229
vt 0.449295 0.591880
vt 0.685275 0.504638
vt 0.745955 0.565863
vt 0.637043 0.607021
vt 0.523861 0.655909
vt 0.710543 0.659238
vt 0.609754 0.710662
vt 0.810680 0.608534
vt 0.864993 0.758012
vt 0.786650 0.708578
vt 0.944235 0.807660
vt 0.949838 0.742255
vt 0.912621 0.696731
vt 0.875404 0.651206
vt 0.064282 0.098343
vt 0.059811 0.095008
vt 0.084575 0.109717
vt 0.090615 0.103896
vt 0.088997 0.102041
vt 0.087379 0.100186
vt 0.140399 0.140018
vt 0.211505 0.185058
vt 0.331715 0.153989
vt 0.211165 0.128943
vt 0.283410 0.246654
vt 0.355044 0.318764
vt 0.493528 0.276438
vt 0.412621 0.215213
vt 0.427083 0.399647
vt 0.498313 0.479190
vt 0.624595 0.443414
vt 0.559062 0.359926
vt 0.567364 0.547228
vt 0.637043 0.607021
vt 0.745955 0.565863
vt 0.685275 0.504638
vt 0.710543 0.659238
vt 0.810680 0.608534
vn 0.4253 0.8768 0.2241
vn 0.3456 0.8788 0.3288
vn 0.3652 0.8479 0.3843
vn 0.4635 0.8465 0.2618
vn 0.3170 0.8762 0.3631
vn 0.3330 0.8450 0.4185
vn 0.3332 0.8250 0.4563
vn 0.3942 0.8419 0.3685
vn 0.4761 0.8355 0.2743
vn -0.0977 0.9661 -0.2391
vn -0.1813 0.9707 -0.1575
vn -0.1792 0.9725 -0.1484
vn -0.0850 0.9698 -0.2287
vn -0.2485 0.9605 -0.1254
vn -0.2085 0.9693 -0.1301
vn -0.1458 0.9824 -0.1166
vn -0.1224 0.9830 -0.1370
vn -0.0496 0.9786 -0.1998
vn -0.0613 0.9925 -0.1059
vn -0.0030 0.9869 -0.1611
vn -0.0809 0.9930 -0.0859
vn -0.0227 0.9985 -0.0485
vn -0.0050 0.9977 -0.0681
vn 0.0451 0.9917 -0.1205
vn 0.0469 0.9985 -0.0274
vn 0.0931 0.9925 -0.0796
vn 0.0301 0.9995 -0.0080
vn 0.0796 0.9962 0.0348
vn 0.0962 0.9952 0.0150
vn 0.1408 0.9893 -0.0381
vn 0.1436 0.9878 0.0595
vn 0.1883 0.9821 0.0038
vn 0.1270 0.9886 0.0799
vn 0.1726 0.9767 0.1279
vn 0.1896 0.9761 0.1062
vn 0.2355 0.9708 0.0462
vn 0.2334 0.9598 0.1559
vn 0.2824 0.9551 0.0889
vn 0.2156 0.9597 0.1798
vn 0.2548 0.9375 0.2370
vn 0.2740 0.9386 0.2098
vn 0.3291 0.9350 0.1322
vn 0.3113 0.9117 0.2680
vn 0.3767 0.9092 0.1772
vn 0.2888 0.9094 0.2993
vn 0.5669 0.8101 0.1492
vn 0.5145 0.8472 0.1320
vn 0.5553 0.8117 0.1807
vn 0.6283 0.7698 0.1126
vn 0.5945 0.7960 0.1138
vn 0.5427 0.8339 0.1000
vn -0.0218 0.9431 -0.3318
vn -0.0313 0.9426 -0.3323
vn 0.0002 0.9600 -0.2799
vn 0.0161 0.9521 -0.3054
vn -0.0093 0.9320 -0.3623
vn -0.0127 0.9163 -0.4002
vn 0.0420 0.9731 -0.2264
vn 0.0890 0.9801 -0.1776
vn 0.1052 0.9746 -0.1976
vn 0.0584 0.9669 -0.2482
vn 0.1372 0.9816 -0.1326
vn 0.1862 0.9784 -0.0898
vn 0.2029 0.9731 -0.1087
vn 0.1535 0.9764 -0.1518
vn 0.2360 0.9705 -0.0482
vn 0.2873 0.9578 -0.0076
vn 0.3057 0.9517 -0.0273
vn 0.2534 0.9650 -0.0673
vn 0.3404 0.9398 0.0313
vn 0.3961 0.9157 0.0674
vn 0.4194 0.9067 0.0452
vn 0.3607 0.9326 0.0107
vn 0.4548 0.8849 0.1008
vn 0.4812 0.8734 0.0750
s 1
f 24/1/1 46/2/2 62/3/3 31/4/4
f 46/2/2 8/5/5 27/6/6 62/3/3
f 62/3/3 27/6/6 4/7/7 30/8/8
f 31/4/4 62/3/3 30/8/8 14/9/9
f 13/10/10 26/11/11 63/12/12 35/13/13
f 26/11/11 2/14/14 28/15/15 63/12/12
f 63/12/12 28/15/15 3/16/16 41/17/17
f 35/13/13 63/12/12 41/17/17 19/18/18
f 19/18/18 41/17/17 64/19/19 36/20/20
f 41/17/17 3/16/16 29/21/21 64/19/19
f 64/19/19 29/21/21 1/22/22 42/23/23
f 36/20/20 64/19/19 42/23/23 20/24/24
f 20/24/24 42/23/23 65/25/25 37/26/26
f 42/23/23 1/22/22 25/27/27 65/25/25
f 65/25/25 25/27/27 5/28/28 43/29/29
f 37/26/26 65/25/25 43/29/29 21/30/30
f 21/30/30 43/29/29 66/31/31 38/32/32
f 43/29/29 5/28/28 32/33/33 66/31/31
f 66/31/31 32/33/33 6/34/34 44/35/35
f 38/32/32 66/31/31 44/35/35 22/36/36
f 22/36/36 44/35/35 67/37/37 39/38/38
f 44/35/35 6/34/34 33/39/39 67/37/37
f 67/37/37 33/39/39 7/40/40 45/41/41
f 39/38/38 67/37/37 45/41/41 23/42/42
f 23/42/42 45/41/41 68/43/43 40/44/44
f 45/41/41 7/40/40 34/45/45 68/43/43
f 68/43/43 34/45/45 8/5/5 46/2/2
f 40/44/44 68/43/43 46/2/2 24/1/1
f 24/1/1 31/4/4 69/46/46 61/47/47
f 31/4/4 14/9/9 52/48/48 69/46/46
f 69/46/46 52/48/48 12/49/49 49/50/50
f 61/47/47 69/46/46 49/50/50 18/51/51
f 13/10/10 35/13/13 70/52/52 48/53/53
f 35/13/13 19/18/18 56/54/54 70/52/52
f 70/52/52 56/54/54 11/55/55 50/56/56
f 48/53/53 70/52/52 50/56/56 10/57/57
f 19/18/18 36/20/20 71/58/58 56/54/54
f 36/20/20 20/24/24 57/59/59 71/58/58
f 71/58/58 57/59/59 9/60/60 51/61/61
f 56/54/54 71/58/58 51/61/61 11/55/55
f 20/24/24 37/26/26 72/62/62 57/59/59
f 37/26/26 21/30/30 58/63/63 72/62/62
f 72/62/62 58/63/63 15/64/64 47/65/65
f 57/59/59 72/62/62 47/65/65 9/60/60
f 21/30/30 38/32/32 73/66/66 58/63/63
f 38/32/32 22/36/36 59/67/67 73/66/66
f 73/66/66 59/67/67 16/68/68 53/69/69
f 58/63/63 73/66/66 53/69/69 15/64/64
f 22/36/36 39/38/38 74/70/70 59/67/67
f 39/38/38 23/42/42 60/71/71 74/70/70
f 74/70/70 60/71/71 17/72/72 54/73/73
f 59/67/67 74/70/70 54/73/73 16/68/68
f 23/42/42 40/44/44 75/74/74 60/71/71
f 40/44/44 24/1/1 61/47/47 75/74/74
f 75/74/74 61/47/47 18/51/51 55/75/75
f 60/71/71 75/74/74 55/75/75 17/72/72
