# Blender v3.0.0 OBJ File: 'tropical-scene_volume.blend'
# www.blender.org
o Plane.018_Plane.001
v -0.762733 0.916416 -0.018794
v -0.782010 0.902244 -0.089050
v -0.776696 0.912068 -0.055004
v -0.667411 0.847254 0.120157
v -0.744607 0.913172 0.014821
v -0.725064 0.903608 0.046736
v -0.704491 0.887764 0.076310
v -0.683877 0.866690 0.102248
v -0.701187 0.881185 -0.058895
v -0.759971 0.889628 -0.103410
v -0.728983 0.884756 -0.086093
v -0.656516 0.841017 0.113058
v -0.774099 0.897120 -0.102042
v -0.659433 0.840225 0.123926
v -0.680870 0.876687 -0.026708
v -0.666147 0.869882 0.008348
v -0.657414 0.860816 0.045636
v -0.654808 0.850050 0.083308
v -0.751962 0.901022 -0.071494
v -0.730891 0.901431 -0.039515
v -0.711489 0.897545 -0.006323
v -0.694196 0.889309 0.027453
v -0.679406 0.876769 0.061169
v -0.667686 0.860098 0.093802
v -0.753981 0.915644 -0.001742
v -0.779047 0.899480 -0.097688
v -0.674768 0.855927 0.112651
v -0.780940 0.907039 -0.073710
v -0.770440 0.915284 -0.036496
v -0.662461 0.842380 0.123796
v -0.663279 0.850397 0.109088
v -0.734958 0.909162 0.031011
v -0.714896 0.896471 0.061864
v -0.693989 0.877630 0.089924
v -0.762957 0.899331 -0.086883
v -0.741248 0.901756 -0.055695
v -0.720953 0.900030 -0.023032
v -0.702553 0.893970 0.010531
v -0.686466 0.883570 0.044359
v -0.673087 0.868930 0.077754
v -0.764165 0.907034 -0.063427
v -0.746612 0.909416 -0.029280
v -0.727814 0.905849 0.004178
v -0.709366 0.896939 0.037078
v -0.691659 0.882731 0.068776
v -0.675471 0.863718 0.098217
v -0.690247 0.879162 -0.043269
v -0.768620 0.893511 -0.104482
v -0.655392 0.844835 0.100026
v -0.745580 0.886799 -0.096749
v -0.714002 0.882978 -0.073270
v -0.657694 0.839652 0.120690
v -0.672813 0.873590 -0.009480
v -0.660997 0.865618 0.026745
v -0.655395 0.855538 0.064778
v -0.740308 0.893378 -0.078971
v -0.715838 0.891801 -0.049331
v -0.695945 0.887606 -0.016587
v -0.679907 0.880076 0.017883
v -0.668120 0.869257 0.053439
v -0.660936 0.855398 0.088747
v -0.668633 0.853100 0.111420
v -0.771928 0.903593 -0.080714
v -0.755661 0.909012 -0.046248
v -0.737249 0.908330 -0.012486
v -0.718506 0.902052 0.020728
v -0.700403 0.890494 0.053122
v -0.683237 0.873720 0.083914
v -0.659022 0.847598 0.105158
v -0.754316 0.893511 -0.092190
v -0.727442 0.892859 -0.064635
v -0.705382 0.890088 -0.033249
v -0.687434 0.884266 0.000482
v -0.673453 0.875067 0.035562
v -0.663940 0.862674 0.071341
vt 0.695647 0.765414
vt 0.786650 0.708578
vt 0.864993 0.758012
vt 0.817139 0.819239
vt 0.875404 0.651206
vt 0.912621 0.696731
vt 0.949838 0.742255
vt 0.944235 0.807660
vt 0.938631 0.873065
vt 0.032243 0.089830
vt 0.059811 0.095008
vt 0.064282 0.098343
vt 0.035611 0.092635
vt 0.087379 0.100186
vt 0.088997 0.102041
vt 0.090615 0.103896
vt 0.084575 0.109717
vt 0.038980 0.095439
vt 0.140399 0.140018
vt 0.065812 0.147409
vt 0.211165 0.128943
vt 0.331715 0.153989
vt 0.211505 0.185058
vt 0.092644 0.199379
vt 0.283410 0.246654
vt 0.154265 0.275467
vt 0.412621 0.215213
vt 0.493528 0.276438
vt 0.355044 0.318764
vt 0.215887 0.351555
vt 0.427083 0.399647
vt 0.295307 0.439703
vt 0.559062 0.359926
vt 0.624595 0.443414
vt 0.498313 0.479190
vt 0.374728 0.527851
vt 0.567364 0.547229
vt 0.449295 0.591880
vt 0.685275 0.504638
vt 0.745955 0.565863
vt 0.637043 0.607021
vt 0.523861 0.655909
vt 0.710543 0.659238
vt 0.609754 0.710662
vt 0.810680 0.608534
vt 0.864993 0.758012
vt 0.786650 0.708578
vt 0.944235 0.807660
vt 0.949838 0.742255
vt 0.912621 0.696731
vt 0.875404 0.651206
vt 0.064282 0.098343
vt 0.059811 0.095008
vt 0.084575 0.109717
vt 0.090615 0.103896
vt 0.088997 0.102041
vt 0.087379 0.100186
vt 0.140399 0.140018
vt 0.211505 0.185058
vt 0.331715 0.153989
vt 0.211165 0.128943
vt 0.283410 0.246654
vt 0.355044 0.318764
vt 0.493528 0.276438
vt 0.412621 0.215213
vt 0.427083 0.399647
vt 0.498313 0.479190
vt 0.624595 0.443414
vt 0.559062 0.359926
vt 0.567364 0.547228
vt 0.637043 0.607021
vt 0.745955 0.565863
vt 0.685275 0.504638
vt 0.710543 0.659238
vt 0.810680 0.608534
vn 0.6023 0.7540 0.2620
vn 0.5018 0.7974 0.3351
vn 0.4946 0.7733 0.3966
vn 0.6171 0.7221 0.3126
vn 0.4656 0.8091 0.3585
vn 0.4550 0.7858 0.4189
vn 0.4385 0.7741 0.4566
vn 0.5234 0.7568 0.3916
vn 0.6215 0.7107 0.3295
vn 0.2829 0.8929 -0.3502
vn 0.1861 0.9355 -0.3004
vn 0.1862 0.9383 -0.2913
vn 0.2929 0.8949 -0.3367
vn 0.1131 0.9501 -0.2906
vn 0.1534 0.9467 -0.2831
vn 0.2108 0.9445 -0.2517
vn 0.2379 0.9348 -0.2635
vn 0.3198 0.8990 -0.2990
vn 0.2878 0.9331 -0.2156
vn 0.3541 0.9015 -0.2485
vn 0.2647 0.9427 -0.2030
vn 0.3090 0.9392 -0.1498
vn 0.3301 0.9298 -0.1625
vn 0.3882 0.9006 -0.1953
vn 0.3664 0.9242 -0.1077
vn 0.4207 0.8961 -0.1415
vn 0.3461 0.9334 -0.0948
vn 0.3783 0.9249 -0.0383
vn 0.3984 0.9157 -0.0515
vn 0.4516 0.8879 -0.0869
vn 0.4270 0.9042 0.0061
vn 0.4810 0.8762 -0.0315
vn 0.4065 0.9134 0.0201
vn 0.4309 0.8987 0.0810
vn 0.4522 0.8895 0.0660
vn 0.5087 0.8606 0.0246
vn 0.4731 0.8715 0.1285
vn 0.5346 0.8412 0.0814
vn 0.4504 0.8809 0.1454
vn 0.4632 0.8600 0.2139
vn 0.4884 0.8507 0.1942
vn 0.5586 0.8177 0.1390
vn 0.4978 0.8262 0.2636
vn 0.5813 0.7889 0.1991
vn 0.4680 0.8361 0.2862
vn 0.7303 0.6384 0.2430
vn 0.6992 0.6844 0.2065
vn 0.7117 0.6490 0.2689
vn 0.7833 0.5767 0.2319
vn 0.7606 0.6109 0.2198
vn 0.7294 0.6581 0.1866
vn 0.3701 0.8330 -0.4111
vn 0.3615 0.8351 -0.4146
vn 0.3812 0.8528 -0.3569
vn 0.4001 0.8362 -0.3750
vn 0.3863 0.8134 -0.4348
vn 0.3886 0.7924 -0.4701
vn 0.4086 0.8639 -0.2943
vn 0.4400 0.8669 -0.2340
vn 0.4585 0.8536 -0.2472
vn 0.4275 0.8495 -0.3091
vn 0.4719 0.8638 -0.1764
vn 0.5036 0.8555 -0.1201
vn 0.5223 0.8424 -0.1321
vn 0.4904 0.8508 -0.1888
vn 0.5350 0.8424 -0.0642
vn 0.5663 0.8241 -0.0083
vn 0.5865 0.8097 -0.0204
vn 0.5542 0.8289 -0.0761
vn 0.5981 0.8000 0.0470
vn 0.6312 0.7690 0.1012
vn 0.6555 0.7500 0.0886
vn 0.6200 0.7838 0.0349
vn 0.6655 0.7302 0.1544
vn 0.6929 0.7074 0.1397
s 1
f 24/1/1 46/2/2 62/3/3 31/4/4
f 46/2/2 8/5/5 27/6/6 62/3/3
f 62/3/3 27/6/6 4/7/7 30/8/8
f 31/4/4 62/3/3 30/8/8 14/9/9
f 13/10/10 26/11/11 63/12/12 35/13/13
f 26/11/11 2/14/14 28/15/15 63/12/12
f 63/12/12 28/15/15 3/16/16 41/17/17
f 35/13/13 63/12/12 41/17/17 19/18/18
f 19/18/18 41/17/17 64/19/19 36/20/20
f 41/17/17 3/16/16 29/21/21 64/19/19
f 64/19/19 29/21/21 1/22/22 42/23/23
f 36/20/20 64/19/19 42/23/23 20/24/24
f 20/24/24 42/23/23 65/25/25 37/26/26
f 42/23/23 1/22/22 25/27/27 65/25/25
f 65/25/25 25/27/27 5/28/28 43/29/29
f 37/26/26 65/25/25 43/29/29 21/30/30
f 21/30/30 43/29/29 66/31/31 38/32/32
f 43/29/29 5/28/28 32/33/33 66/31/31
f 66/31/31 32/33/33 6/34/34 44/35/35
f 38/32/32 66/31/31 44/35/35 22/36/36
f 22/36/36 44/35/35 67/37/37 39/38/38
f 44/35/35 6/34/34 33/39/39 67/37/37
f 67/37/37 33/39/39 7/40/40 45/41/41
f 39/38/38 67/37/37 45/41/41 23/42/42
f 23/42/42 45/41/41 68/43/43 40/44/44
f 45/41/41 7/40/40 34/45/45 68/43/43
f 68/43/43 34/45/45 8/5/5 46/2/2
f 40/44/44 68/43/43 46/2/2 24/1/1
f 24/1/1 31/4/4 69/46/46 61/47/47
f 31/4/4 14/9/9 52/48/48 69/46/46
f 69/46/46 52/48/48 12/49/49 49/50/50
f 61/47/47 69/46/46 49/50/50 18/51/51
f 13/10/10 35/13/13 70/52/52 48/53/53
f 35/13/13 19/18/18 56/54/54 70/52/52
f 70/52/52 56/54/54 11/55/55 50/56/56
f 48/53/53 70/52/52 50/56/56 10/57/57
f 19/18/18 36/20/20 71/58/58 56/54/54
f 36/20/20 20/24/24 57/59/59 71/58/58
f 71/58/58 57/59/59 9/60/60 51/61/61
f 56/54/54 71/58/58 51/61/61 11/55/55
f 20/24/24 37/26/26 72/62/62 57/59/59
f 37/26/26 21/30/30 58/63/63 72/62/62
f 72/62/62 58/63/63 15/64/64 47/65/65
f 57/59/59 72/62/62 47/65/65 9/60/60
f 21/30/30 38/32/32 73/66/66 58/63/63
f 38/32/32 22/36/36 59/67/67 73/66/66
f 73/66/66 59/67/67 16/68/68 53/69/69
f 58/63/63 73/66/66 53/69/69 15/64/64
f 22/36/36 39/38/38 74/70/70 59/67/67
f 39/38/38 23/42/42 60/71/71 74/70/70
f 74/70/70 60/71/71 17/72/72 54/73/73
f 59/67/67 74/70/70 54/73/73 16/68/68
f 23/42/42 40/44/44 75/74/74 60/71/71
f 40/44/44 24/1/1 61/47/47 75/74/74
f 75/74/74 61/47/47 18/51/51 55/75/75
f 60/71/71 75/74/74 55/75/75 17/72/72
