# Blender v3.0.0 OBJ File: 'tropical-scene_volume.blend'
# www.blender.org
o Plane.007_Plane.001
v -0.899708 1.120954 -0.376574
v -0.900464 1.147682 -0.468546
v -0.906112 1.137055 -0.423900
v -0.791212 0.975088 -0.227556
v -0.884688 1.099236 -0.334749
v -0.865077 1.072083 -0.297831
v -0.841201 1.039879 -0.266646
v -0.814353 1.004401 -0.242391
v -0.802033 1.122717 -0.415439
v -0.865488 1.148313 -0.482464
v -0.830390 1.138421 -0.454030
v -0.773921 0.975400 -0.234436
v -0.885786 1.152436 -0.482367
v -0.779751 0.966722 -0.224306
v -0.783536 1.101061 -0.374997
v -0.771574 1.073771 -0.335036
v -0.766489 1.041228 -0.296374
v -0.768220 1.005234 -0.260748
v -0.867986 1.141392 -0.438131
v -0.850449 1.125373 -0.394787
v -0.833537 1.103517 -0.353276
v -0.817608 1.076083 -0.314486
v -0.802998 1.043460 -0.279248
v -0.790212 1.006386 -0.248799
v -0.892965 1.110790 -0.355033
v -0.893727 1.151035 -0.478293
v -0.801666 0.987846 -0.233654
v -0.904750 1.143003 -0.448751
v -0.904290 1.129712 -0.399493
v -0.784213 0.968482 -0.224427
v -0.784789 0.986723 -0.236061
v -0.875388 1.086318 -0.315643
v -0.853672 1.056583 -0.281465
v -0.827855 1.022196 -0.253510
v -0.876871 1.147289 -0.460195
v -0.859163 1.134123 -0.416289
v -0.841892 1.115161 -0.373745
v -0.825428 1.090476 -0.333487
v -0.810117 1.060391 -0.296374
v -0.796310 1.025386 -0.263262
v -0.886999 1.139908 -0.430859
v -0.875000 1.123827 -0.385452
v -0.859005 1.102008 -0.343713
v -0.841208 1.074675 -0.305793
v -0.821941 1.042215 -0.272523
v -0.802081 1.005687 -0.245075
v -0.791818 1.112615 -0.395280
v -0.877179 1.151333 -0.484877
v -0.770916 0.988401 -0.245890
v -0.848634 1.144016 -0.471080
v -0.814721 1.131328 -0.435133
v -0.776649 0.968619 -0.227437
v -0.776764 1.088098 -0.354885
v -0.768132 1.058127 -0.315502
v -0.766607 1.023301 -0.277881
v -0.849138 1.140592 -0.445924
v -0.826162 1.124708 -0.404884
v -0.808429 1.102921 -0.363837
v -0.794456 1.075519 -0.324396
v -0.784584 1.042889 -0.287387
v -0.779015 1.006104 -0.254254
v -0.792865 0.986940 -0.234140
v -0.890845 1.145869 -0.454682
v -0.881662 1.132593 -0.407699
v -0.867335 1.113624 -0.364124
v -0.850287 1.089010 -0.324232
v -0.831748 1.059056 -0.288524
v -0.811910 1.024285 -0.257930
v -0.777613 0.987215 -0.240209
v -0.862894 1.146374 -0.465805
v -0.836878 1.133401 -0.425519
v -0.816762 1.114536 -0.384248
v -0.800975 1.089900 -0.343853
v -0.788978 1.059828 -0.305542
v -0.781286 1.024838 -0.270115
vt 0.695647 0.765414
vt 0.786650 0.708578
vt 0.864993 0.758012
vt 0.817139 0.819239
vt 0.875404 0.651206
vt 0.912621 0.696731
vt 0.949838 0.742255
vt 0.944235 0.807660
vt 0.938631 0.873065
vt 0.032243 0.089830
vt 0.059811 0.095008
vt 0.064282 0.098343
vt 0.035611 0.092635
vt 0.087379 0.100186
vt 0.088997 0.102041
vt 0.090615 0.103896
vt 0.084575 0.109717
vt 0.038980 0.095439
vt 0.140399 0.140018
vt 0.065812 0.147409
vt 0.211165 0.128943
vt 0.331715 0.153989
vt 0.211505 0.185058
vt 0.092644 0.199379
vt 0.283410 0.246654
vt 0.154265 0.275467
vt 0.412621 0.215213
vt 0.493528 0.276438
vt 0.355044 0.318764
vt 0.215887 0.351555
vt 0.427083 0.399647
vt 0.295307 0.439703
vt 0.559062 0.359926
vt 0.624595 0.443414
vt 0.498313 0.479190
vt 0.374728 0.527851
vt 0.567364 0.547229
vt 0.449295 0.591880
vt 0.685275 0.504638
vt 0.745955 0.565863
vt 0.637043 0.607021
vt 0.523861 0.655909
vt 0.710543 0.659238
vt 0.609754 0.710662
vt 0.810680 0.608534
vt 0.864993 0.758012
vt 0.786650 0.708578
vt 0.944235 0.807660
vt 0.949838 0.742255
vt 0.912621 0.696731
vt 0.875404 0.651206
vt 0.064282 0.098343
vt 0.059811 0.095008
vt 0.084575 0.109717
vt 0.090615 0.103896
vt 0.088997 0.102041
vt 0.087379 0.100186
vt 0.140399 0.140018
vt 0.211505 0.185058
vt 0.331715 0.153989
vt 0.211165 0.128943
vt 0.283410 0.246654
vt 0.355044 0.318764
vt 0.493528 0.276438
vt 0.412621 0.215213
vt 0.427083 0.399647
vt 0.498313 0.479190
vt 0.624595 0.443414
vt 0.559062 0.359926
vt 0.567364 0.547228
vt 0.637043 0.607021
vt 0.745955 0.565863
vt 0.685275 0.504638
vt 0.710543 0.659238
vt 0.810680 0.608534
vn 0.2853 0.6038 0.7443
vn 0.1646 0.5858 0.7936
vn 0.1535 0.5328 0.8322
vn 0.2992 0.5536 0.7771
vn 0.1228 0.5775 0.8071
vn 0.1086 0.5252 0.8440
vn 0.0898 0.4932 0.8652
vn 0.1864 0.5264 0.8295
vn 0.3037 0.5361 0.7876
vn 0.0591 0.9794 0.1930
vn -0.0535 0.9732 0.2235
vn -0.0561 0.9710 0.2324
vn 0.0652 0.9759 0.2083
vn -0.1280 0.9681 0.2154
vn -0.0907 0.9683 0.2328
vn -0.0423 0.9602 0.2761
vn -0.0119 0.9627 0.2703
vn 0.0821 0.9647 0.2502
vn 0.0263 0.9452 0.3253
vn 0.1040 0.9468 0.3043
vn -0.0005 0.9429 0.3329
vn 0.0320 0.9203 0.3899
vn 0.0569 0.9225 0.3817
vn 0.1262 0.9247 0.3592
vn 0.0823 0.8959 0.4364
vn 0.1479 0.8989 0.4125
vn 0.0581 0.8936 0.4450
vn 0.0802 0.8631 0.4986
vn 0.1043 0.8656 0.4897
vn 0.1690 0.8694 0.4643
vn 0.1237 0.8313 0.5419
vn 0.1897 0.8361 0.5147
vn 0.0992 0.8284 0.5513
vn 0.1150 0.7890 0.6035
vn 0.1405 0.7925 0.5934
vn 0.2098 0.7990 0.5635
vn 0.1538 0.7490 0.6444
vn 0.2293 0.7580 0.6105
vn 0.1266 0.7444 0.6556
vn 0.1321 0.6940 0.7078
vn 0.1622 0.7005 0.6950
vn 0.2481 0.7129 0.6558
vn 0.1654 0.6460 0.7452
vn 0.2668 0.6618 0.7006
vn 0.1304 0.6376 0.7592
vn 0.4435 0.5380 0.7168
vn 0.4073 0.5901 0.6970
vn 0.4180 0.5306 0.7374
vn 0.5137 0.5009 0.6966
vn 0.4844 0.5320 0.6945
vn 0.4472 0.5834 0.6780
vn 0.1701 0.9751 0.1424
vn 0.1621 0.9771 0.1377
vn 0.1643 0.9658 0.2002
vn 0.1904 0.9644 0.1835
vn 0.1956 0.9734 0.1189
vn 0.2108 0.9742 0.0806
vn 0.1749 0.9479 0.2662
vn 0.1920 0.9250 0.3279
vn 0.2159 0.9236 0.3167
vn 0.1997 0.9466 0.2532
vn 0.2121 0.8983 0.3848
vn 0.2336 0.8679 0.4382
vn 0.2573 0.8663 0.4282
vn 0.2355 0.8968 0.3744
vn 0.2565 0.8336 0.4891
vn 0.2809 0.7951 0.5376
vn 0.3064 0.7925 0.5273
vn 0.2808 0.8317 0.4790
vn 0.3075 0.7518 0.5832
vn 0.3377 0.7036 0.6251
vn 0.3686 0.6983 0.6136
vn 0.3352 0.7482 0.5726
vn 0.3716 0.6497 0.6632
vn 0.4069 0.6426 0.6492
s 1
f 24/1/1 46/2/2 62/3/3 31/4/4
f 46/2/2 8/5/5 27/6/6 62/3/3
f 62/3/3 27/6/6 4/7/7 30/8/8
f 31/4/4 62/3/3 30/8/8 14/9/9
f 13/10/10 26/11/11 63/12/12 35/13/13
f 26/11/11 2/14/14 28/15/15 63/12/12
f 63/12/12 28/15/15 3/16/16 41/17/17
f 35/13/13 63/12/12 41/17/17 19/18/18
f 19/18/18 41/17/17 64/19/19 36/20/20
f 41/17/17 3/16/16 29/21/21 64/19/19
f 64/19/19 29/21/21 1/22/22 42/23/23
f 36/20/20 64/19/19 42/23/23 20/24/24
f 20/24/24 42/23/23 65/25/25 37/26/26
f 42/23/23 1/22/22 25/27/27 65/25/25
f 65/25/25 25/27/27 5/28/28 43/29/29
f 37/26/26 65/25/25 43/29/29 21/30/30
f 21/30/30 43/29/29 66/31/31 38/32/32
f 43/29/29 5/28/28 32/33/33 66/31/31
f 66/31/31 32/33/33 6/34/34 44/35/35
f 38/32/32 66/31/31 44/35/35 22/36/36
f 22/36/36 44/35/35 67/37/37 39/38/38
f 44/35/35 6/34/34 33/39/39 67/37/37
f 67/37/37 33/39/39 7/40/40 45/41/41
f 39/38/38 67/37/37 45/41/41 23/42/42
f 23/42/42 45/41/41 68/43/43 40/44/44
f 45/41/41 7/40/40 34/45/45 68/43/43
f 68/43/43 34/45/45 8/5/5 46/2/2
f 40/44/44 68/43/43 46/2/2 24/1/1
f 24/1/1 31/4/4 69/46/46 61/47/47
f 31/4/4 14/9/9 52/48/48 69/46/46
f 69/46/46 52/48/48 12/49/49 49/50/50
f 61/47/47 69/46/46 49/50/50 18/51/51
f 13/10/10 35/13/13 70/52/52 48/53/53
f 35/13/13 19/18/18 56/54/54 70/52/52
f 70/52/52 56/54/54 11/55/55 50/56/56
f 48/53/53 70/52/52 50/56/56 10/57/57
f 19/18/18 36/20/20 71/58/58 56/54/54
f 36/20/20 20/24/24 57/59/59 71/58/58
f 71/58/58 57/59/59 9/60/60 51/61/61
f 56/54/54 71/58/58 51/61/61 11/55/55
f 20/24/24 37/26/26 72/62/62 57/59/59
f 37/26/26 21/30/30 58/63/63 72/62/62
f 72/62/62 58/63/63 15/64/64 47/65/65
f 57/59/59 72/62/62 47/65/65 9/60/60
f 21/30/30 38/32/32 73/66/66 58/63/63
f 38/32/32 22/36/36 59/67/67 73/66/66
f 73/66/66 59/67/67 16/68/68 53/69/69
f 58/63/63 73/66/66 53/69/69 15/64/64
f 22/36/36 39/38/38 74/70/70 59/67/67
f 39/38/38 23/42/42 60/71/71 74/70/70
f 74/70/70 60/71/71 17/72/72 54/73/73
f 59/67/67 74/70/70 54/73/73 16/68/68
f 23/42/42 40/44/44 75/74/74 60/71/71
f 40/44/44 24/1/1 61/47/47 75/74/74
f 75/74/74 61/47/47 18/51/51 55/75/75
f 60/71/71 75/74/74 55/75/75 17/72/72
