# Blender v3.0.0 OBJ File: 'tropical-scene_volume.blend'
# www.blender.org
o Plane.011_Plane.001
v -0.982199 1.256293 -0.425893
v -0.907493 1.201012 -0.506553
v -0.943422 1.234148 -0.472783
v -1.177489 1.196054 -0.203540
v -1.021304 1.263692 -0.376349
v -1.062365 1.260174 -0.327327
v -1.104673 1.245588 -0.279835
v -1.146138 1.221130 -0.236005
v -0.923796 1.147982 -0.370175
v -0.886579 1.162227 -0.486601
v -0.898147 1.150181 -0.429588
v -1.167150 1.176880 -0.193677
v -0.889769 1.181224 -0.504962
v -1.184094 1.184203 -0.190666
v -0.960823 1.151526 -0.318648
v -1.006457 1.156489 -0.273988
v -1.060000 1.162739 -0.237216
v -1.118554 1.169974 -0.209689
v -0.916980 1.194859 -0.449935
v -0.949453 1.204939 -0.396304
v -0.987835 1.210479 -0.345302
v -1.031538 1.211231 -0.298033
v -1.079848 1.207052 -0.255519
v -1.131525 1.197832 -0.219275
v -1.001571 1.261534 -0.401220
v -0.896378 1.189973 -0.508768
v -1.164166 1.207558 -0.217704
v -0.924069 1.217161 -0.493224
v -0.962907 1.247355 -0.449899
v -1.183765 1.188794 -0.194768
v -1.157785 1.191353 -0.204343
v -1.041603 1.263256 -0.351681
v -1.083424 1.254290 -0.303341
v -1.125866 1.234250 -0.257090
v -0.902974 1.188304 -0.477359
v -0.932446 1.200446 -0.422864
v -0.967940 1.208294 -0.370403
v -1.009063 1.211465 -0.321135
v -1.055166 1.209762 -0.276121
v -1.105425 1.203089 -0.236414
v -0.929488 1.215009 -0.461124
v -0.965161 1.231141 -0.410774
v -1.003964 1.237624 -0.360414
v -1.046413 1.236246 -0.312188
v -1.091794 1.226861 -0.267113
v -1.138677 1.209909 -0.226970
v -0.941093 1.149373 -0.343521
v -0.886484 1.171623 -0.499328
v -1.145779 1.173459 -0.200163
v -0.890516 1.154934 -0.461213
v -0.909352 1.148033 -0.398805
v -1.179243 1.180406 -0.190453
v -0.982634 1.153893 -0.295421
v -1.032278 1.159436 -0.254545
v -1.089244 1.166331 -0.222151
v -0.906850 1.173025 -0.439527
v -0.935960 1.176986 -0.382915
v -0.973724 1.181541 -0.331563
v -1.018459 1.184404 -0.285519
v -1.069458 1.185437 -0.245804
v -1.124886 1.184331 -0.213812
v -1.161575 1.199515 -0.210075
v -0.912619 1.203042 -0.485458
v -0.946986 1.224416 -0.436102
v -0.984119 1.235447 -0.385443
v -1.024760 1.237903 -0.335955
v -1.068792 1.232570 -0.289202
v -1.115246 1.219194 -0.246150
v -1.152455 1.182602 -0.201374
v -0.895906 1.172046 -0.469513
v -0.920208 1.174756 -0.410556
v -0.953880 1.179366 -0.356593
v -0.995276 1.183221 -0.307825
v -1.043219 1.185143 -0.264804
v -1.096935 1.185235 -0.228681
vt 0.695647 0.765414
vt 0.786650 0.708578
vt 0.864993 0.758012
vt 0.817139 0.819239
vt 0.875404 0.651206
vt 0.912621 0.696731
vt 0.949838 0.742255
vt 0.944235 0.807660
vt 0.938631 0.873065
vt 0.032243 0.089830
vt 0.059811 0.095008
vt 0.064282 0.098343
vt 0.035611 0.092635
vt 0.087379 0.100186
vt 0.088997 0.102041
vt 0.090615 0.103896
vt 0.084575 0.109717
vt 0.038980 0.095439
vt 0.140399 0.140018
vt 0.065812 0.147409
vt 0.211165 0.128943
vt 0.331715 0.153989
vt 0.211505 0.185058
vt 0.092644 0.199379
vt 0.283410 0.246654
vt 0.154265 0.275467
vt 0.412621 0.215213
vt 0.493528 0.276438
vt 0.355044 0.318764
vt 0.215887 0.351555
vt 0.427083 0.399647
vt 0.295307 0.439703
vt 0.559062 0.359926
vt 0.624595 0.443414
vt 0.498313 0.479190
vt 0.374728 0.527851
vt 0.567364 0.547229
vt 0.449295 0.591880
vt 0.685275 0.504638
vt 0.745955 0.565863
vt 0.637043 0.607021
vt 0.523861 0.655909
vt 0.710543 0.659238
vt 0.609754 0.710662
vt 0.810680 0.608534
vt 0.864993 0.758012
vt 0.786650 0.708578
vt 0.944235 0.807660
vt 0.949838 0.742255
vt 0.912621 0.696731
vt 0.875404 0.651206
vt 0.064282 0.098343
vt 0.059811 0.095008
vt 0.084575 0.109717
vt 0.090615 0.103896
vt 0.088997 0.102041
vt 0.087379 0.100186
vt 0.140399 0.140018
vt 0.211505 0.185058
vt 0.331715 0.153989
vt 0.211165 0.128943
vt 0.283410 0.246654
vt 0.355044 0.318764
vt 0.493528 0.276438
vt 0.412621 0.215213
vt 0.427083 0.399647
vt 0.498313 0.479190
vt 0.624595 0.443414
vt 0.559062 0.359926
vt 0.567364 0.547228
vt 0.637043 0.607021
vt 0.745955 0.565863
vt 0.685275 0.504638
vt 0.710543 0.659238
vt 0.810680 0.608534
vn 0.3307 0.5666 0.7547
vn 0.2601 0.6639 0.7011
vn 0.1958 0.6690 0.7170
vn 0.2784 0.5538 0.7847
vn 0.2353 0.6944 0.6800
vn 0.1712 0.7008 0.6925
vn 0.1296 0.7103 0.6918
vn 0.2010 0.6437 0.7384
vn 0.2604 0.5490 0.7942
vn 0.8017 0.5512 0.2312
vn 0.7510 0.6377 0.1710
vn 0.7450 0.6436 0.1752
vn 0.7946 0.5550 0.2460
vn 0.7274 0.6771 0.1116
vn 0.7321 0.6644 0.1505
vn 0.7230 0.6566 0.2148
vn 0.7364 0.6352 0.2328
vn 0.7739 0.5647 0.2865
vn 0.7117 0.6364 0.2974
vn 0.7442 0.5756 0.3388
vn 0.6988 0.6568 0.2832
vn 0.6670 0.6605 0.3448
vn 0.6795 0.6408 0.3572
vn 0.7106 0.5846 0.3915
vn 0.6430 0.6457 0.4119
vn 0.6742 0.5912 0.4426
vn 0.6305 0.6650 0.4003
vn 0.5899 0.6693 0.4517
vn 0.6027 0.6499 0.4629
vn 0.6350 0.5955 0.4921
vn 0.5585 0.6532 0.5111
vn 0.5929 0.5974 0.5399
vn 0.5452 0.6730 0.4998
vn 0.4956 0.6761 0.5452
vn 0.5101 0.6556 0.5567
vn 0.5478 0.5969 0.5861
vn 0.4566 0.6576 0.5991
vn 0.4999 0.5938 0.6304
vn 0.4402 0.6793 0.5871
vn 0.3778 0.6836 0.6243
vn 0.3974 0.6600 0.6375
vn 0.4487 0.5881 0.6728
vn 0.3315 0.6626 0.6716
vn 0.3926 0.5792 0.7144
vn 0.3084 0.6892 0.6556
vn 0.3307 0.4188 0.8457
vn 0.3731 0.4544 0.8089
vn 0.3088 0.4438 0.8412
vn 0.3269 0.3444 0.8801
vn 0.3461 0.3764 0.8593
vn 0.3863 0.4144 0.8240
vn 0.8502 0.4484 0.2756
vn 0.8514 0.4516 0.2668
vn 0.8184 0.4830 0.3111
vn 0.8313 0.4557 0.3182
vn 0.8654 0.4172 0.2776
vn 0.8851 0.3846 0.2620
vn 0.7808 0.5082 0.3634
vn 0.7424 0.5242 0.4172
vn 0.7526 0.5017 0.4265
vn 0.7919 0.4841 0.3721
vn 0.7034 0.5337 0.4695
vn 0.6629 0.5383 0.5203
vn 0.6723 0.5165 0.5303
vn 0.7130 0.5119 0.4791
vn 0.6203 0.5386 0.5701
vn 0.5754 0.5345 0.6190
vn 0.5846 0.5109 0.6301
vn 0.6297 0.5163 0.5805
vn 0.5282 0.5249 0.6674
vn 0.4790 0.5086 0.7154
vn 0.4879 0.4795 0.7294
vn 0.5372 0.4993 0.6797
vn 0.4274 0.4847 0.7631
vn 0.4371 0.4505 0.7784
s 1
f 24/1/1 46/2/2 62/3/3 31/4/4
f 46/2/2 8/5/5 27/6/6 62/3/3
f 62/3/3 27/6/6 4/7/7 30/8/8
f 31/4/4 62/3/3 30/8/8 14/9/9
f 13/10/10 26/11/11 63/12/12 35/13/13
f 26/11/11 2/14/14 28/15/15 63/12/12
f 63/12/12 28/15/15 3/16/16 41/17/17
f 35/13/13 63/12/12 41/17/17 19/18/18
f 19/18/18 41/17/17 64/19/19 36/20/20
f 41/17/17 3/16/16 29/21/21 64/19/19
f 64/19/19 29/21/21 1/22/22 42/23/23
f 36/20/20 64/19/19 42/23/23 20/24/24
f 20/24/24 42/23/23 65/25/25 37/26/26
f 42/23/23 1/22/22 25/27/27 65/25/25
f 65/25/25 25/27/27 5/28/28 43/29/29
f 37/26/26 65/25/25 43/29/29 21/30/30
f 21/30/30 43/29/29 66/31/31 38/32/32
f 43/29/29 5/28/28 32/33/33 66/31/31
f 66/31/31 32/33/33 6/34/34 44/35/35
f 38/32/32 66/31/31 44/35/35 22/36/36
f 22/36/36 44/35/35 67/37/37 39/38/38
f 44/35/35 6/34/34 33/39/39 67/37/37
f 67/37/37 33/39/39 7/40/40 45/41/41
f 39/38/38 67/37/37 45/41/41 23/42/42
f 23/42/42 45/41/41 68/43/43 40/44/44
f 45/41/41 7/40/40 34/45/45 68/43/43
f 68/43/43 34/45/45 8/5/5 46/2/2
f 40/44/44 68/43/43 46/2/2 24/1/1
f 24/1/1 31/4/4 69/46/46 61/47/47
f 31/4/4 14/9/9 52/48/48 69/46/46
f 69/46/46 52/48/48 12/49/49 49/50/50
f 61/47/47 69/46/46 49/50/50 18/51/51
f 13/10/10 35/13/13 70/52/52 48/53/53
f 35/13/13 19/18/18 56/54/54 70/52/52
f 70/52/52 56/54/54 11/55/55 50/56/56
f 48/53/53 70/52/52 50/56/56 10/57/57
f 19/18/18 36/20/20 71/58/58 56/54/54
f 36/20/20 20/24/24 57/59/59 71/58/58
f 71/58/58 57/59/59 9/60/60 51/61/61
f 56/54/54 71/58/58 51/61/61 11/55/55
f 20/24/24 37/26/26 72/62/62 57/59/59
f 37/26/26 21/30/30 58/63/63 72/62/62
f 72/62/62 58/63/63 15/64/64 47/65/65
f 57/59/59 72/62/62 47/65/65 9/60/60
f 21/30/30 38/32/32 73/66/66 58/63/63
f 38/32/32 22/36/36 59/67/67 73/66/66
f 73/66/66 59/67/67 16/68/68 53/69/69
f 58/63/63 73/66/66 53/69/69 15/64/64
f 22/36/36 39/38/38 74/70/70 59/67/67
f 39/38/38 23/42/42 60/71/71 74/70/70
f 74/70/70 60/71/71 17/72/72 54/73/73
f 59/67/67 74/70/70 54/73/73 16/68/68
f 23/42/42 40/44/44 75/74/74 60/71/71
f 40/44/44 24/1/1 61/47/47 75/74/74
f 75/74/74 61/47/47 18/51/51 55/75/75
f 60/71/71 75/74/74 55/75/75 17/72/72
