# Blender v3.0.0 OBJ File: 'tropical-scene_volume.blend'
# www.blender.org
o Plane.012_Plane.001
v -0.891683 1.328852 -0.571972
v -0.880105 1.202625 -0.517710
v -0.876545 1.264245 -0.542637
v -1.092872 1.515772 -0.769690
v -0.920531 1.384689 -0.605444
v -0.957386 1.432573 -0.644151
v -1.001652 1.471392 -0.687505
v -1.050935 1.499752 -0.733204
v -1.027507 1.275299 -0.532069
v -0.928742 1.183448 -0.503421
v -0.981841 1.222728 -0.511702
v -1.116916 1.506292 -0.762626
v -0.898934 1.184035 -0.503961
v -1.111645 1.519019 -0.778420
v -1.061189 1.329230 -0.564121
v -1.087408 1.381307 -0.605953
v -1.105544 1.430429 -0.656983
v -1.115085 1.474459 -0.714358
v -0.928461 1.245369 -0.522152
v -0.959128 1.304489 -0.547190
v -0.990670 1.359883 -0.580211
v -1.022482 1.410326 -0.620798
v -1.053950 1.454700 -0.668357
v -1.084106 1.491373 -0.721784
v -0.904830 1.357785 -0.588095
v -0.888303 1.189457 -0.509130
v -1.074090 1.509305 -0.753996
v -0.876011 1.229922 -0.529266
v -0.881975 1.297721 -0.556885
v -1.104826 1.519105 -0.777322
v -1.098106 1.505931 -0.749899
v -0.938061 1.409670 -0.624157
v -0.978604 1.453191 -0.665299
v -1.026191 1.487021 -0.710491
v -0.913605 1.214851 -0.512540
v -0.943647 1.275313 -0.533654
v -0.974827 1.332731 -0.562725
v -1.006580 1.385796 -0.599592
v -1.038298 1.433337 -0.643750
v -1.069319 1.474215 -0.694477
v -0.902366 1.255160 -0.531454
v -0.925318 1.317123 -0.558676
v -0.955565 1.372834 -0.591971
v -0.989950 1.422084 -0.631677
v -1.027867 1.463757 -0.677202
v -1.067726 1.496363 -0.727120
v -1.045482 1.302329 -0.546774
v -0.911314 1.180384 -0.502369
v -1.116851 1.492445 -0.741433
v -0.954045 1.199155 -0.506341
v -1.006526 1.248612 -0.520293
v -1.115345 1.514958 -0.774232
v -1.075203 1.355597 -0.583867
v -1.097552 1.406291 -0.630354
v -1.111362 1.453440 -0.685469
v -0.955014 1.234401 -0.515986
v -0.993230 1.290347 -0.538724
v -1.025893 1.345105 -0.571309
v -1.054961 1.396451 -0.612577
v -1.079813 1.443275 -0.661941
v -1.099801 1.483716 -0.717696
v -1.086733 1.508583 -0.752450
v -0.894531 1.222223 -0.519867
v -0.912698 1.286919 -0.544344
v -0.939767 1.345760 -0.574527
v -0.972311 1.398326 -0.611046
v -1.008492 1.443938 -0.653760
v -1.047857 1.481365 -0.701827
v -1.107942 1.500221 -0.746219
v -0.933400 1.206898 -0.508448
v -0.974973 1.262365 -0.526048
v -1.010093 1.318031 -0.553867
v -1.040882 1.371289 -0.590901
v -1.067966 1.420488 -0.636287
v -1.090442 1.464574 -0.689316
vt 0.695647 0.765414
vt 0.786650 0.708578
vt 0.864993 0.758012
vt 0.817139 0.819239
vt 0.875404 0.651206
vt 0.912621 0.696731
vt 0.949838 0.742255
vt 0.944235 0.807660
vt 0.938631 0.873065
vt 0.032243 0.089830
vt 0.059811 0.095008
vt 0.064282 0.098343
vt 0.035611 0.092635
vt 0.087379 0.100186
vt 0.088997 0.102041
vt 0.090615 0.103896
vt 0.084575 0.109717
vt 0.038980 0.095439
vt 0.140399 0.140018
vt 0.065812 0.147409
vt 0.211165 0.128943
vt 0.331715 0.153989
vt 0.211505 0.185058
vt 0.092644 0.199379
vt 0.283410 0.246654
vt 0.154265 0.275467
vt 0.412621 0.215213
vt 0.493528 0.276438
vt 0.355044 0.318764
vt 0.215887 0.351555
vt 0.427083 0.399647
vt 0.295307 0.439703
vt 0.559062 0.359926
vt 0.624595 0.443414
vt 0.498313 0.479190
vt 0.374728 0.527851
vt 0.567364 0.547229
vt 0.449295 0.591880
vt 0.685275 0.504638
vt 0.745955 0.565863
vt 0.637043 0.607021
vt 0.523861 0.655909
vt 0.710543 0.659238
vt 0.609754 0.710662
vt 0.810680 0.608534
vt 0.864993 0.758012
vt 0.786650 0.708578
vt 0.944235 0.807660
vt 0.949838 0.742255
vt 0.912621 0.696731
vt 0.875404 0.651206
vt 0.064282 0.098343
vt 0.059811 0.095008
vt 0.084575 0.109717
vt 0.090615 0.103896
vt 0.088997 0.102041
vt 0.087379 0.100186
vt 0.140399 0.140018
vt 0.211505 0.185058
vt 0.331715 0.153989
vt 0.211165 0.128943
vt 0.283410 0.246654
vt 0.355044 0.318764
vt 0.493528 0.276438
vt 0.412621 0.215213
vt 0.427083 0.399647
vt 0.498313 0.479190
vt 0.624595 0.443414
vt 0.559062 0.359926
vt 0.567364 0.547228
vt 0.637043 0.607021
vt 0.745955 0.565863
vt 0.685275 0.504638
vt 0.710543 0.659238
vt 0.810680 0.608534
vn -0.1621 0.8201 0.5487
vn -0.0490 0.8652 0.4989
vn -0.0502 0.8965 0.4403
vn -0.1871 0.8462 0.4988
vn -0.0102 0.8771 0.4802
vn -0.0082 0.9067 0.4217
vn 0.0030 0.9233 0.3840
vn -0.0837 0.8934 0.4415
vn -0.1954 0.8544 0.4815
vn 0.1486 0.3202 0.9356
vn 0.2568 0.3484 0.9015
vn 0.2586 0.3569 0.8976
vn 0.1416 0.3350 0.9315
vn 0.3286 0.3389 0.8816
vn 0.2919 0.3565 0.8875
vn 0.2421 0.3990 0.8844
vn 0.2130 0.3939 0.8941
vn 0.1220 0.3752 0.9189
vn 0.1710 0.4465 0.8782
vn 0.0959 0.4269 0.8992
vn 0.1966 0.4535 0.8693
vn 0.1590 0.5074 0.8469
vn 0.1353 0.4998 0.8555
vn 0.0685 0.4786 0.8754
vn 0.1039 0.5509 0.8281
vn 0.0409 0.5283 0.8481
vn 0.1268 0.5588 0.8195
vn 0.0978 0.6082 0.7877
vn 0.0750 0.6000 0.7965
vn 0.0130 0.5760 0.8173
vn 0.0478 0.6475 0.7606
vn -0.0151 0.6218 0.7830
vn 0.0709 0.6561 0.7513
vn 0.0462 0.7028 0.7098
vn 0.0222 0.6936 0.7200
vn -0.0435 0.6655 0.7450
vn -0.0010 0.7386 0.6741
vn -0.0721 0.7071 0.7034
vn 0.0244 0.7488 0.6623
vn 0.0074 0.7940 0.6079
vn -0.0204 0.7825 0.6223
vn -0.1010 0.7463 0.6579
vn -0.0361 0.8252 0.5637
vn -0.1310 0.7841 0.6066
vn -0.0039 0.8376 0.5463
vn -0.3303 0.7860 0.5225
vn -0.2835 0.7728 0.5678
vn -0.3073 0.8052 0.5072
vn -0.4065 0.7619 0.5043
vn -0.3712 0.7635 0.5284
vn -0.3235 0.7535 0.5723
vn 0.0402 0.2707 0.9618
vn 0.0485 0.2663 0.9626
vn 0.0428 0.3268 0.9441
vn 0.0173 0.3103 0.9505
vn 0.0153 0.2475 0.9687
vn 0.0013 0.2098 0.9777
vn 0.0275 0.3900 0.9204
vn 0.0048 0.4483 0.8938
vn -0.0186 0.4373 0.8991
vn 0.0032 0.3772 0.9261
vn -0.0214 0.5015 0.8649
vn -0.0499 0.5507 0.8332
vn -0.0732 0.5408 0.8379
vn -0.0445 0.4912 0.8699
vn -0.0804 0.5969 0.7983
vn -0.1133 0.6402 0.7598
vn -0.1386 0.6300 0.7641
vn -0.1044 0.5869 0.8029
vn -0.1494 0.6800 0.7177
vn -0.1899 0.7157 0.6721
vn -0.2210 0.7039 0.6750
vn -0.1770 0.6694 0.7215
vn -0.2352 0.7467 0.6222
vn -0.2710 0.7323 0.6247
s 1
f 24/1/1 46/2/2 62/3/3 31/4/4
f 46/2/2 8/5/5 27/6/6 62/3/3
f 62/3/3 27/6/6 4/7/7 30/8/8
f 31/4/4 62/3/3 30/8/8 14/9/9
f 13/10/10 26/11/11 63/12/12 35/13/13
f 26/11/11 2/14/14 28/15/15 63/12/12
f 63/12/12 28/15/15 3/16/16 41/17/17
f 35/13/13 63/12/12 41/17/17 19/18/18
f 19/18/18 41/17/17 64/19/19 36/20/20
f 41/17/17 3/16/16 29/21/21 64/19/19
f 64/19/19 29/21/21 1/22/22 42/23/23
f 36/20/20 64/19/19 42/23/23 20/24/24
f 20/24/24 42/23/23 65/25/25 37/26/26
f 42/23/23 1/22/22 25/27/27 65/25/25
f 65/25/25 25/27/27 5/28/28 43/29/29
f 37/26/26 65/25/25 43/29/29 21/30/30
f 21/30/30 43/29/29 66/31/31 38/32/32
f 43/29/29 5/28/28 32/33/33 66/31/31
f 66/31/31 32/33/33 6/34/34 44/35/35
f 38/32/32 66/31/31 44/35/35 22/36/36
f 22/36/36 44/35/35 67/37/37 39/38/38
f 44/35/35 6/34/34 33/39/39 67/37/37
f 67/37/37 33/39/39 7/40/40 45/41/41
f 39/38/38 67/37/37 45/41/41 23/42/42
f 23/42/42 45/41/41 68/43/43 40/44/44
f 45/41/41 7/40/40 34/45/45 68/43/43
f 68/43/43 34/45/45 8/5/5 46/2/2
f 40/44/44 68/43/43 46/2/2 24/1/1
f 24/1/1 31/4/4 69/46/46 61/47/47
f 31/4/4 14/9/9 52/48/48 69/46/46
f 69/46/46 52/48/48 12/49/49 49/50/50
f 61/47/47 69/46/46 49/50/50 18/51/51
f 13/10/10 35/13/13 70/52/52 48/53/53
f 35/13/13 19/18/18 56/54/54 70/52/52
f 70/52/52 56/54/54 11/55/55 50/56/56
f 48/53/53 70/52/52 50/56/56 10/57/57
f 19/18/18 36/20/20 71/58/58 56/54/54
f 36/20/20 20/24/24 57/59/59 71/58/58
f 71/58/58 57/59/59 9/60/60 51/61/61
f 56/54/54 71/58/58 51/61/61 11/55/55
f 20/24/24 37/26/26 72/62/62 57/59/59
f 37/26/26 21/30/30 58/63/63 72/62/62
f 72/62/62 58/63/63 15/64/64 47/65/65
f 57/59/59 72/62/62 47/65/65 9/60/60
f 21/30/30 38/32/32 73/66/66 58/63/63
f 38/32/32 22/36/36 59/67/67 73/66/66
f 73/66/66 59/67/67 16/68/68 53/69/69
f 58/63/63 73/66/66 53/69/69 15/64/64
f 22/36/36 39/38/38 74/70/70 59/67/67
f 39/38/38 23/42/42 60/71/71 74/70/70
f 74/70/70 60/71/71 17/72/72 54/73/73
f 59/67/67 74/70/70 54/73/73 16/68/68
f 23/42/42 40/44/44 75/74/74 60/71/71
f 40/44/44 24/1/1 61/47/47 75/74/74
f 75/74/74 61/47/47 18/51/51 55/75/75
f 60/71/71 75/74/74 55/75/75 17/72/72
