# Blender v3.0.0 OBJ File: 'tropical-scene_volume.blend'
# www.blender.org
o Plane.021_Plane.001
v -0.796187 0.986445 -0.014029
v -0.787749 0.908761 -0.094147
v -0.798098 0.948454 -0.058982
v -0.713916 1.042125 0.242036
v -0.785752 1.014734 0.035278
v -0.771348 1.034452 0.088157
v -0.753228 1.045017 0.143672
v -0.732375 1.046374 0.199072
v -0.683388 0.937802 -0.015441
v -0.747357 0.891342 -0.094653
v -0.710651 0.910743 -0.060076
v -0.693948 1.033514 0.241786
v -0.769435 0.895949 -0.103433
v -0.703086 1.039404 0.254868
v -0.668938 0.964359 0.033816
v -0.663367 0.987886 0.086805
v -0.666947 1.007809 0.142592
v -0.679099 1.023399 0.198405
v -0.753157 0.932511 -0.062580
v -0.738433 0.965343 -0.017408
v -0.725868 0.993036 0.032296
v -0.715782 1.014876 0.085677
v -0.708436 1.030282 0.141788
v -0.704184 1.038478 0.199062
v -0.791682 1.001705 0.010126
v -0.778952 0.900108 -0.101546
v -0.722396 1.044377 0.223456
v -0.794360 0.926566 -0.079007
v -0.798553 0.968754 -0.037093
v -0.707717 1.040762 0.252014
v -0.703386 1.039515 0.227129
v -0.778974 1.025680 0.061327
v -0.762761 1.040919 0.115647
v -0.742903 1.046757 0.171887
v -0.761184 0.914499 -0.083340
v -0.745547 0.949519 -0.040612
v -0.731859 0.979880 0.006929
v -0.720498 1.004727 0.058584
v -0.711752 1.023414 0.113454
v -0.705876 1.035385 0.170482
v -0.775399 0.941028 -0.061353
v -0.767056 0.976498 -0.016220
v -0.755533 1.004539 0.033365
v -0.743269 1.025359 0.086578
v -0.730522 1.038375 0.142478
v -0.717989 1.043099 0.199128
v -0.674873 0.951332 0.008664
v -0.759841 0.891866 -0.101785
v -0.686884 1.029063 0.223011
v -0.729554 0.898619 -0.079819
v -0.695116 0.924147 -0.038388
v -0.698982 1.036995 0.251904
v -0.665080 0.976564 0.059901
v -0.663977 0.998319 0.114410
v -0.672171 1.016254 0.171002
v -0.731676 0.922173 -0.061900
v -0.710656 0.952176 -0.016926
v -0.697126 0.979352 0.032634
v -0.689279 1.002076 0.085903
v -0.687382 1.019771 0.141938
v -0.691351 1.031612 0.198794
v -0.712585 1.042436 0.226136
v -0.777620 0.920739 -0.082016
v -0.771809 0.959712 -0.039391
v -0.761505 0.991423 0.008065
v -0.749449 1.015879 0.059575
v -0.736953 1.032878 0.114255
v -0.724078 1.041798 0.171004
v -0.694971 1.034840 0.225916
v -0.745341 0.906819 -0.082420
v -0.720090 0.937408 -0.040038
v -0.703100 0.966236 0.007334
v -0.692502 0.991321 0.058862
v -0.687561 1.011578 0.113637
v -0.688712 1.026547 0.170561
vt 0.695647 0.765414
vt 0.786650 0.708578
vt 0.864993 0.758012
vt 0.817139 0.819239
vt 0.875404 0.651206
vt 0.912621 0.696731
vt 0.949838 0.742255
vt 0.944235 0.807660
vt 0.938631 0.873065
vt 0.032243 0.089830
vt 0.059811 0.095008
vt 0.064282 0.098343
vt 0.035611 0.092635
vt 0.087379 0.100186
vt 0.088997 0.102041
vt 0.090615 0.103896
vt 0.084575 0.109717
vt 0.038980 0.095439
vt 0.140399 0.140018
vt 0.065812 0.147409
vt 0.211165 0.128943
vt 0.331715 0.153989
vt 0.211505 0.185058
vt 0.092644 0.199379
vt 0.283410 0.246654
vt 0.154265 0.275467
vt 0.412621 0.215213
vt 0.493528 0.276438
vt 0.355044 0.318764
vt 0.215887 0.351555
vt 0.427083 0.399647
vt 0.295307 0.439703
vt 0.559062 0.359926
vt 0.624595 0.443414
vt 0.498313 0.479190
vt 0.374728 0.527851
vt 0.567364 0.547229
vt 0.449295 0.591880
vt 0.685275 0.504638
vt 0.745955 0.565863
vt 0.637043 0.607021
vt 0.523861 0.655909
vt 0.710543 0.659238
vt 0.609754 0.710662
vt 0.810680 0.608534
vt 0.864993 0.758012
vt 0.786650 0.708578
vt 0.944235 0.807660
vt 0.949838 0.742255
vt 0.912621 0.696731
vt 0.875404 0.651206
vt 0.064282 0.098343
vt 0.059811 0.095008
vt 0.084575 0.109717
vt 0.090615 0.103896
vt 0.088997 0.102041
vt 0.087379 0.100186
vt 0.140399 0.140018
vt 0.211505 0.185058
vt 0.331715 0.153989
vt 0.211165 0.128943
vt 0.283410 0.246654
vt 0.355044 0.318764
vt 0.493528 0.276438
vt 0.412621 0.215213
vt 0.427083 0.399647
vt 0.498313 0.479190
vt 0.624595 0.443414
vt 0.559062 0.359926
vt 0.567364 0.547228
vt 0.637043 0.607021
vt 0.745955 0.565863
vt 0.685275 0.504638
vt 0.710543 0.659238
vt 0.810680 0.608534
vn 0.3938 0.9156 -0.0802
vn 0.2710 0.9604 -0.0647
vn 0.2478 0.9688 -0.0030
vn 0.3957 0.9181 -0.0187
vn 0.2282 0.9718 -0.0594
vn 0.2021 0.9794 0.0002
vn 0.1761 0.9838 0.0340
vn 0.2785 0.9604 0.0077
vn 0.3960 0.9182 0.0022
vn 0.2683 0.6429 -0.7174
vn 0.1563 0.6765 -0.7196
vn 0.1532 0.6833 -0.7138
vn 0.2731 0.6539 -0.7056
vn 0.0827 0.6737 -0.7343
vn 0.1188 0.6855 -0.7183
vn 0.1632 0.7147 -0.6801
vn 0.1936 0.7082 -0.6790
vn 0.2862 0.6832 -0.6718
vn 0.2258 0.7437 -0.6292
vn 0.3024 0.7194 -0.6254
vn 0.1989 0.7516 -0.6289
vn 0.2244 0.7869 -0.5748
vn 0.2494 0.7786 -0.5757
vn 0.3179 0.7540 -0.5748
vn 0.2670 0.8108 -0.5209
vn 0.3322 0.7855 -0.5221
vn 0.2428 0.8192 -0.5195
vn 0.2564 0.8487 -0.4626
vn 0.2806 0.8400 -0.4643
vn 0.3452 0.8140 -0.4671
vn 0.2908 0.8666 -0.4054
vn 0.3569 0.8394 -0.4098
vn 0.2661 0.8755 -0.4032
vn 0.2717 0.9000 -0.3408
vn 0.2975 0.8907 -0.3437
vn 0.3672 0.8617 -0.3502
vn 0.2998 0.9123 -0.2789
vn 0.3761 0.8806 -0.2882
vn 0.2720 0.9222 -0.2749
vn 0.2651 0.9421 -0.2053
vn 0.2962 0.9315 -0.2111
vn 0.3836 0.8960 -0.2238
vn 0.2862 0.9480 -0.1394
vn 0.3896 0.9079 -0.1546
vn 0.2499 0.9592 -0.1325
vn 0.5343 0.8452 -0.0066
vn 0.5110 0.8569 -0.0677
vn 0.5074 0.8617 0.0048
vn 0.5952 0.8031 0.0287
vn 0.5735 0.8192 -0.0044
vn 0.5488 0.8335 -0.0634
vn 0.3767 0.5869 -0.7166
vn 0.3695 0.5846 -0.7223
vn 0.3677 0.6330 -0.6812
vn 0.3933 0.6154 -0.6830
vn 0.4018 0.5634 -0.7219
vn 0.4176 0.5293 -0.7385
vn 0.3726 0.6804 -0.6310
vn 0.3829 0.7211 -0.5774
vn 0.4061 0.7085 -0.5771
vn 0.3968 0.6663 -0.6313
vn 0.3953 0.7554 -0.5225
vn 0.4085 0.7849 -0.4659
vn 0.4314 0.7732 -0.4648
vn 0.4181 0.7436 -0.5217
vn 0.4220 0.8100 -0.4071
vn 0.4362 0.8309 -0.3454
vn 0.4608 0.8184 -0.3432
vn 0.4455 0.7981 -0.4055
vn 0.4517 0.8468 -0.2809
vn 0.4696 0.8567 -0.2132
vn 0.4988 0.8413 -0.2082
vn 0.4781 0.8333 -0.2775
vn 0.4899 0.8601 -0.1419
vn 0.5232 0.8413 -0.1359
s 1
f 24/1/1 46/2/2 62/3/3 31/4/4
f 46/2/2 8/5/5 27/6/6 62/3/3
f 62/3/3 27/6/6 4/7/7 30/8/8
f 31/4/4 62/3/3 30/8/8 14/9/9
f 13/10/10 26/11/11 63/12/12 35/13/13
f 26/11/11 2/14/14 28/15/15 63/12/12
f 63/12/12 28/15/15 3/16/16 41/17/17
f 35/13/13 63/12/12 41/17/17 19/18/18
f 19/18/18 41/17/17 64/19/19 36/20/20
f 41/17/17 3/16/16 29/21/21 64/19/19
f 64/19/19 29/21/21 1/22/22 42/23/23
f 36/20/20 64/19/19 42/23/23 20/24/24
f 20/24/24 42/23/23 65/25/25 37/26/26
f 42/23/23 1/22/22 25/27/27 65/25/25
f 65/25/25 25/27/27 5/28/28 43/29/29
f 37/26/26 65/25/25 43/29/29 21/30/30
f 21/30/30 43/29/29 66/31/31 38/32/32
f 43/29/29 5/28/28 32/33/33 66/31/31
f 66/31/31 32/33/33 6/34/34 44/35/35
f 38/32/32 66/31/31 44/35/35 22/36/36
f 22/36/36 44/35/35 67/37/37 39/38/38
f 44/35/35 6/34/34 33/39/39 67/37/37
f 67/37/37 33/39/39 7/40/40 45/41/41
f 39/38/38 67/37/37 45/41/41 23/42/42
f 23/42/42 45/41/41 68/43/43 40/44/44
f 45/41/41 7/40/40 34/45/45 68/43/43
f 68/43/43 34/45/45 8/5/5 46/2/2
f 40/44/44 68/43/43 46/2/2 24/1/1
f 24/1/1 31/4/4 69/46/46 61/47/47
f 31/4/4 14/9/9 52/48/48 69/46/46
f 69/46/46 52/48/48 12/49/49 49/50/50
f 61/47/47 69/46/46 49/50/50 18/51/51
f 13/10/10 35/13/13 70/52/52 48/53/53
f 35/13/13 19/18/18 56/54/54 70/52/52
f 70/52/52 56/54/54 11/55/55 50/56/56
f 48/53/53 70/52/52 50/56/56 10/57/57
f 19/18/18 36/20/20 71/58/58 56/54/54
f 36/20/20 20/24/24 57/59/59 71/58/58
f 71/58/58 57/59/59 9/60/60 51/61/61
f 56/54/54 71/58/58 51/61/61 11/55/55
f 20/24/24 37/26/26 72/62/62 57/59/59
f 37/26/26 21/30/30 58/63/63 72/62/62
f 72/62/62 58/63/63 15/64/64 47/65/65
f 57/59/59 72/62/62 47/65/65 9/60/60
f 21/30/30 38/32/32 73/66/66 58/63/63
f 38/32/32 22/36/36 59/67/67 73/66/66
f 73/66/66 59/67/67 16/68/68 53/69/69
f 58/63/63 73/66/66 53/69/69 15/64/64
f 22/36/36 39/38/38 74/70/70 59/67/67
f 39/38/38 23/42/42 60/71/71 74/70/70
f 74/70/70 60/71/71 17/72/72 54/73/73
f 59/67/67 74/70/70 54/73/73 16/68/68
f 23/42/42 40/44/44 75/74/74 60/71/71
f 40/44/44 24/1/1 61/47/47 75/74/74
f 75/74/74 61/47/47 18/51/51 55/75/75
f 60/71/71 75/74/74 55/75/75 17/72/72
