# Blender v3.0.0 OBJ File: 'tropical-scene_volume.blend'
# www.blender.org
o Cube.001_Cube.005
v -0.354226 0.289685 0.464756
v -0.353425 0.276850 0.464564
v -0.384432 0.289302 0.364492
v -0.383630 0.276467 0.364299
v -0.126157 0.302510 0.559476
v -0.125356 0.289674 0.559283
v -0.038009 0.308769 0.508364
v -0.037208 0.295934 0.508172
vt 0.252698 0.107617
vt 0.252698 0.273580
vt 0.418661 0.273580
vt 0.418661 0.107617
vt 0.252698 0.439542
vt 0.418661 0.439542
vt 0.252698 0.605505
vt 0.418661 0.605505
vt 0.252698 0.771468
vt 0.418661 0.771468
vt 0.086735 0.439542
vt 0.086735 0.605505
vt 0.584624 0.605505
vt 0.584624 0.439542
vn -0.9555 -0.0640 0.2881
vn 0.3815 0.0376 -0.9236
vn 0.5006 0.0183 0.8655
vn -0.3815 -0.0376 0.9236
vn -0.0623 0.9979 0.0149
vn 0.0623 -0.9979 -0.0149
s off
f 1/1/1 3/2/1 4/3/1 2/4/1
f 3/2/2 7/5/2 8/6/2 4/3/2
f 7/5/3 5/7/3 6/8/3 8/6/3
f 5/7/4 1/9/4 2/10/4 6/8/4
f 3/11/5 1/12/5 5/7/5 7/5/5
f 8/6/6 6/8/6 2/13/6 4/14/6
