# Blender v3.0.0 OBJ File: 'tropical-scene_volume.blend'
# www.blender.org
o Cube_Cube.004
v -0.382298 0.288766 0.359995
v -0.381497 0.275930 0.359803
v -0.383600 0.290631 0.230064
v -0.382799 0.277796 0.229872
v -0.035616 0.308247 0.503976
v -0.034814 0.295412 0.503784
v 0.056911 0.315386 0.413013
v 0.057712 0.302550 0.412820
vt 0.428854 0.103800
vt 0.428854 0.270896
vt 0.595950 0.270896
vt 0.595950 0.103800
vt 0.428854 0.437992
vt 0.595950 0.437992
vt 0.428854 0.605088
vt 0.595950 0.605088
vt 0.428854 0.772184
vt 0.595950 0.772184
vt 0.261757 0.437992
vt 0.261757 0.605088
vt 0.763046 0.605088
vt 0.763046 0.437992
vn -0.9980 -0.0624 0.0091
vn 0.3815 0.0376 -0.9236
vn 0.6994 0.0330 0.7140
vn -0.3815 -0.0377 0.9236
vn -0.0623 0.9979 0.0150
vn 0.0623 -0.9979 -0.0150
s off
f 1/1/1 3/2/1 4/3/1 2/4/1
f 3/2/2 7/5/2 8/6/2 4/3/2
f 7/5/3 5/7/3 6/8/3 8/6/3
f 5/7/4 1/9/4 2/10/4 6/8/4
f 3/11/5 1/12/5 5/7/5 7/5/5
f 8/6/6 6/8/6 2/13/6 4/14/6
