# Blender v3.0.0 OBJ File: 'tropical-scene_volume.blend'
# www.blender.org
o Plane.032_Plane.006
v -0.395899 0.352732 0.843466
v -0.436995 0.358469 0.847508
v -0.416877 0.357986 0.847149
v -0.326526 0.280614 0.822137
v -0.377256 0.343131 0.838589
v -0.360453 0.330251 0.833844
v -0.345851 0.314272 0.829346
v -0.334039 0.296094 0.825280
v -0.418759 0.327943 0.812526
v -0.445181 0.349592 0.836429
v -0.434599 0.338769 0.823163
v -0.330572 0.276226 0.816660
v -0.444208 0.356004 0.842692
v -0.325112 0.274974 0.819620
v -0.400930 0.317459 0.806548
v -0.382336 0.306520 0.804225
v -0.363337 0.295311 0.805680
v -0.344836 0.284386 0.810667
v -0.425755 0.349660 0.834141
v -0.407183 0.341557 0.826911
v -0.388782 0.331433 0.821427
v -0.370926 0.319428 0.817853
v -0.353978 0.305727 0.816308
v -0.338495 0.290663 0.816938
v -0.386331 0.348394 0.841075
v -0.441846 0.357608 0.845396
v -0.329620 0.287460 0.823602
v -0.427962 0.358699 0.847974
v -0.406054 0.355981 0.845557
v -0.325039 0.276683 0.820818
v -0.331626 0.282854 0.818120
v -0.368613 0.337078 0.836177
v -0.352850 0.322641 0.831564
v -0.339522 0.305266 0.827220
v -0.434995 0.352965 0.838320
v -0.416472 0.345869 0.830320
v -0.397938 0.336740 0.823940
v -0.379763 0.325655 0.819393
v -0.362316 0.312776 0.816821
v -0.345980 0.298323 0.816332
v -0.421319 0.354064 0.840455
v -0.401514 0.347374 0.834985
v -0.382961 0.337495 0.829794
v -0.365602 0.325035 0.825627
v -0.349799 0.310175 0.822601
v -0.336090 0.293458 0.820915
v -0.410003 0.322724 0.809035
v -0.445718 0.353408 0.840154
v -0.336817 0.279656 0.813862
v -0.441096 0.344458 0.830199
v -0.427016 0.333249 0.817185
v -0.326809 0.274763 0.818422
v -0.391695 0.312048 0.804937
v -0.372870 0.300931 0.804469
v -0.353857 0.289722 0.807819
v -0.430180 0.344455 0.828462
v -0.412944 0.334979 0.819515
v -0.394798 0.324660 0.813774
v -0.376543 0.313170 0.810817
v -0.358542 0.300694 0.810768
v -0.341488 0.287604 0.813608
v -0.330313 0.284977 0.820734
v -0.431634 0.356091 0.843017
v -0.411251 0.351160 0.837741
v -0.392091 0.342789 0.832298
v -0.374115 0.331571 0.827567
v -0.357481 0.317894 0.823969
v -0.342618 0.301950 0.821553
v -0.333882 0.281106 0.815902
v -0.438175 0.348997 0.834164
v -0.421732 0.339794 0.823555
v -0.403927 0.329954 0.816278
v -0.385656 0.319056 0.811947
v -0.367491 0.307039 0.810421
v -0.349786 0.294178 0.811852
vt 0.500000 0.857143
vt 0.750000 0.855349
vt 0.750000 0.921934
vt 0.500000 0.928572
vt 1.000000 0.857143
vt 1.000000 0.915655
vt 1.000000 0.974166
vt 0.750000 0.987083
vt 0.500000 1.000000
vt 0.500000 0.000000
vt 0.750000 0.000000
vt 0.750000 0.071429
vt 0.500000 0.071429
vt 1.000000 0.000000
vt 1.000000 0.071429
vt 1.000000 0.142857
vt 0.750000 0.142857
vt 0.500000 0.142857
vt 0.750000 0.214286
vt 0.500000 0.214286
vt 1.000000 0.214286
vt 1.000000 0.285714
vt 0.750000 0.285714
vt 0.500000 0.285714
vt 0.750000 0.357143
vt 0.500000 0.357143
vt 1.000000 0.357143
vt 1.000000 0.428571
vt 0.750000 0.428571
vt 0.500000 0.428571
vt 0.750000 0.500000
vt 0.500000 0.500000
vt 1.000000 0.500000
vt 1.000000 0.571429
vt 0.750000 0.571429
vt 0.500000 0.571429
vt 0.750000 0.642857
vt 0.500000 0.642857
vt 1.000000 0.642857
vt 1.000000 0.714286
vt 0.750000 0.714286
vt 0.500000 0.714286
vt 0.750000 0.785535
vt 0.500000 0.785714
vt 1.000000 0.785714
vt 0.750000 0.921934
vt 0.750000 0.855349
vt 0.750000 0.987083
vt 1.000000 0.974166
vt 1.000000 0.915655
vt 1.000000 0.857143
vt 0.750000 0.071429
vt 0.750000 0.000000
vt 0.750000 0.142857
vt 1.000000 0.142857
vt 1.000000 0.071429
vt 1.000000 0.000000
vt 0.750000 0.214286
vt 0.750000 0.285714
vt 1.000000 0.285714
vt 1.000000 0.214286
vt 0.750000 0.357143
vt 0.750000 0.428571
vt 1.000000 0.428571
vt 1.000000 0.357143
vt 0.750000 0.500000
vt 0.750000 0.571429
vt 1.000000 0.571429
vt 1.000000 0.500000
vt 0.750000 0.642857
vt 0.750000 0.714286
vt 1.000000 0.714286
vt 1.000000 0.642857
vt 0.750000 0.785535
vt 1.000000 0.785714
vn 0.5421 0.4133 -0.7317
vn 0.6117 0.4707 -0.6358
vn 0.6622 0.4371 -0.6086
vn 0.5827 0.3674 -0.7249
vn 0.6328 0.4885 -0.6007
vn 0.6820 0.4570 -0.5709
vn 0.7123 0.4433 -0.5440
vn 0.6561 0.4132 -0.6315
vn 0.5959 0.3515 -0.7219
vn -0.0378 0.7933 -0.6077
vn 0.0099 0.8541 -0.5200
vn 0.0193 0.8546 -0.5189
vn -0.0232 0.7885 -0.6146
vn 0.0144 0.8906 -0.4545
vn 0.0255 0.8717 -0.4893
vn 0.0617 0.8424 -0.5353
vn 0.0511 0.8269 -0.5600
vn 0.0171 0.7741 -0.6328
vn 0.1021 0.7967 -0.5956
vn 0.0699 0.7526 -0.6547
vn 0.1140 0.8106 -0.5743
vn 0.1690 0.7795 -0.6031
vn 0.1569 0.7666 -0.6226
vn 0.1243 0.7275 -0.6747
vn 0.2117 0.7361 -0.6429
vn 0.1781 0.6995 -0.6920
vn 0.2241 0.7485 -0.6241
vn 0.2792 0.7165 -0.6393
vn 0.2664 0.7042 -0.6581
vn 0.2314 0.6686 -0.7067
vn 0.3214 0.6703 -0.6688
vn 0.2841 0.6348 -0.7185
vn 0.3347 0.6826 -0.6496
vn 0.3913 0.6466 -0.6548
vn 0.3770 0.6342 -0.6749
vn 0.3363 0.5979 -0.7275
vn 0.4336 0.5961 -0.6757
vn 0.3877 0.5581 -0.7336
vn 0.4495 0.6086 -0.6538
vn 0.5101 0.5693 -0.6447
vn 0.4918 0.5565 -0.6696
vn 0.4385 0.5149 -0.7366
vn 0.5517 0.5149 -0.6561
vn 0.4900 0.4669 -0.7361
vn 0.5723 0.5290 -0.6265
vn 0.5063 0.2680 -0.8196
vn 0.4812 0.3291 -0.8125
vn 0.5316 0.2782 -0.8000
vn 0.4844 0.1961 -0.8526
vn 0.4800 0.2379 -0.8444
vn 0.4584 0.2994 -0.8368
vn -0.1023 0.7227 -0.6835
vn -0.1060 0.7284 -0.6769
vn -0.0436 0.7241 -0.6882
vn -0.0634 0.7067 -0.7046
vn -0.1285 0.7048 -0.6977
vn -0.1677 0.6931 -0.7010
vn 0.0223 0.7101 -0.7037
vn 0.0842 0.6879 -0.7209
vn 0.0701 0.6723 -0.7369
vn 0.0063 0.6939 -0.7200
vn 0.1419 0.6605 -0.7373
vn 0.1969 0.6288 -0.7522
vn 0.1840 0.6132 -0.7682
vn 0.1287 0.6451 -0.7532
vn 0.2499 0.5929 -0.7655
vn 0.3015 0.5524 -0.7771
vn 0.2884 0.5350 -0.7941
vn 0.2371 0.5767 -0.7818
vn 0.3510 0.5065 -0.7875
vn 0.3975 0.4542 -0.7973
vn 0.3829 0.4314 -0.8168
vn 0.3374 0.4870 -0.8055
vn 0.4409 0.3947 -0.8061
vn 0.4236 0.3677 -0.8278
s 1
f 24/1/1 46/2/2 62/3/3 31/4/4
f 46/2/2 8/5/5 27/6/6 62/3/3
f 62/3/3 27/6/6 4/7/7 30/8/8
f 31/4/4 62/3/3 30/8/8 14/9/9
f 13/10/10 26/11/11 63/12/12 35/13/13
f 26/11/11 2/14/14 28/15/15 63/12/12
f 63/12/12 28/15/15 3/16/16 41/17/17
f 35/13/13 63/12/12 41/17/17 19/18/18
f 19/18/18 41/17/17 64/19/19 36/20/20
f 41/17/17 3/16/16 29/21/21 64/19/19
f 64/19/19 29/21/21 1/22/22 42/23/23
f 36/20/20 64/19/19 42/23/23 20/24/24
f 20/24/24 42/23/23 65/25/25 37/26/26
f 42/23/23 1/22/22 25/27/27 65/25/25
f 65/25/25 25/27/27 5/28/28 43/29/29
f 37/26/26 65/25/25 43/29/29 21/30/30
f 21/30/30 43/29/29 66/31/31 38/32/32
f 43/29/29 5/28/28 32/33/33 66/31/31
f 66/31/31 32/33/33 6/34/34 44/35/35
f 38/32/32 66/31/31 44/35/35 22/36/36
f 22/36/36 44/35/35 67/37/37 39/38/38
f 44/35/35 6/34/34 33/39/39 67/37/37
f 67/37/37 33/39/39 7/40/40 45/41/41
f 39/38/38 67/37/37 45/41/41 23/42/42
f 23/42/42 45/41/41 68/43/43 40/44/44
f 45/41/41 7/40/40 34/45/45 68/43/43
f 68/43/43 34/45/45 8/5/5 46/2/2
f 40/44/44 68/43/43 46/2/2 24/1/1
f 24/1/1 31/4/4 69/46/46 61/47/47
f 31/4/4 14/9/9 52/48/48 69/46/46
f 69/46/46 52/48/48 12/49/49 49/50/50
f 61/47/47 69/46/46 49/50/50 18/51/51
f 13/10/10 35/13/13 70/52/52 48/53/53
f 35/13/13 19/18/18 56/54/54 70/52/52
f 70/52/52 56/54/54 11/55/55 50/56/56
f 48/53/53 70/52/52 50/56/56 10/57/57
f 19/18/18 36/20/20 71/58/58 56/54/54
f 36/20/20 20/24/24 57/59/59 71/58/58
f 71/58/58 57/59/59 9/60/60 51/61/61
f 56/54/54 71/58/58 51/61/61 11/55/55
f 20/24/24 37/26/26 72/62/62 57/59/59
f 37/26/26 21/30/30 58/63/63 72/62/62
f 72/62/62 58/63/63 15/64/64 47/65/65
f 57/59/59 72/62/62 47/65/65 9/60/60
f 21/30/30 38/32/32 73/66/66 58/63/63
f 38/32/32 22/36/36 59/67/67 73/66/66
f 73/66/66 59/67/67 16/68/68 53/69/69
f 58/63/63 73/66/66 53/69/69 15/64/64
f 22/36/36 39/38/38 74/70/70 59/67/67
f 39/38/38 23/42/42 60/71/71 74/70/70
f 74/70/70 60/71/71 17/72/72 54/73/73
f 59/67/67 74/70/70 54/73/73 16/68/68
f 23/42/42 40/44/44 75/74/74 60/71/71
f 40/44/44 24/1/1 61/47/47 75/74/74
f 75/74/74 61/47/47 18/51/51 55/75/75
f 60/71/71 75/74/74 55/75/75 17/72/72
