# Blender v3.0.0 OBJ File: 'tropical-scene_volume.blend'
# www.blender.org
o Plane.035_Plane.013
v -0.305959 0.177603 -0.935296
v -0.320212 0.182276 -0.916619
v -0.312312 0.179395 -0.924558
v -0.307215 0.169956 -0.993569
v -0.302305 0.176277 -0.947039
v -0.300736 0.174757 -0.959312
v -0.301328 0.173054 -0.971886
v -0.303951 0.171269 -0.984155
v -0.324722 0.194751 -0.942023
v -0.326931 0.188416 -0.919029
v -0.326858 0.192689 -0.929774
v -0.310536 0.172992 -0.994760
v -0.324031 0.185662 -0.915736
v -0.308910 0.170419 -0.996757
v -0.321736 0.194035 -0.954006
v -0.318698 0.191172 -0.965753
v -0.315680 0.186170 -0.977032
v -0.312813 0.179367 -0.987332
v -0.319047 0.186750 -0.926863
v -0.314761 0.186891 -0.938456
v -0.311407 0.185866 -0.950424
v -0.309079 0.183660 -0.962538
v -0.307850 0.180286 -0.974567
v -0.307810 0.175788 -0.986140
v -0.303844 0.176934 -0.941075
v -0.322475 0.184041 -0.915503
v -0.305681 0.170462 -0.989478
v -0.316493 0.180697 -0.919892
v -0.308751 0.178390 -0.929769
v -0.308203 0.169968 -0.995898
v -0.308271 0.173168 -0.991533
v -0.301264 0.175549 -0.953127
v -0.300755 0.173923 -0.965575
v -0.302433 0.172158 -0.978168
v -0.321488 0.186277 -0.921262
v -0.316795 0.186964 -0.932598
v -0.312961 0.186526 -0.944407
v -0.310109 0.184911 -0.956477
v -0.308323 0.182117 -0.968578
v -0.307669 0.178172 -0.980458
v -0.315579 0.183205 -0.925654
v -0.310252 0.182381 -0.936838
v -0.306741 0.181205 -0.948713
v -0.304788 0.179339 -0.960926
v -0.304466 0.176796 -0.973246
v -0.305773 0.173617 -0.985222
v -0.323274 0.194691 -0.948042
v -0.325654 0.186946 -0.916643
v -0.311588 0.175860 -0.991596
v -0.327273 0.190549 -0.923757
v -0.325957 0.194114 -0.935938
v -0.309656 0.171296 -0.996419
v -0.320209 0.192863 -0.959920
v -0.317187 0.188940 -0.971466
v -0.314199 0.182911 -0.982386
v -0.322852 0.189852 -0.928262
v -0.319633 0.190955 -0.940202
v -0.316456 0.190084 -0.952197
v -0.313768 0.187547 -0.964147
v -0.311642 0.183354 -0.975819
v -0.310204 0.177666 -0.986811
v -0.306923 0.171815 -0.990718
v -0.318944 0.183612 -0.920443
v -0.312668 0.182810 -0.931136
v -0.308290 0.181863 -0.942713
v -0.305569 0.180362 -0.954793
v -0.304417 0.178149 -0.967087
v -0.304930 0.175285 -0.979347
v -0.309853 0.174493 -0.991768
v -0.324314 0.188519 -0.922369
v -0.321271 0.190673 -0.934220
v -0.318005 0.190742 -0.946196
v -0.315042 0.189019 -0.958190
v -0.312633 0.185657 -0.970033
v -0.310813 0.180661 -0.981456
vt 0.500000 0.857143
vt 0.750000 0.855349
vt 0.750000 0.921934
vt 0.500000 0.928572
vt 1.000000 0.857143
vt 1.000000 0.915655
vt 1.000000 0.974166
vt 0.750000 0.987083
vt 0.500000 1.000000
vt 0.500000 0.000000
vt 0.750000 0.000000
vt 0.750000 0.071429
vt 0.500000 0.071429
vt 1.000000 0.000000
vt 1.000000 0.071429
vt 1.000000 0.142857
vt 0.750000 0.142857
vt 0.500000 0.142857
vt 0.750000 0.214286
vt 0.500000 0.214286
vt 1.000000 0.214286
vt 1.000000 0.285714
vt 0.750000 0.285714
vt 0.500000 0.285714
vt 0.750000 0.357143
vt 0.500000 0.357143
vt 1.000000 0.357143
vt 1.000000 0.428571
vt 0.750000 0.428571
vt 0.500000 0.428571
vt 0.750000 0.500000
vt 0.500000 0.500000
vt 1.000000 0.500000
vt 1.000000 0.571429
vt 0.750000 0.571429
vt 0.500000 0.571429
vt 0.750000 0.642857
vt 0.500000 0.642857
vt 1.000000 0.642857
vt 1.000000 0.714286
vt 0.750000 0.714286
vt 0.500000 0.714286
vt 0.750000 0.785535
vt 0.500000 0.785714
vt 1.000000 0.785714
vt 0.750000 0.921934
vt 0.750000 0.855349
vt 0.750000 0.987083
vt 1.000000 0.974166
vt 1.000000 0.915655
vt 1.000000 0.857143
vt 0.750000 0.071429
vt 0.750000 0.000000
vt 0.750000 0.142857
vt 1.000000 0.142857
vt 1.000000 0.071429
vt 1.000000 0.000000
vt 0.750000 0.214286
vt 0.750000 0.285714
vt 1.000000 0.285714
vt 1.000000 0.214286
vt 0.750000 0.357143
vt 0.750000 0.428571
vt 1.000000 0.428571
vt 1.000000 0.357143
vt 0.750000 0.500000
vt 0.750000 0.571429
vt 1.000000 0.571429
vt 1.000000 0.500000
vt 0.750000 0.642857
vt 0.750000 0.714286
vt 1.000000 0.714286
vt 1.000000 0.642857
vt 0.750000 0.785535
vt 1.000000 0.785714
vn 0.6986 0.6352 -0.3292
vn 0.7851 0.5390 -0.3051
vn 0.7955 0.4931 -0.3520
vn 0.6941 0.6085 -0.3846
vn 0.8114 0.5042 -0.2954
vn 0.8224 0.4567 -0.3392
vn 0.8330 0.4205 -0.3595
vn 0.7750 0.5112 -0.3715
vn 0.6919 0.5990 -0.4030
vn 0.5597 0.7504 0.3516
vn 0.6336 0.6683 0.3899
vn 0.6404 0.6649 0.3843
vn 0.5667 0.7521 0.3364
vn 0.6606 0.6132 0.4331
vn 0.6560 0.6391 0.4015
vn 0.6620 0.6666 0.3424
vn 0.6443 0.6894 0.3309
vn 0.5853 0.7557 0.2939
vn 0.6597 0.7032 0.2649
vn 0.6077 0.7580 0.2371
vn 0.6772 0.6831 0.2734
vn 0.6945 0.6892 0.2065
vn 0.6774 0.7080 0.1994
vn 0.6285 0.7573 0.1774
vn 0.6947 0.7064 0.1357
vn 0.6467 0.7536 0.1172
vn 0.7116 0.6880 0.1421
vn 0.7278 0.6812 0.0789
vn 0.7107 0.6996 0.0730
vn 0.6625 0.7469 0.0562
vn 0.7254 0.6882 0.0103
vn 0.6756 0.7372 -0.0053
vn 0.7429 0.6692 0.0160
vn 0.7570 0.6517 -0.0474
vn 0.7388 0.6718 -0.0529
vn 0.6862 0.7243 -0.0676
vn 0.7513 0.6496 -0.1162
vn 0.6939 0.7081 -0.1305
vn 0.7706 0.6275 -0.1111
vn 0.7846 0.5948 -0.1746
vn 0.7635 0.6203 -0.1793
vn 0.6988 0.6885 -0.1941
vn 0.7753 0.5831 -0.2425
vn 0.7006 0.6644 -0.2603
vn 0.7988 0.5529 -0.2368
vn 0.5728 0.6966 -0.4318
vn 0.5986 0.7094 -0.3719
vn 0.5972 0.6737 -0.4353
vn 0.5073 0.7182 -0.4763
vn 0.5337 0.7205 -0.4427
vn 0.5622 0.7320 -0.3848
vn 0.4667 0.8237 0.3220
vn 0.4679 0.8196 0.3305
vn 0.5090 0.8131 0.2824
vn 0.4832 0.8300 0.2783
vn 0.4361 0.8401 0.3226
vn 0.4003 0.8510 0.3398
vn 0.5456 0.8075 0.2240
vn 0.5737 0.8028 0.1622
vn 0.5533 0.8183 0.1558
vn 0.5234 0.8236 0.2182
vn 0.5950 0.7974 0.1000
vn 0.6114 0.7904 0.0374
vn 0.5918 0.8055 0.0302
vn 0.5753 0.8126 0.0932
vn 0.6234 0.7814 -0.0263
vn 0.6310 0.7703 -0.0915
vn 0.6099 0.7861 -0.1001
vn 0.6034 0.7967 -0.0340
vn 0.6332 0.7575 -0.1586
vn 0.6288 0.7435 -0.2277
vn 0.6030 0.7609 -0.2398
vn 0.6104 0.7739 -0.1686
vn 0.6170 0.7278 -0.2993
vn 0.5864 0.7471 -0.3130
s 1
f 24/1/1 46/2/2 62/3/3 31/4/4
f 46/2/2 8/5/5 27/6/6 62/3/3
f 62/3/3 27/6/6 4/7/7 30/8/8
f 31/4/4 62/3/3 30/8/8 14/9/9
f 13/10/10 26/11/11 63/12/12 35/13/13
f 26/11/11 2/14/14 28/15/15 63/12/12
f 63/12/12 28/15/15 3/16/16 41/17/17
f 35/13/13 63/12/12 41/17/17 19/18/18
f 19/18/18 41/17/17 64/19/19 36/20/20
f 41/17/17 3/16/16 29/21/21 64/19/19
f 64/19/19 29/21/21 1/22/22 42/23/23
f 36/20/20 64/19/19 42/23/23 20/24/24
f 20/24/24 42/23/23 65/25/25 37/26/26
f 42/23/23 1/22/22 25/27/27 65/25/25
f 65/25/25 25/27/27 5/28/28 43/29/29
f 37/26/26 65/25/25 43/29/29 21/30/30
f 21/30/30 43/29/29 66/31/31 38/32/32
f 43/29/29 5/28/28 32/33/33 66/31/31
f 66/31/31 32/33/33 6/34/34 44/35/35
f 38/32/32 66/31/31 44/35/35 22/36/36
f 22/36/36 44/35/35 67/37/37 39/38/38
f 44/35/35 6/34/34 33/39/39 67/37/37
f 67/37/37 33/39/39 7/40/40 45/41/41
f 39/38/38 67/37/37 45/41/41 23/42/42
f 23/42/42 45/41/41 68/43/43 40/44/44
f 45/41/41 7/40/40 34/45/45 68/43/43
f 68/43/43 34/45/45 8/5/5 46/2/2
f 40/44/44 68/43/43 46/2/2 24/1/1
f 24/1/1 31/4/4 69/46/46 61/47/47
f 31/4/4 14/9/9 52/48/48 69/46/46
f 69/46/46 52/48/48 12/49/49 49/50/50
f 61/47/47 69/46/46 49/50/50 18/51/51
f 13/10/10 35/13/13 70/52/52 48/53/53
f 35/13/13 19/18/18 56/54/54 70/52/52
f 70/52/52 56/54/54 11/55/55 50/56/56
f 48/53/53 70/52/52 50/56/56 10/57/57
f 19/18/18 36/20/20 71/58/58 56/54/54
f 36/20/20 20/24/24 57/59/59 71/58/58
f 71/58/58 57/59/59 9/60/60 51/61/61
f 56/54/54 71/58/58 51/61/61 11/55/55
f 20/24/24 37/26/26 72/62/62 57/59/59
f 37/26/26 21/30/30 58/63/63 72/62/62
f 72/62/62 58/63/63 15/64/64 47/65/65
f 57/59/59 72/62/62 47/65/65 9/60/60
f 21/30/30 38/32/32 73/66/66 58/63/63
f 38/32/32 22/36/36 59/67/67 73/66/66
f 73/66/66 59/67/67 16/68/68 53/69/69
f 58/63/63 73/66/66 53/69/69 15/64/64
f 22/36/36 39/38/38 74/70/70 59/67/67
f 39/38/38 23/42/42 60/71/71 74/70/70
f 74/70/70 60/71/71 17/72/72 54/73/73
f 59/67/67 74/70/70 54/73/73 16/68/68
f 23/42/42 40/44/44 75/74/74 60/71/71
f 40/44/44 24/1/1 61/47/47 75/74/74
f 75/74/74 61/47/47 18/51/51 55/75/75
f 60/71/71 75/74/74 55/75/75 17/72/72
