# Blender v3.0.0 OBJ File: 'tropical-scene_volume.blend'
# www.blender.org
o Plane.042_Plane.016
v -0.615578 0.281378 0.056739
v -0.636432 0.247499 0.076834
v -0.625327 0.264556 0.069852
v -0.578928 0.313843 -0.041074
v -0.607203 0.294566 0.039836
v -0.599001 0.304515 0.020554
v -0.591112 0.310958 -0.000773
v -0.583911 0.313760 -0.023051
v -0.650023 0.262575 0.027522
v -0.648766 0.240766 0.066372
v -0.652030 0.249978 0.047202
v -0.585026 0.310514 -0.046246
v -0.644165 0.242144 0.074728
v -0.579065 0.313317 -0.047827
v -0.642873 0.275093 0.009579
v -0.631974 0.286515 -0.007414
v -0.617459 0.296575 -0.023121
v -0.600179 0.304879 -0.036850
v -0.639873 0.258307 0.059266
v -0.633951 0.273154 0.042729
v -0.626128 0.286131 0.025154
v -0.616501 0.296921 0.006861
v -0.605212 0.305255 -0.011812
v -0.592523 0.310762 -0.030316
v -0.611315 0.288391 0.048656
v -0.640822 0.243822 0.076648
v -0.580937 0.313969 -0.033143
v -0.630995 0.255116 0.074387
v -0.620186 0.273454 0.063871
v -0.578359 0.313722 -0.045747
v -0.585843 0.312275 -0.039165
v -0.603089 0.299954 0.030458
v -0.595000 0.308193 0.010131
v -0.587374 0.312799 -0.012010
v -0.642142 0.250320 0.067082
v -0.637154 0.265942 0.051147
v -0.630272 0.279897 0.034052
v -0.621532 0.291817 0.016076
v -0.611054 0.301410 -0.002450
v -0.599010 0.308411 -0.021156
v -0.632824 0.261627 0.064698
v -0.624980 0.277487 0.049846
v -0.616870 0.290593 0.032578
v -0.607941 0.300982 0.013762
v -0.598336 0.308385 -0.006267
v -0.588307 0.312532 -0.026752
v -0.646984 0.268919 0.018401
v -0.646658 0.240636 0.071698
v -0.591781 0.308049 -0.042341
v -0.650784 0.244313 0.057602
v -0.651772 0.256211 0.037080
v -0.581026 0.312266 -0.048010
v -0.637868 0.280968 0.000957
v -0.625165 0.291726 -0.015456
v -0.608973 0.301008 -0.030331
v -0.646175 0.254338 0.053373
v -0.642203 0.268085 0.035238
v -0.634705 0.280856 0.017450
v -0.624428 0.291982 -0.000222
v -0.611509 0.301194 -0.017441
v -0.596441 0.308091 -0.033652
v -0.583287 0.313350 -0.036475
v -0.636829 0.252768 0.070964
v -0.628891 0.269906 0.057635
v -0.621004 0.284377 0.041452
v -0.612508 0.296140 0.023336
v -0.603209 0.305073 0.003880
v -0.593349 0.310888 -0.016580
v -0.588665 0.310414 -0.041037
v -0.646685 0.247387 0.062604
v -0.644683 0.261285 0.044239
v -0.638838 0.274641 0.026324
v -0.629897 0.286647 0.008586
v -0.618292 0.296840 -0.008913
v -0.604148 0.304992 -0.025741
vt 0.695647 0.765414
vt 0.786650 0.708578
vt 0.864993 0.758012
vt 0.817139 0.819239
vt 0.875404 0.651206
vt 0.912621 0.696731
vt 0.949838 0.742255
vt 0.944235 0.807660
vt 0.938631 0.873065
vt 0.032243 0.089830
vt 0.059811 0.095008
vt 0.064282 0.098343
vt 0.035611 0.092635
vt 0.087379 0.100186
vt 0.088997 0.102041
vt 0.090615 0.103896
vt 0.084575 0.109717
vt 0.038980 0.095439
vt 0.140399 0.140018
vt 0.065812 0.147409
vt 0.211165 0.128943
vt 0.331715 0.153989
vt 0.211505 0.185058
vt 0.092644 0.199379
vt 0.283410 0.246654
vt 0.154265 0.275467
vt 0.412621 0.215213
vt 0.493528 0.276438
vt 0.355044 0.318764
vt 0.215887 0.351555
vt 0.427083 0.399647
vt 0.295307 0.439703
vt 0.559062 0.359926
vt 0.624595 0.443414
vt 0.498313 0.479190
vt 0.374728 0.527851
vt 0.567364 0.547229
vt 0.449295 0.591880
vt 0.685275 0.504638
vt 0.745955 0.565863
vt 0.637043 0.607021
vt 0.523861 0.655909
vt 0.710543 0.659238
vt 0.609754 0.710662
vt 0.810680 0.608534
vt 0.864993 0.758012
vt 0.786650 0.708578
vt 0.944235 0.807660
vt 0.949838 0.742255
vt 0.912621 0.696731
vt 0.875404 0.651206
vt 0.064282 0.098343
vt 0.059811 0.095008
vt 0.084575 0.109717
vt 0.090615 0.103896
vt 0.088997 0.102041
vt 0.087379 0.100186
vt 0.140399 0.140018
vt 0.211505 0.185058
vt 0.331715 0.153989
vt 0.211165 0.128943
vt 0.283410 0.246654
vt 0.355044 0.318764
vt 0.493528 0.276438
vt 0.412621 0.215213
vt 0.427083 0.399647
vt 0.498313 0.479190
vt 0.624595 0.443414
vt 0.559062 0.359926
vt 0.567364 0.547228
vt 0.637043 0.607021
vt 0.745955 0.565863
vt 0.685275 0.504638
vt 0.710543 0.659238
vt 0.810680 0.608534
vn -0.4054 0.9079 -0.1064
vn -0.3021 0.9525 -0.0381
vn -0.2460 0.9666 -0.0708
vn -0.3687 0.9165 -0.1552
vn -0.2659 0.9639 -0.0145
vn -0.2088 0.9770 -0.0439
vn -0.1678 0.9843 -0.0536
vn -0.2629 0.9597 -0.0990
vn -0.3559 0.9186 -0.1715
vn -0.6892 0.5725 0.4440
vn -0.6049 0.6044 0.5185
vn -0.5992 0.6117 0.5165
vn -0.6862 0.5846 0.4328
vn -0.5564 0.5993 0.5756
vn -0.5752 0.6130 0.5416
vn -0.5877 0.6463 0.4867
vn -0.6104 0.6403 0.4663
vn -0.6770 0.6172 0.4009
vn -0.6064 0.6810 0.4105
vn -0.6626 0.6580 0.3577
vn -0.5856 0.6885 0.4277
vn -0.5737 0.7293 0.3728
vn -0.5935 0.7212 0.3572
vn -0.6452 0.6976 0.3117
vn -0.5748 0.7588 0.3063
vn -0.6252 0.7343 0.2644
vn -0.5555 0.7670 0.3211
vn -0.5322 0.8021 0.2708
vn -0.5518 0.7936 0.2563
vn -0.6026 0.7682 0.2160
vn -0.5245 0.8260 0.2064
vn -0.5774 0.7993 0.1664
vn -0.5043 0.8348 0.2209
vn -0.4711 0.8653 0.1710
vn -0.4926 0.8561 0.1563
vn -0.5496 0.8274 0.1154
vn -0.4553 0.8839 0.1064
vn -0.5190 0.8524 0.0633
vn -0.4315 0.8939 0.1214
vn -0.3839 0.9204 0.0733
vn -0.4112 0.9097 0.0575
vn -0.4856 0.8741 0.0099
vn -0.3597 0.9330 0.0094
vn -0.4479 0.8928 -0.0466
vn -0.3276 0.9444 0.0276
vn -0.4657 0.8467 -0.2572
vn -0.4860 0.8521 -0.1941
vn -0.4384 0.8639 -0.2478
vn -0.4891 0.8090 -0.3262
vn -0.4936 0.8215 -0.2855
vn -0.5117 0.8297 -0.2230
vn -0.7706 0.5181 0.3711
vn -0.7683 0.5152 0.3799
vn -0.7439 0.5674 0.3530
vn -0.7641 0.5500 0.3371
vn -0.7922 0.4945 0.3576
vn -0.8131 0.4591 0.3578
vn -0.7190 0.6195 0.3150
vn -0.6958 0.6653 0.2704
vn -0.7131 0.6532 0.2546
vn -0.7373 0.6057 0.2990
vn -0.6731 0.7051 0.2229
vn -0.6498 0.7401 0.1732
vn -0.6664 0.7288 0.1570
vn -0.6899 0.6936 0.2070
vn -0.6251 0.7711 0.1211
vn -0.5990 0.7980 0.0661
vn -0.6162 0.7861 0.0480
vn -0.6419 0.7596 0.1042
vn -0.5718 0.8204 0.0076
vn -0.5442 0.8371 -0.0553
vn -0.5631 0.8226 -0.0787
vn -0.5896 0.8076 -0.0126
vn -0.5159 0.8477 -0.1231
vn -0.5372 0.8300 -0.1501
s 1
f 24/1/1 46/2/2 62/3/3 31/4/4
f 46/2/2 8/5/5 27/6/6 62/3/3
f 62/3/3 27/6/6 4/7/7 30/8/8
f 31/4/4 62/3/3 30/8/8 14/9/9
f 13/10/10 26/11/11 63/12/12 35/13/13
f 26/11/11 2/14/14 28/15/15 63/12/12
f 63/12/12 28/15/15 3/16/16 41/17/17
f 35/13/13 63/12/12 41/17/17 19/18/18
f 19/18/18 41/17/17 64/19/19 36/20/20
f 41/17/17 3/16/16 29/21/21 64/19/19
f 64/19/19 29/21/21 1/22/22 42/23/23
f 36/20/20 64/19/19 42/23/23 20/24/24
f 20/24/24 42/23/23 65/25/25 37/26/26
f 42/23/23 1/22/22 25/27/27 65/25/25
f 65/25/25 25/27/27 5/28/28 43/29/29
f 37/26/26 65/25/25 43/29/29 21/30/30
f 21/30/30 43/29/29 66/31/31 38/32/32
f 43/29/29 5/28/28 32/33/33 66/31/31
f 66/31/31 32/33/33 6/34/34 44/35/35
f 38/32/32 66/31/31 44/35/35 22/36/36
f 22/36/36 44/35/35 67/37/37 39/38/38
f 44/35/35 6/34/34 33/39/39 67/37/37
f 67/37/37 33/39/39 7/40/40 45/41/41
f 39/38/38 67/37/37 45/41/41 23/42/42
f 23/42/42 45/41/41 68/43/43 40/44/44
f 45/41/41 7/40/40 34/45/45 68/43/43
f 68/43/43 34/45/45 8/5/5 46/2/2
f 40/44/44 68/43/43 46/2/2 24/1/1
f 24/1/1 31/4/4 69/46/46 61/47/47
f 31/4/4 14/9/9 52/48/48 69/46/46
f 69/46/46 52/48/48 12/49/49 49/50/50
f 61/47/47 69/46/46 49/50/50 18/51/51
f 13/10/10 35/13/13 70/52/52 48/53/53
f 35/13/13 19/18/18 56/54/54 70/52/52
f 70/52/52 56/54/54 11/55/55 50/56/56
f 48/53/53 70/52/52 50/56/56 10/57/57
f 19/18/18 36/20/20 71/58/58 56/54/54
f 36/20/20 20/24/24 57/59/59 71/58/58
f 71/58/58 57/59/59 9/60/60 51/61/61
f 56/54/54 71/58/58 51/61/61 11/55/55
f 20/24/24 37/26/26 72/62/62 57/59/59
f 37/26/26 21/30/30 58/63/63 72/62/62
f 72/62/62 58/63/63 15/64/64 47/65/65
f 57/59/59 72/62/62 47/65/65 9/60/60
f 21/30/30 38/32/32 73/66/66 58/63/63
f 38/32/32 22/36/36 59/67/67 73/66/66
f 73/66/66 59/67/67 16/68/68 53/69/69
f 58/63/63 73/66/66 53/69/69 15/64/64
f 22/36/36 39/38/38 74/70/70 59/67/67
f 39/38/38 23/42/42 60/71/71 74/70/70
f 74/70/70 60/71/71 17/72/72 54/73/73
f 59/67/67 74/70/70 54/73/73 16/68/68
f 23/42/42 40/44/44 75/74/74 60/71/71
f 40/44/44 24/1/1 61/47/47 75/74/74
f 75/74/74 61/47/47 18/51/51 55/75/75
f 60/71/71 75/74/74 55/75/75 17/72/72
