# Blender v3.0.0 OBJ File: 'tropical-scene_volume.blend'
# www.blender.org
o Plane.036_Plane.014
v -0.304296 0.205540 -0.904348
v -0.325359 0.194012 -0.916737
v -0.315738 0.201121 -0.911537
v -0.263119 0.197250 -0.853035
v -0.293479 0.207091 -0.895670
v -0.283631 0.206864 -0.885635
v -0.274971 0.204835 -0.874402
v -0.267846 0.201176 -0.862561
v -0.301607 0.176003 -0.904223
v -0.324396 0.183435 -0.916693
v -0.313653 0.178223 -0.911441
v -0.262643 0.192021 -0.853013
v -0.326642 0.188556 -0.918389
v -0.261408 0.194781 -0.850234
v -0.290695 0.176503 -0.895541
v -0.281057 0.178588 -0.885515
v -0.272915 0.182242 -0.874306
v -0.266576 0.187226 -0.862503
v -0.314234 0.189710 -0.912442
v -0.302383 0.190819 -0.905181
v -0.291417 0.191855 -0.896430
v -0.281583 0.192792 -0.886318
v -0.273104 0.193612 -0.875008
v -0.266300 0.194283 -0.862783
v -0.298786 0.206589 -0.900187
v -0.326712 0.191074 -0.918003
v -0.265136 0.199101 -0.857172
v -0.321313 0.197612 -0.914491
v -0.309962 0.203772 -0.908135
v -0.261885 0.195888 -0.850850
v -0.263699 0.194546 -0.856523
v -0.288419 0.207187 -0.890813
v -0.279140 0.206082 -0.880157
v -0.271167 0.203154 -0.868444
v -0.320400 0.189136 -0.915516
v -0.308215 0.190272 -0.909005
v -0.296773 0.191348 -0.900984
v -0.286344 0.192337 -0.891535
v -0.277161 0.193218 -0.880801
v -0.269450 0.193970 -0.868973
v -0.314899 0.195423 -0.912169
v -0.303233 0.198189 -0.904932
v -0.292322 0.199484 -0.896205
v -0.282464 0.199841 -0.886116
v -0.273880 0.199237 -0.874827
v -0.266902 0.197745 -0.862719
v -0.296002 0.176001 -0.900058
v -0.326257 0.186069 -0.917982
v -0.264289 0.189802 -0.857133
v -0.319768 0.180643 -0.914419
v -0.307497 0.176687 -0.908021
v -0.261676 0.193601 -0.850841
v -0.285704 0.177363 -0.890687
v -0.276786 0.180214 -0.880048
v -0.269481 0.184632 -0.868366
v -0.313857 0.183974 -0.912120
v -0.301888 0.183420 -0.904870
v -0.290930 0.184189 -0.896140
v -0.281178 0.185703 -0.886056
v -0.272852 0.187941 -0.874780
v -0.266268 0.190770 -0.862690
v -0.264217 0.196824 -0.856704
v -0.320868 0.193356 -0.915215
v -0.308992 0.197030 -0.908744
v -0.297663 0.198978 -0.900747
v -0.287247 0.199774 -0.891321
v -0.278001 0.199663 -0.880610
v -0.270145 0.198576 -0.868815
v -0.263797 0.192211 -0.856684
v -0.320098 0.184903 -0.915179
v -0.307759 0.183488 -0.908687
v -0.296271 0.183684 -0.900683
v -0.285890 0.184862 -0.891258
v -0.276823 0.186729 -0.880556
v -0.269302 0.189315 -0.868776
vt 0.500000 0.857143
vt 0.750000 0.855349
vt 0.750000 0.921934
vt 0.500000 0.928572
vt 1.000000 0.857143
vt 1.000000 0.915655
vt 1.000000 0.974166
vt 0.750000 0.987083
vt 0.500000 1.000000
vt 0.500000 0.000000
vt 0.750000 0.000000
vt 0.750000 0.071429
vt 0.500000 0.071429
vt 1.000000 0.000000
vt 1.000000 0.071429
vt 1.000000 0.142857
vt 0.750000 0.142857
vt 0.500000 0.142857
vt 0.750000 0.214286
vt 0.500000 0.214286
vt 1.000000 0.214286
vt 1.000000 0.285714
vt 0.750000 0.285714
vt 0.500000 0.285714
vt 0.750000 0.357143
vt 0.500000 0.357143
vt 1.000000 0.357143
vt 1.000000 0.428571
vt 0.750000 0.428571
vt 0.500000 0.428571
vt 0.750000 0.500000
vt 0.500000 0.500000
vt 1.000000 0.500000
vt 1.000000 0.571429
vt 0.750000 0.571429
vt 0.500000 0.571429
vt 0.750000 0.642857
vt 0.500000 0.642857
vt 1.000000 0.642857
vt 1.000000 0.714286
vt 0.750000 0.714286
vt 0.500000 0.714286
vt 0.750000 0.785535
vt 0.500000 0.785714
vt 1.000000 0.785714
vt 0.750000 0.921934
vt 0.750000 0.855349
vt 0.750000 0.987083
vt 1.000000 0.974166
vt 1.000000 0.915655
vt 1.000000 0.857143
vt 0.750000 0.071429
vt 0.750000 0.000000
vt 0.750000 0.142857
vt 1.000000 0.142857
vt 1.000000 0.071429
vt 1.000000 0.000000
vt 0.750000 0.214286
vt 0.750000 0.285714
vt 1.000000 0.285714
vt 1.000000 0.214286
vt 0.750000 0.357143
vt 0.750000 0.428571
vt 1.000000 0.428571
vt 1.000000 0.357143
vt 0.750000 0.500000
vt 0.750000 0.571429
vt 1.000000 0.571429
vt 1.000000 0.500000
vt 0.750000 0.642857
vt 0.750000 0.714286
vt 1.000000 0.714286
vt 1.000000 0.642857
vt 0.750000 0.785535
vt 1.000000 0.785714
vn 0.9050 0.0806 -0.4176
vn 0.8909 0.2106 -0.4024
vn 0.9082 0.2379 -0.3443
vn 0.9289 0.0830 -0.3608
vn 0.8825 0.2540 -0.3958
vn 0.8971 0.2833 -0.3390
vn 0.9003 0.3098 -0.3056
vn 0.9190 0.2073 -0.3353
vn 0.9362 0.0838 -0.3413
vn 0.4066 0.0331 -0.9130
vn 0.3822 0.1475 -0.9122
vn 0.3884 0.1537 -0.9086
vn 0.4219 0.0346 -0.9060
vn 0.3413 0.2103 -0.9161
vn 0.3729 0.1848 -0.9093
vn 0.4302 0.1612 -0.8882
vn 0.4391 0.1314 -0.8887
vn 0.4634 0.0384 -0.8853
vn 0.5000 0.1222 -0.8573
vn 0.5163 0.0434 -0.8553
vn 0.4943 0.1496 -0.8563
vn 0.5534 0.1463 -0.8199
vn 0.5577 0.1203 -0.8213
vn 0.5691 0.0483 -0.8208
vn 0.6108 0.1224 -0.7822
vn 0.6195 0.0531 -0.7832
vn 0.6071 0.1478 -0.7807
vn 0.6570 0.1524 -0.7383
vn 0.6604 0.1269 -0.7401
vn 0.6675 0.0576 -0.7423
vn 0.7069 0.1332 -0.6946
vn 0.7133 0.0620 -0.6981
vn 0.7037 0.1592 -0.6924
vn 0.7476 0.1687 -0.6424
vn 0.7508 0.1415 -0.6452
vn 0.7566 0.0661 -0.6505
vn 0.7916 0.1526 -0.5916
vn 0.7973 0.0700 -0.5995
vn 0.7884 0.1820 -0.5876
vn 0.8253 0.2007 -0.5278
vn 0.8289 0.1680 -0.5336
vn 0.8353 0.0737 -0.5448
vn 0.8622 0.1879 -0.4704
vn 0.8714 0.0773 -0.4844
vn 0.8572 0.2255 -0.4630
vn 0.9365 -0.0729 -0.3430
vn 0.9146 -0.0496 -0.4013
vn 0.9416 -0.0408 -0.3342
vn 0.9417 -0.1447 -0.3037
vn 0.9337 -0.1195 -0.3373
vn 0.9142 -0.0938 -0.3943
vn 0.4104 -0.0887 -0.9075
vn 0.4033 -0.0837 -0.9112
vn 0.4563 -0.0574 -0.8879
vn 0.4529 -0.0883 -0.8871
vn 0.4008 -0.1221 -0.9080
vn 0.3743 -0.1529 -0.9146
vn 0.5145 -0.0370 -0.8567
vn 0.5709 -0.0245 -0.8206
vn 0.5713 -0.0508 -0.8191
vn 0.5139 -0.0650 -0.8554
vn 0.6235 -0.0167 -0.7816
vn 0.6730 -0.0117 -0.7396
vn 0.6742 -0.0374 -0.7375
vn 0.6245 -0.0423 -0.7799
vn 0.7199 -0.0092 -0.6940
vn 0.7645 -0.0090 -0.6446
vn 0.7662 -0.0364 -0.6415
vn 0.7214 -0.0354 -0.6916
vn 0.8066 -0.0121 -0.5909
vn 0.8460 -0.0201 -0.5328
vn 0.8484 -0.0528 -0.5267
vn 0.8087 -0.0416 -0.5867
vn 0.8824 -0.0331 -0.4694
vn 0.8842 -0.0709 -0.4617
s 1
f 24/1/1 46/2/2 62/3/3 31/4/4
f 46/2/2 8/5/5 27/6/6 62/3/3
f 62/3/3 27/6/6 4/7/7 30/8/8
f 31/4/4 62/3/3 30/8/8 14/9/9
f 13/10/10 26/11/11 63/12/12 35/13/13
f 26/11/11 2/14/14 28/15/15 63/12/12
f 63/12/12 28/15/15 3/16/16 41/17/17
f 35/13/13 63/12/12 41/17/17 19/18/18
f 19/18/18 41/17/17 64/19/19 36/20/20
f 41/17/17 3/16/16 29/21/21 64/19/19
f 64/19/19 29/21/21 1/22/22 42/23/23
f 36/20/20 64/19/19 42/23/23 20/24/24
f 20/24/24 42/23/23 65/25/25 37/26/26
f 42/23/23 1/22/22 25/27/27 65/25/25
f 65/25/25 25/27/27 5/28/28 43/29/29
f 37/26/26 65/25/25 43/29/29 21/30/30
f 21/30/30 43/29/29 66/31/31 38/32/32
f 43/29/29 5/28/28 32/33/33 66/31/31
f 66/31/31 32/33/33 6/34/34 44/35/35
f 38/32/32 66/31/31 44/35/35 22/36/36
f 22/36/36 44/35/35 67/37/37 39/38/38
f 44/35/35 6/34/34 33/39/39 67/37/37
f 67/37/37 33/39/39 7/40/40 45/41/41
f 39/38/38 67/37/37 45/41/41 23/42/42
f 23/42/42 45/41/41 68/43/43 40/44/44
f 45/41/41 7/40/40 34/45/45 68/43/43
f 68/43/43 34/45/45 8/5/5 46/2/2
f 40/44/44 68/43/43 46/2/2 24/1/1
f 24/1/1 31/4/4 69/46/46 61/47/47
f 31/4/4 14/9/9 52/48/48 69/46/46
f 69/46/46 52/48/48 12/49/49 49/50/50
f 61/47/47 69/46/46 49/50/50 18/51/51
f 13/10/10 35/13/13 70/52/52 48/53/53
f 35/13/13 19/18/18 56/54/54 70/52/52
f 70/52/52 56/54/54 11/55/55 50/56/56
f 48/53/53 70/52/52 50/56/56 10/57/57
f 19/18/18 36/20/20 71/58/58 56/54/54
f 36/20/20 20/24/24 57/59/59 71/58/58
f 71/58/58 57/59/59 9/60/60 51/61/61
f 56/54/54 71/58/58 51/61/61 11/55/55
f 20/24/24 37/26/26 72/62/62 57/59/59
f 37/26/26 21/30/30 58/63/63 72/62/62
f 72/62/62 58/63/63 15/64/64 47/65/65
f 57/59/59 72/62/62 47/65/65 9/60/60
f 21/30/30 38/32/32 73/66/66 58/63/63
f 38/32/32 22/36/36 59/67/67 73/66/66
f 73/66/66 59/67/67 16/68/68 53/69/69
f 58/63/63 73/66/66 53/69/69 15/64/64
f 22/36/36 39/38/38 74/70/70 59/67/67
f 39/38/38 23/42/42 60/71/71 74/70/70
f 74/70/70 60/71/71 17/72/72 54/73/73
f 59/67/67 74/70/70 54/73/73 16/68/68
f 23/42/42 40/44/44 75/74/74 60/71/71
f 40/44/44 24/1/1 61/47/47 75/74/74
f 75/74/74 61/47/47 18/51/51 55/75/75
f 60/71/71 75/74/74 55/75/75 17/72/72
