# Blender v3.0.0 OBJ File: 'tropical-scene_volume.blend'
# www.blender.org
o Plane.044_Plane.010
v -0.646380 0.302291 0.030861
v -0.641506 0.255229 0.061137
v -0.640167 0.278418 0.047142
v -0.726275 0.362083 -0.064245
v -0.658012 0.322201 0.013262
v -0.672728 0.338476 -0.006055
v -0.690288 0.350714 -0.026769
v -0.709747 0.358534 -0.047825
v -0.701885 0.281701 0.048096
v -0.661381 0.247856 0.067309
v -0.683197 0.262456 0.060502
v -0.736101 0.358439 -0.061194
v -0.649250 0.248422 0.067560
v -0.733780 0.362590 -0.068284
v -0.715492 0.300879 0.031110
v -0.725863 0.318766 0.010443
v -0.732745 0.334965 -0.013587
v -0.735963 0.348809 -0.039685
v -0.661496 0.271529 0.055726
v -0.674056 0.293287 0.041268
v -0.686788 0.313016 0.023834
v -0.699442 0.330258 0.003680
v -0.711768 0.344612 -0.018871
v -0.723378 0.355503 -0.043251
v -0.651697 0.312710 0.022263
v -0.644879 0.250395 0.065308
v -0.718868 0.360736 -0.057197
v -0.639879 0.265499 0.054773
v -0.642422 0.290879 0.039130
v -0.731027 0.362780 -0.067733
v -0.728683 0.359353 -0.055738
v -0.665027 0.330810 0.003808
v -0.681157 0.345127 -0.016263
v -0.699987 0.355199 -0.037445
v -0.655346 0.260070 0.061842
v -0.667738 0.282630 0.048883
v -0.680416 0.303434 0.032908
v -0.693140 0.321974 0.014078
v -0.705661 0.337819 -0.007319
v -0.717713 0.350566 -0.030905
v -0.650796 0.275178 0.051791
v -0.660204 0.298031 0.036401
v -0.672406 0.317885 0.018857
v -0.686112 0.334674 -0.000909
v -0.701075 0.347995 -0.022575
v -0.716661 0.357362 -0.045444
v -0.709176 0.291388 0.040110
v -0.654282 0.246907 0.068228
v -0.736342 0.354254 -0.051772
v -0.671768 0.253670 0.064675
v -0.693321 0.271998 0.054933
v -0.735325 0.361185 -0.066398
v -0.721071 0.310020 0.021210
v -0.729766 0.327095 -0.001170
v -0.734793 0.342288 -0.026638
v -0.672311 0.267197 0.058471
v -0.687956 0.287736 0.045018
v -0.701147 0.307224 0.027781
v -0.712680 0.324819 0.007340
v -0.722304 0.340121 -0.015984
v -0.729769 0.352500 -0.041374
v -0.724033 0.360392 -0.056744
v -0.647518 0.262790 0.058740
v -0.655055 0.286978 0.044354
v -0.666053 0.308332 0.027909
v -0.679100 0.326684 0.009237
v -0.693447 0.341793 -0.011529
v -0.708911 0.353224 -0.033962
v -0.732701 0.357177 -0.054053
v -0.663402 0.256898 0.063671
v -0.680505 0.277537 0.052256
v -0.694792 0.297671 0.036832
v -0.707123 0.316289 0.017938
v -0.717751 0.332777 -0.003982
v -0.726314 0.346769 -0.028559
vt 0.500000 0.857143
vt 0.750000 0.855349
vt 0.750000 0.921934
vt 0.500000 0.928572
vt 1.000000 0.857143
vt 1.000000 0.915655
vt 1.000000 0.974166
vt 0.750000 0.987083
vt 0.500000 1.000000
vt 0.500000 0.000000
vt 0.750000 0.000000
vt 0.750000 0.071429
vt 0.500000 0.071429
vt 1.000000 0.000000
vt 1.000000 0.071429
vt 1.000000 0.142857
vt 0.750000 0.142857
vt 0.500000 0.142857
vt 0.750000 0.214286
vt 0.500000 0.214286
vt 1.000000 0.214286
vt 1.000000 0.285714
vt 0.750000 0.285714
vt 0.500000 0.285714
vt 0.750000 0.357143
vt 0.500000 0.357143
vt 1.000000 0.357143
vt 1.000000 0.428571
vt 0.750000 0.428571
vt 0.500000 0.428571
vt 0.750000 0.500000
vt 0.500000 0.500000
vt 1.000000 0.500000
vt 1.000000 0.571429
vt 0.750000 0.571429
vt 0.500000 0.571429
vt 0.750000 0.642857
vt 0.500000 0.642857
vt 1.000000 0.642857
vt 1.000000 0.714286
vt 0.750000 0.714286
vt 0.500000 0.714286
vt 0.750000 0.785535
vt 0.500000 0.785714
vt 1.000000 0.785714
vt 0.750000 0.921934
vt 0.750000 0.855349
vt 0.750000 0.987083
vt 1.000000 0.974166
vt 1.000000 0.915655
vt 1.000000 0.857143
vt 0.750000 0.071429
vt 0.750000 0.000000
vt 0.750000 0.142857
vt 1.000000 0.142857
vt 1.000000 0.071429
vt 1.000000 0.000000
vt 0.750000 0.214286
vt 0.750000 0.285714
vt 1.000000 0.285714
vt 1.000000 0.214286
vt 0.750000 0.357143
vt 0.750000 0.428571
vt 1.000000 0.428571
vt 1.000000 0.357143
vt 0.750000 0.500000
vt 0.750000 0.571429
vt 1.000000 0.571429
vt 1.000000 0.500000
vt 0.750000 0.642857
vt 0.750000 0.714286
vt 1.000000 0.714286
vt 1.000000 0.642857
vt 0.750000 0.785535
vt 1.000000 0.785714
vn -0.2060 0.8920 0.4022
vn -0.0917 0.9320 0.3506
vn -0.0910 0.9534 0.2877
vn -0.2292 0.9091 0.3478
vn -0.0524 0.9419 0.3318
vn -0.0484 0.9618 0.2695
vn -0.0358 0.9725 0.2300
vn -0.1244 0.9495 0.2879
vn -0.2369 0.9141 0.3290
vn 0.0980 0.4700 0.8772
vn 0.2069 0.4956 0.8435
vn 0.2088 0.5034 0.8384
vn 0.0908 0.4837 0.8705
vn 0.2798 0.4852 0.8284
vn 0.2425 0.5025 0.8299
vn 0.1919 0.5423 0.8179
vn 0.1626 0.5380 0.8271
vn 0.0709 0.5208 0.8507
vn 0.1202 0.5861 0.8012
vn 0.0446 0.5678 0.8219
vn 0.1460 0.5923 0.7923
vn 0.1082 0.6408 0.7600
vn 0.0843 0.6340 0.7687
vn 0.0171 0.6142 0.7889
vn 0.0530 0.6791 0.7321
vn -0.0103 0.6580 0.7529
vn 0.0761 0.6862 0.7234
vn 0.0475 0.7290 0.6829
vn 0.0245 0.7216 0.6919
vn -0.0378 0.6994 0.7137
vn -0.0021 0.7619 0.6477
vn -0.0654 0.7382 0.6713
vn 0.0212 0.7696 0.6381
vn -0.0027 0.8083 0.5886
vn -0.0269 0.8001 0.5992
vn -0.0930 0.7745 0.6257
vn -0.0490 0.8365 0.5457
vn -0.1206 0.8079 0.5767
vn -0.0233 0.8454 0.5335
vn -0.0388 0.8808 0.4718
vn -0.0670 0.8709 0.4868
vn -0.1482 0.8385 0.5243
vn -0.0810 0.9032 0.4214
vn -0.1767 0.8668 0.4664
vn -0.0482 0.9136 0.4036
vn -0.3719 0.8492 0.3749
vn -0.3269 0.8448 0.4236
vn -0.3487 0.8663 0.3576
vn -0.4467 0.8201 0.3576
vn -0.4125 0.8267 0.3825
vn -0.3667 0.8253 0.4294
vn -0.0103 0.4221 0.9065
vn -0.0020 0.4181 0.9084
vn -0.0082 0.4747 0.8801
vn -0.0336 0.4586 0.8880
vn -0.0349 0.3995 0.9160
vn -0.0485 0.3634 0.9304
vn -0.0238 0.5328 0.8459
vn -0.0466 0.5854 0.8094
vn -0.0699 0.5747 0.8154
vn -0.0480 0.5204 0.8526
vn -0.0727 0.6324 0.7712
vn -0.1008 0.6751 0.7308
vn -0.1241 0.6653 0.7361
vn -0.0958 0.6224 0.7768
vn -0.1308 0.7141 0.6876
vn -0.1628 0.7497 0.6414
vn -0.1881 0.7396 0.6462
vn -0.1547 0.7043 0.6928
vn -0.1979 0.7812 0.5920
vn -0.2370 0.8079 0.5396
vn -0.2680 0.7958 0.5430
vn -0.2253 0.7705 0.5963
vn -0.2807 0.8291 0.4834
vn -0.3162 0.8142 0.4868
s 1
f 24/1/1 46/2/2 62/3/3 31/4/4
f 46/2/2 8/5/5 27/6/6 62/3/3
f 62/3/3 27/6/6 4/7/7 30/8/8
f 31/4/4 62/3/3 30/8/8 14/9/9
f 13/10/10 26/11/11 63/12/12 35/13/13
f 26/11/11 2/14/14 28/15/15 63/12/12
f 63/12/12 28/15/15 3/16/16 41/17/17
f 35/13/13 63/12/12 41/17/17 19/18/18
f 19/18/18 41/17/17 64/19/19 36/20/20
f 41/17/17 3/16/16 29/21/21 64/19/19
f 64/19/19 29/21/21 1/22/22 42/23/23
f 36/20/20 64/19/19 42/23/23 20/24/24
f 20/24/24 42/23/23 65/25/25 37/26/26
f 42/23/23 1/22/22 25/27/27 65/25/25
f 65/25/25 25/27/27 5/28/28 43/29/29
f 37/26/26 65/25/25 43/29/29 21/30/30
f 21/30/30 43/29/29 66/31/31 38/32/32
f 43/29/29 5/28/28 32/33/33 66/31/31
f 66/31/31 32/33/33 6/34/34 44/35/35
f 38/32/32 66/31/31 44/35/35 22/36/36
f 22/36/36 44/35/35 67/37/37 39/38/38
f 44/35/35 6/34/34 33/39/39 67/37/37
f 67/37/37 33/39/39 7/40/40 45/41/41
f 39/38/38 67/37/37 45/41/41 23/42/42
f 23/42/42 45/41/41 68/43/43 40/44/44
f 45/41/41 7/40/40 34/45/45 68/43/43
f 68/43/43 34/45/45 8/5/5 46/2/2
f 40/44/44 68/43/43 46/2/2 24/1/1
f 24/1/1 31/4/4 69/46/46 61/47/47
f 31/4/4 14/9/9 52/48/48 69/46/46
f 69/46/46 52/48/48 12/49/49 49/50/50
f 61/47/47 69/46/46 49/50/50 18/51/51
f 13/10/10 35/13/13 70/52/52 48/53/53
f 35/13/13 19/18/18 56/54/54 70/52/52
f 70/52/52 56/54/54 11/55/55 50/56/56
f 48/53/53 70/52/52 50/56/56 10/57/57
f 19/18/18 36/20/20 71/58/58 56/54/54
f 36/20/20 20/24/24 57/59/59 71/58/58
f 71/58/58 57/59/59 9/60/60 51/61/61
f 56/54/54 71/58/58 51/61/61 11/55/55
f 20/24/24 37/26/26 72/62/62 57/59/59
f 37/26/26 21/30/30 58/63/63 72/62/62
f 72/62/62 58/63/63 15/64/64 47/65/65
f 57/59/59 72/62/62 47/65/65 9/60/60
f 21/30/30 38/32/32 73/66/66 58/63/63
f 38/32/32 22/36/36 59/67/67 73/66/66
f 73/66/66 59/67/67 16/68/68 53/69/69
f 58/63/63 73/66/66 53/69/69 15/64/64
f 22/36/36 39/38/38 74/70/70 59/67/67
f 39/38/38 23/42/42 60/71/71 74/70/70
f 74/70/70 60/71/71 17/72/72 54/73/73
f 59/67/67 74/70/70 54/73/73 16/68/68
f 23/42/42 40/44/44 75/74/74 60/71/71
f 40/44/44 24/1/1 61/47/47 75/74/74
f 75/74/74 61/47/47 18/51/51 55/75/75
f 60/71/71 75/74/74 55/75/75 17/72/72
