# Blender v3.0.0 OBJ File: 'tropical-scene_volume.blend'
# www.blender.org
o Plane.031_Plane.007
v -0.416368 0.396291 0.863197
v -0.450974 0.375864 0.854127
v -0.435922 0.387827 0.859215
v -0.319224 0.381361 0.886901
v -0.395740 0.399857 0.866992
v -0.374789 0.399799 0.871542
v -0.353920 0.396044 0.876796
v -0.334109 0.388940 0.882458
v -0.407211 0.359762 0.838163
v -0.447695 0.362784 0.845163
v -0.428824 0.359508 0.839807
v -0.317603 0.374894 0.882470
v -0.452940 0.368997 0.848803
v -0.314196 0.377630 0.886955
v -0.386258 0.362028 0.841066
v -0.366023 0.364830 0.847577
v -0.346916 0.368103 0.857647
v -0.329784 0.371687 0.870634
v -0.432637 0.374523 0.848166
v -0.411872 0.378926 0.849336
v -0.390896 0.381876 0.852705
v -0.370122 0.383267 0.858274
v -0.349961 0.383032 0.865991
v -0.331053 0.381099 0.875726
v -0.406136 0.398585 0.865043
v -0.453180 0.371984 0.851277
v -0.325672 0.384861 0.885063
v -0.444710 0.381649 0.856818
v -0.426330 0.392768 0.861304
v -0.315535 0.379118 0.887456
v -0.322448 0.379483 0.881233
v -0.385275 0.400268 0.869162
v -0.364321 0.398394 0.874091
v -0.343711 0.392805 0.879627
v -0.442828 0.371843 0.848350
v -0.422308 0.376899 0.848478
v -0.401385 0.380590 0.850745
v -0.380458 0.382771 0.855217
v -0.359939 0.383355 0.861869
v -0.340267 0.382288 0.870622
v -0.434329 0.381335 0.853438
v -0.414136 0.387777 0.856015
v -0.393299 0.391041 0.859600
v -0.372402 0.391711 0.864667
v -0.351855 0.389718 0.871163
v -0.332413 0.385167 0.878939
v -0.396654 0.360759 0.839118
v -0.451629 0.365795 0.847036
v -0.322789 0.373361 0.877182
v -0.439449 0.360662 0.842435
v -0.417933 0.359271 0.838347
v -0.314826 0.376289 0.885518
v -0.376030 0.363385 0.843885
v -0.356302 0.366403 0.852167
v -0.337970 0.369899 0.863928
v -0.430780 0.367176 0.843735
v -0.409557 0.369513 0.843497
v -0.388558 0.372127 0.846638
v -0.368019 0.374227 0.852684
v -0.348353 0.375747 0.861588
v -0.330251 0.376541 0.873027
v -0.323687 0.382211 0.883177
v -0.443964 0.376834 0.852340
v -0.424352 0.384998 0.854638
v -0.403758 0.389760 0.857643
v -0.382830 0.391697 0.861944
v -0.362060 0.391054 0.867744
v -0.341881 0.387722 0.874908
v -0.322257 0.376506 0.879268
v -0.441343 0.366380 0.845176
v -0.420153 0.368250 0.843160
v -0.399017 0.370846 0.844681
v -0.378207 0.373255 0.849306
v -0.358051 0.375059 0.856782
v -0.339011 0.376269 0.867059
vt 0.500000 0.857143
vt 0.750000 0.855349
vt 0.750000 0.921934
vt 0.500000 0.928572
vt 1.000000 0.857143
vt 1.000000 0.915655
vt 1.000000 0.974166
vt 0.750000 0.987083
vt 0.500000 1.000000
vt 0.500000 0.000000
vt 0.750000 0.000000
vt 0.750000 0.071429
vt 0.500000 0.071429
vt 1.000000 0.000000
vt 1.000000 0.071429
vt 1.000000 0.142857
vt 0.750000 0.142857
vt 0.500000 0.142857
vt 0.750000 0.214286
vt 0.500000 0.214286
vt 1.000000 0.214286
vt 1.000000 0.285714
vt 0.750000 0.285714
vt 0.500000 0.285714
vt 0.750000 0.357143
vt 0.500000 0.357143
vt 1.000000 0.357143
vt 1.000000 0.428571
vt 0.750000 0.428571
vt 0.500000 0.428571
vt 0.750000 0.500000
vt 0.500000 0.500000
vt 1.000000 0.500000
vt 1.000000 0.571429
vt 0.750000 0.571429
vt 0.500000 0.571429
vt 0.750000 0.642857
vt 0.500000 0.642857
vt 1.000000 0.642857
vt 1.000000 0.714286
vt 0.750000 0.714286
vt 0.500000 0.714286
vt 0.750000 0.785535
vt 0.500000 0.785714
vt 1.000000 0.785714
vt 0.750000 0.921934
vt 0.750000 0.855349
vt 0.750000 0.987083
vt 1.000000 0.974166
vt 1.000000 0.915655
vt 1.000000 0.857143
vt 0.750000 0.071429
vt 0.750000 0.000000
vt 0.750000 0.142857
vt 1.000000 0.142857
vt 1.000000 0.071429
vt 1.000000 0.000000
vt 0.750000 0.214286
vt 0.750000 0.285714
vt 1.000000 0.285714
vt 1.000000 0.214286
vt 0.750000 0.357143
vt 0.750000 0.428571
vt 1.000000 0.428571
vt 1.000000 0.357143
vt 0.750000 0.500000
vt 0.750000 0.571429
vt 1.000000 0.571429
vt 1.000000 0.500000
vt 0.750000 0.642857
vt 0.750000 0.714286
vt 1.000000 0.714286
vt 1.000000 0.642857
vt 0.750000 0.785535
vt 1.000000 0.785714
vn 0.4870 0.5735 -0.6587
vn 0.4677 0.6723 -0.5738
vn 0.5113 0.6808 -0.5245
vn 0.5384 0.5640 -0.6261
vn 0.4591 0.7032 -0.5428
vn 0.4995 0.7129 -0.4922
vn 0.5178 0.7243 -0.4552
vn 0.5291 0.6559 -0.5384
vn 0.5553 0.5603 -0.6145
vn -0.1939 0.5210 -0.8312
vn -0.2277 0.6079 -0.7606
vn -0.2215 0.6142 -0.7574
vn -0.1777 0.5256 -0.8319
vn -0.2712 0.6464 -0.7131
vn -0.2384 0.6347 -0.7350
vn -0.1769 0.6294 -0.7567
vn -0.1662 0.6079 -0.7764
vn -0.1327 0.5375 -0.8328
vn -0.0976 0.6122 -0.7846
vn -0.0732 0.5512 -0.8311
vn -0.1051 0.6328 -0.7671
vn -0.0361 0.6397 -0.7678
vn -0.0300 0.6199 -0.7841
vn -0.0114 0.5633 -0.8261
vn 0.0351 0.6280 -0.7774
vn 0.0504 0.5731 -0.8179
vn 0.0297 0.6475 -0.7614
vn 0.0938 0.6552 -0.7496
vn 0.0987 0.6356 -0.7656
vn 0.1121 0.5807 -0.8063
vn 0.1616 0.6424 -0.7491
vn 0.1739 0.5860 -0.7914
vn 0.1569 0.6624 -0.7325
vn 0.2199 0.6691 -0.7099
vn 0.2243 0.6483 -0.7275
vn 0.2356 0.5889 -0.7731
vn 0.2866 0.6540 -0.7000
vn 0.2972 0.5893 -0.7512
vn 0.2825 0.6761 -0.6804
vn 0.3442 0.6844 -0.6428
vn 0.3479 0.6603 -0.6655
vn 0.3588 0.5872 -0.7256
vn 0.4086 0.6668 -0.6232
vn 0.4220 0.5821 -0.6950
vn 0.4038 0.6940 -0.5961
vn 0.5745 0.4287 -0.6972
vn 0.5206 0.4612 -0.7185
vn 0.5795 0.4545 -0.6764
vn 0.6102 0.3556 -0.7079
vn 0.5814 0.3861 -0.7161
vn 0.5298 0.4212 -0.7361
vn -0.1722 0.4176 -0.8921
vn -0.1807 0.4204 -0.8891
vn -0.1278 0.4546 -0.8814
vn -0.1261 0.4270 -0.8954
vn -0.1760 0.3858 -0.9056
vn -0.1974 0.3519 -0.9150
vn -0.0652 0.4830 -0.8731
vn -0.0005 0.5024 -0.8646
vn 0.0040 0.4798 -0.8774
vn -0.0615 0.4587 -0.8864
vn 0.0634 0.5152 -0.8547
vn 0.1269 0.5232 -0.8427
vn 0.1324 0.5012 -0.8551
vn 0.0684 0.4932 -0.8672
vn 0.1906 0.5269 -0.8282
vn 0.2549 0.5263 -0.8112
vn 0.2616 0.5027 -0.8239
vn 0.1965 0.5045 -0.8408
vn 0.3201 0.5204 -0.7917
vn 0.3862 0.5077 -0.7701
vn 0.3958 0.4787 -0.7837
vn 0.3280 0.4948 -0.8047
vn 0.4535 0.4876 -0.7460
vn 0.4641 0.4535 -0.7608
s 1
f 24/1/1 46/2/2 62/3/3 31/4/4
f 46/2/2 8/5/5 27/6/6 62/3/3
f 62/3/3 27/6/6 4/7/7 30/8/8
f 31/4/4 62/3/3 30/8/8 14/9/9
f 13/10/10 26/11/11 63/12/12 35/13/13
f 26/11/11 2/14/14 28/15/15 63/12/12
f 63/12/12 28/15/15 3/16/16 41/17/17
f 35/13/13 63/12/12 41/17/17 19/18/18
f 19/18/18 41/17/17 64/19/19 36/20/20
f 41/17/17 3/16/16 29/21/21 64/19/19
f 64/19/19 29/21/21 1/22/22 42/23/23
f 36/20/20 64/19/19 42/23/23 20/24/24
f 20/24/24 42/23/23 65/25/25 37/26/26
f 42/23/23 1/22/22 25/27/27 65/25/25
f 65/25/25 25/27/27 5/28/28 43/29/29
f 37/26/26 65/25/25 43/29/29 21/30/30
f 21/30/30 43/29/29 66/31/31 38/32/32
f 43/29/29 5/28/28 32/33/33 66/31/31
f 66/31/31 32/33/33 6/34/34 44/35/35
f 38/32/32 66/31/31 44/35/35 22/36/36
f 22/36/36 44/35/35 67/37/37 39/38/38
f 44/35/35 6/34/34 33/39/39 67/37/37
f 67/37/37 33/39/39 7/40/40 45/41/41
f 39/38/38 67/37/37 45/41/41 23/42/42
f 23/42/42 45/41/41 68/43/43 40/44/44
f 45/41/41 7/40/40 34/45/45 68/43/43
f 68/43/43 34/45/45 8/5/5 46/2/2
f 40/44/44 68/43/43 46/2/2 24/1/1
f 24/1/1 31/4/4 69/46/46 61/47/47
f 31/4/4 14/9/9 52/48/48 69/46/46
f 69/46/46 52/48/48 12/49/49 49/50/50
f 61/47/47 69/46/46 49/50/50 18/51/51
f 13/10/10 35/13/13 70/52/52 48/53/53
f 35/13/13 19/18/18 56/54/54 70/52/52
f 70/52/52 56/54/54 11/55/55 50/56/56
f 48/53/53 70/52/52 50/56/56 10/57/57
f 19/18/18 36/20/20 71/58/58 56/54/54
f 36/20/20 20/24/24 57/59/59 71/58/58
f 71/58/58 57/59/59 9/60/60 51/61/61
f 56/54/54 71/58/58 51/61/61 11/55/55
f 20/24/24 37/26/26 72/62/62 57/59/59
f 37/26/26 21/30/30 58/63/63 72/62/62
f 72/62/62 58/63/63 15/64/64 47/65/65
f 57/59/59 72/62/62 47/65/65 9/60/60
f 21/30/30 38/32/32 73/66/66 58/63/63
f 38/32/32 22/36/36 59/67/67 73/66/66
f 73/66/66 59/67/67 16/68/68 53/69/69
f 58/63/63 73/66/66 53/69/69 15/64/64
f 22/36/36 39/38/38 74/70/70 59/67/67
f 39/38/38 23/42/42 60/71/71 74/70/70
f 74/70/70 60/71/71 17/72/72 54/73/73
f 59/67/67 74/70/70 54/73/73 16/68/68
f 23/42/42 40/44/44 75/74/74 60/71/71
f 40/44/44 24/1/1 61/47/47 75/74/74
f 75/74/74 61/47/47 18/51/51 55/75/75
f 60/71/71 75/74/74 55/75/75 17/72/72
