# Blender v3.0.0 OBJ File: 'tropical-scene_volume.blend'
# www.blender.org
o Plane.040_Plane.011
v -0.623090 0.251368 0.042475
v -0.635330 0.233100 0.078151
v -0.626793 0.241497 0.061843
v -0.655571 0.272361 -0.052828
v -0.624239 0.259751 0.022555
v -0.628539 0.266105 0.002138
v -0.635963 0.270248 -0.018395
v -0.646023 0.272100 -0.038066
v -0.667708 0.259380 0.050308
v -0.651307 0.235969 0.080956
v -0.661382 0.247708 0.067916
v -0.663469 0.273779 -0.051442
v -0.642908 0.233340 0.083118
v -0.660367 0.273073 -0.056960
v -0.670444 0.268048 0.030667
v -0.671251 0.273775 0.009637
v -0.670091 0.276376 -0.012403
v -0.667096 0.275884 -0.034366
v -0.643692 0.245908 0.065796
v -0.645013 0.256784 0.047150
v -0.646970 0.265396 0.027198
v -0.649543 0.271502 0.006297
v -0.652698 0.274916 -0.015168
v -0.656369 0.275405 -0.036574
v -0.623191 0.255785 0.032586
v -0.639254 0.232591 0.081808
v -0.651206 0.272275 -0.046492
v -0.630842 0.236497 0.071007
v -0.624207 0.246579 0.052226
v -0.658459 0.272695 -0.056168
v -0.658345 0.274459 -0.046865
v -0.626018 0.263198 0.012389
v -0.631854 0.268461 -0.008140
v -0.640790 0.271456 -0.028506
v -0.643260 0.239747 0.074560
v -0.644272 0.251612 0.056658
v -0.645913 0.261390 0.037315
v -0.648181 0.268775 0.016842
v -0.651051 0.273555 -0.004390
v -0.654478 0.275558 -0.025959
v -0.635168 0.243947 0.063991
v -0.633979 0.254341 0.044955
v -0.635534 0.262854 0.024986
v -0.638975 0.269097 0.004294
v -0.644269 0.272882 -0.016738
v -0.651160 0.274018 -0.037387
v -0.669394 0.264082 0.040698
v -0.646813 0.233948 0.083135
v -0.665253 0.274797 -0.044026
v -0.656475 0.241100 0.075508
v -0.665121 0.253925 0.059409
v -0.661914 0.273315 -0.055562
v -0.671069 0.271288 0.020299
v -0.670929 0.275477 -0.001279
v -0.668768 0.276479 -0.023594
v -0.652463 0.247053 0.067028
v -0.656288 0.258347 0.048872
v -0.658637 0.267003 0.029042
v -0.660331 0.272931 0.008044
v -0.661333 0.275946 -0.013742
v -0.661697 0.275910 -0.035537
v -0.654834 0.273539 -0.047016
v -0.637000 0.238260 0.073079
v -0.634166 0.249350 0.054600
v -0.634480 0.258861 0.035077
v -0.637032 0.266274 0.014709
v -0.641388 0.271305 -0.006205
v -0.647577 0.273805 -0.027215
v -0.661801 0.274790 -0.045793
v -0.649768 0.240553 0.075321
v -0.654623 0.253024 0.058192
v -0.657582 0.263009 0.039133
v -0.659557 0.270319 0.018664
v -0.660926 0.274813 -0.002774
v -0.661567 0.276317 -0.024759
vt 0.500000 0.857143
vt 0.750000 0.855349
vt 0.750000 0.921934
vt 0.500000 0.928572
vt 1.000000 0.857143
vt 1.000000 0.915655
vt 1.000000 0.974166
vt 0.750000 0.987083
vt 0.500000 1.000000
vt 0.500000 0.000000
vt 0.750000 0.000000
vt 0.750000 0.071429
vt 0.500000 0.071429
vt 1.000000 0.000000
vt 1.000000 0.071429
vt 1.000000 0.142857
vt 0.750000 0.142857
vt 0.500000 0.142857
vt 0.750000 0.214286
vt 0.500000 0.214286
vt 1.000000 0.214286
vt 1.000000 0.285714
vt 0.750000 0.285714
vt 0.500000 0.285714
vt 0.750000 0.357143
vt 0.500000 0.357143
vt 1.000000 0.357143
vt 1.000000 0.428571
vt 0.750000 0.428571
vt 0.500000 0.428571
vt 0.750000 0.500000
vt 0.500000 0.500000
vt 1.000000 0.500000
vt 1.000000 0.571429
vt 0.750000 0.571429
vt 0.500000 0.571429
vt 0.750000 0.642857
vt 0.500000 0.642857
vt 1.000000 0.642857
vt 1.000000 0.714286
vt 0.750000 0.714286
vt 0.500000 0.714286
vt 0.750000 0.785535
vt 0.500000 0.785714
vt 1.000000 0.785714
vt 0.750000 0.921934
vt 0.750000 0.855349
vt 0.750000 0.987083
vt 1.000000 0.974166
vt 1.000000 0.915655
vt 1.000000 0.857143
vt 0.750000 0.071429
vt 0.750000 0.000000
vt 0.750000 0.142857
vt 1.000000 0.142857
vt 1.000000 0.071429
vt 1.000000 0.000000
vt 0.750000 0.214286
vt 0.750000 0.285714
vt 1.000000 0.285714
vt 1.000000 0.214286
vt 0.750000 0.357143
vt 0.750000 0.428571
vt 1.000000 0.428571
vt 1.000000 0.357143
vt 0.750000 0.500000
vt 0.750000 0.571429
vt 1.000000 0.571429
vt 1.000000 0.500000
vt 0.750000 0.642857
vt 0.750000 0.714286
vt 1.000000 0.714286
vt 1.000000 0.642857
vt 0.750000 0.785535
vt 1.000000 0.785714
vn 0.1615 0.9832 -0.0854
vn 0.2844 0.9511 -0.1200
vn 0.2969 0.9370 -0.1838
vn 0.1500 0.9779 -0.1457
vn 0.3251 0.9365 -0.1311
vn 0.3399 0.9204 -0.1929
vn 0.3576 0.9054 -0.2288
vn 0.2649 0.9454 -0.1899
vn 0.1459 0.9752 -0.1660
vn 0.2416 0.7757 0.5829
vn 0.3529 0.7429 0.5688
vn 0.3580 0.7460 0.5615
vn 0.2411 0.7859 0.5694
vn 0.4156 0.7024 0.5778
vn 0.3887 0.7296 0.5626
vn 0.3597 0.7728 0.5228
vn 0.3308 0.7838 0.5256
vn 0.2392 0.8126 0.5314
vn 0.3133 0.8240 0.4721
vn 0.2360 0.8451 0.4798
vn 0.3397 0.8159 0.4679
vn 0.3269 0.8516 0.4098
vn 0.3019 0.8585 0.4145
vn 0.2317 0.8753 0.4245
vn 0.2937 0.8872 0.3557
vn 0.2265 0.9020 0.3675
vn 0.3182 0.8808 0.3506
vn 0.3117 0.9048 0.2900
vn 0.2872 0.9111 0.2954
vn 0.2204 0.9252 0.3090
vn 0.2817 0.9307 0.2333
vn 0.2133 0.9448 0.2487
vn 0.3066 0.9243 0.2272
vn 0.3032 0.9391 0.1617
vn 0.2773 0.9459 0.1686
vn 0.2053 0.9607 0.1867
vn 0.2747 0.9562 0.1011
vn 0.1963 0.9728 0.1231
vn 0.3024 0.9486 0.0928
vn 0.3057 0.9519 0.0202
vn 0.2753 0.9608 0.0306
vn 0.1862 0.9808 0.0577
vn 0.2790 0.9593 -0.0435
vn 0.1747 0.9845 -0.0117
vn 0.3139 0.9478 -0.0555
vn -0.0058 0.9914 -0.1306
vn 0.0310 0.9966 -0.0755
vn 0.0232 0.9888 -0.1475
vn -0.0849 0.9848 -0.1511
vn -0.0524 0.9909 -0.1241
vn -0.0135 0.9973 -0.0717
vn 0.1219 0.7884 0.6030
vn 0.1278 0.7833 0.6084
vn 0.1468 0.8168 0.5578
vn 0.1167 0.8164 0.5655
vn 0.0897 0.7833 0.6151
vn 0.0619 0.7660 0.6399
vn 0.1582 0.8519 0.4993
vn 0.1609 0.8838 0.4393
vn 0.1349 0.8860 0.4435
vn 0.1307 0.8534 0.5046
vn 0.1583 0.9115 0.3795
vn 0.1522 0.9354 0.3192
vn 0.1268 0.9380 0.3224
vn 0.1329 0.9141 0.3831
vn 0.1431 0.9556 0.2576
vn 0.1308 0.9722 0.1943
vn 0.1034 0.9749 0.1968
vn 0.1170 0.9583 0.2605
vn 0.1143 0.9850 0.1293
vn 0.0921 0.9937 0.0628
vn 0.0588 0.9962 0.0636
vn 0.0846 0.9877 0.1311
vn 0.0638 0.9979 -0.0057
vn 0.0252 0.9997 -0.0049
s 1
f 24/1/1 46/2/2 62/3/3 31/4/4
f 46/2/2 8/5/5 27/6/6 62/3/3
f 62/3/3 27/6/6 4/7/7 30/8/8
f 31/4/4 62/3/3 30/8/8 14/9/9
f 13/10/10 26/11/11 63/12/12 35/13/13
f 26/11/11 2/14/14 28/15/15 63/12/12
f 63/12/12 28/15/15 3/16/16 41/17/17
f 35/13/13 63/12/12 41/17/17 19/18/18
f 19/18/18 41/17/17 64/19/19 36/20/20
f 41/17/17 3/16/16 29/21/21 64/19/19
f 64/19/19 29/21/21 1/22/22 42/23/23
f 36/20/20 64/19/19 42/23/23 20/24/24
f 20/24/24 42/23/23 65/25/25 37/26/26
f 42/23/23 1/22/22 25/27/27 65/25/25
f 65/25/25 25/27/27 5/28/28 43/29/29
f 37/26/26 65/25/25 43/29/29 21/30/30
f 21/30/30 43/29/29 66/31/31 38/32/32
f 43/29/29 5/28/28 32/33/33 66/31/31
f 66/31/31 32/33/33 6/34/34 44/35/35
f 38/32/32 66/31/31 44/35/35 22/36/36
f 22/36/36 44/35/35 67/37/37 39/38/38
f 44/35/35 6/34/34 33/39/39 67/37/37
f 67/37/37 33/39/39 7/40/40 45/41/41
f 39/38/38 67/37/37 45/41/41 23/42/42
f 23/42/42 45/41/41 68/43/43 40/44/44
f 45/41/41 7/40/40 34/45/45 68/43/43
f 68/43/43 34/45/45 8/5/5 46/2/2
f 40/44/44 68/43/43 46/2/2 24/1/1
f 24/1/1 31/4/4 69/46/46 61/47/47
f 31/4/4 14/9/9 52/48/48 69/46/46
f 69/46/46 52/48/48 12/49/49 49/50/50
f 61/47/47 69/46/46 49/50/50 18/51/51
f 13/10/10 35/13/13 70/52/52 48/53/53
f 35/13/13 19/18/18 56/54/54 70/52/52
f 70/52/52 56/54/54 11/55/55 50/56/56
f 48/53/53 70/52/52 50/56/56 10/57/57
f 19/18/18 36/20/20 71/58/58 56/54/54
f 36/20/20 20/24/24 57/59/59 71/58/58
f 71/58/58 57/59/59 9/60/60 51/61/61
f 56/54/54 71/58/58 51/61/61 11/55/55
f 20/24/24 37/26/26 72/62/62 57/59/59
f 37/26/26 21/30/30 58/63/63 72/62/62
f 72/62/62 58/63/63 15/64/64 47/65/65
f 57/59/59 72/62/62 47/65/65 9/60/60
f 21/30/30 38/32/32 73/66/66 58/63/63
f 38/32/32 22/36/36 59/67/67 73/66/66
f 73/66/66 59/67/67 16/68/68 53/69/69
f 58/63/63 73/66/66 53/69/69 15/64/64
f 22/36/36 39/38/38 74/70/70 59/67/67
f 39/38/38 23/42/42 60/71/71 74/70/70
f 74/70/70 60/71/71 17/72/72 54/73/73
f 59/67/67 74/70/70 54/73/73 16/68/68
f 23/42/42 40/44/44 75/74/74 60/71/71
f 40/44/44 24/1/1 61/47/47 75/74/74
f 75/74/74 61/47/47 18/51/51 55/75/75
f 60/71/71 75/74/74 55/75/75 17/72/72
