# Blender v3.0.0 OBJ File: 'tropical-scene_volume.blend'
# www.blender.org
o Plane.033_Plane.004
v -0.470274 0.412604 0.856627
v -0.457096 0.375022 0.848371
v -0.464363 0.393209 0.849779
v -0.495725 0.471789 0.932869
v -0.475384 0.429661 0.867768
v -0.480754 0.444531 0.881843
v -0.486305 0.456873 0.898637
v -0.491752 0.466228 0.917234
v -0.441260 0.398933 0.887683
v -0.446706 0.370127 0.859492
v -0.441870 0.382611 0.873855
v -0.490588 0.469369 0.938367
v -0.450874 0.369806 0.851753
v -0.495493 0.473093 0.938908
v -0.445337 0.415503 0.899929
v -0.452978 0.431443 0.911573
v -0.464112 0.446415 0.922392
v -0.478048 0.459771 0.931902
v -0.451907 0.388432 0.860917
v -0.454573 0.406452 0.871341
v -0.459199 0.423422 0.883133
v -0.465753 0.438969 0.896100
v -0.474157 0.452750 0.910019
v -0.484246 0.464266 0.924514
v -0.472845 0.421408 0.861764
v -0.453686 0.371247 0.849577
v -0.494118 0.469509 0.925943
v -0.460790 0.383039 0.848405
v -0.467502 0.403215 0.852567
v -0.496126 0.473000 0.936973
v -0.489788 0.468899 0.931732
v -0.478027 0.437385 0.874467
v -0.483519 0.451040 0.889909
v -0.489084 0.461976 0.907903
v -0.451268 0.379159 0.856238
v -0.452995 0.397548 0.865947
v -0.456642 0.415092 0.877078
v -0.462239 0.431395 0.889483
v -0.469730 0.446100 0.902955
v -0.479011 0.458858 0.917243
v -0.457908 0.390918 0.855179
v -0.462200 0.409656 0.863831
v -0.467074 0.426699 0.875316
v -0.473045 0.441934 0.888858
v -0.480034 0.455019 0.904235
v -0.487876 0.465484 0.920864
v -0.442799 0.407251 0.893924
v -0.448771 0.368930 0.854839
v -0.484983 0.465205 0.935720
v -0.444120 0.375185 0.866248
v -0.440895 0.390678 0.881046
v -0.493879 0.471942 0.939378
v -0.448730 0.423581 0.905825
v -0.458109 0.439067 0.917107
v -0.470890 0.453403 0.927377
v -0.446662 0.385619 0.867217
v -0.447692 0.402821 0.879359
v -0.452050 0.419620 0.891397
v -0.459157 0.435390 0.903722
v -0.468937 0.449790 0.916112
v -0.481024 0.462256 0.928198
v -0.492003 0.469501 0.929055
v -0.455794 0.381042 0.852112
v -0.460023 0.400494 0.859096
v -0.464522 0.418393 0.869277
v -0.469919 0.434561 0.881851
v -0.476421 0.448766 0.896329
v -0.483865 0.460636 0.912498
v -0.487472 0.467366 0.933904
v -0.447491 0.377130 0.860999
v -0.446719 0.394226 0.873335
v -0.449499 0.411315 0.885357
v -0.455271 0.427659 0.897530
v -0.463716 0.442780 0.909927
v -0.474768 0.456349 0.922235
vt 0.500000 0.857143
vt 0.750000 0.855349
vt 0.750000 0.921934
vt 0.500000 0.928572
vt 1.000000 0.857143
vt 1.000000 0.915655
vt 1.000000 0.974166
vt 0.750000 0.987083
vt 0.500000 1.000000
vt 0.500000 0.000000
vt 0.750000 0.000000
vt 0.750000 0.071429
vt 0.500000 0.071429
vt 1.000000 0.000000
vt 1.000000 0.071429
vt 1.000000 0.142857
vt 0.750000 0.142857
vt 0.500000 0.142857
vt 0.750000 0.214286
vt 0.500000 0.214286
vt 1.000000 0.214286
vt 1.000000 0.285714
vt 0.750000 0.285714
vt 0.500000 0.285714
vt 0.750000 0.357143
vt 0.500000 0.357143
vt 1.000000 0.357143
vt 1.000000 0.428571
vt 0.750000 0.428571
vt 0.500000 0.428571
vt 0.750000 0.500000
vt 0.500000 0.500000
vt 1.000000 0.500000
vt 1.000000 0.571429
vt 0.750000 0.571429
vt 0.500000 0.571429
vt 0.750000 0.642857
vt 0.500000 0.642857
vt 1.000000 0.642857
vt 1.000000 0.714286
vt 0.750000 0.714286
vt 0.500000 0.714286
vt 0.750000 0.785535
vt 0.500000 0.785714
vt 1.000000 0.785714
vt 0.750000 0.921934
vt 0.750000 0.855349
vt 0.750000 0.987083
vt 1.000000 0.974166
vt 1.000000 0.915655
vt 1.000000 0.857143
vt 0.750000 0.071429
vt 0.750000 0.000000
vt 0.750000 0.142857
vt 1.000000 0.142857
vt 1.000000 0.071429
vt 1.000000 0.000000
vt 0.750000 0.214286
vt 0.750000 0.285714
vt 1.000000 0.285714
vt 1.000000 0.214286
vt 0.750000 0.357143
vt 0.750000 0.428571
vt 1.000000 0.428571
vt 1.000000 0.357143
vt 0.750000 0.500000
vt 0.750000 0.571429
vt 1.000000 0.571429
vt 1.000000 0.500000
vt 0.750000 0.642857
vt 0.750000 0.714286
vt 1.000000 0.714286
vt 1.000000 0.642857
vt 0.750000 0.785535
vt 1.000000 0.785714
vn 0.5508 0.8204 -0.1534
vn 0.4541 0.8597 -0.2336
vn 0.4021 0.8918 -0.2074
vn 0.5175 0.8486 -0.1099
vn 0.4195 0.8696 -0.2601
vn 0.3663 0.8999 -0.2368
vn 0.3273 0.9164 -0.2304
vn 0.4185 0.8906 -0.1781
vn 0.5058 0.8574 -0.0951
vn 0.7594 0.2986 -0.5780
vn 0.6792 0.3211 -0.6600
vn 0.6748 0.3294 -0.6604
vn 0.7588 0.3137 -0.5708
vn 0.6287 0.3078 -0.7141
vn 0.6506 0.3274 -0.6852
vn 0.6700 0.3726 -0.6420
vn 0.6920 0.3691 -0.6204
vn 0.7559 0.3552 -0.5499
vn 0.6964 0.4242 -0.5788
vn 0.7497 0.4085 -0.5206
vn 0.6766 0.4298 -0.5979
vn 0.6732 0.4860 -0.5573
vn 0.6918 0.4797 -0.5397
vn 0.7403 0.4620 -0.4883
vn 0.6811 0.5328 -0.5022
vn 0.7280 0.5135 -0.4541
vn 0.6629 0.5395 -0.5191
vn 0.6472 0.5910 -0.4815
vn 0.6655 0.5839 -0.4648
vn 0.7128 0.5632 -0.4180
vn 0.6454 0.6333 -0.4270
vn 0.6945 0.6110 -0.3799
vn 0.6265 0.6407 -0.4437
vn 0.6003 0.6894 -0.4054
vn 0.6204 0.6814 -0.3883
vn 0.6732 0.6567 -0.3398
vn 0.5896 0.7282 -0.3493
vn 0.6487 0.7004 -0.2977
vn 0.5674 0.7371 -0.3670
vn 0.5262 0.7839 -0.3295
vn 0.5519 0.7738 -0.3107
vn 0.6208 0.7418 -0.2535
vn 0.5063 0.8182 -0.2724
vn 0.5885 0.7819 -0.2055
vn 0.4760 0.8289 -0.2937
vn 0.6049 0.7962 0.0096
vn 0.6239 0.7797 -0.0519
vn 0.5805 0.8142 -0.0048
vn 0.6239 0.7766 0.0870
vn 0.6291 0.7760 0.0446
vn 0.6465 0.7627 -0.0172
vn 0.8330 0.2549 -0.4910
vn 0.8300 0.2500 -0.4986
vn 0.8153 0.3110 -0.4884
vn 0.8329 0.2958 -0.4678
vn 0.8509 0.2330 -0.4708
vn 0.8657 0.1961 -0.4604
vn 0.8003 0.3752 -0.4676
vn 0.7863 0.4351 -0.4386
vn 0.8018 0.4254 -0.4196
vn 0.8167 0.3638 -0.4480
vn 0.7719 0.4900 -0.4050
vn 0.7560 0.5413 -0.3680
vn 0.7711 0.5326 -0.3489
vn 0.7870 0.4811 -0.3862
vn 0.7383 0.5895 -0.3275
vn 0.7186 0.6351 -0.2832
vn 0.7342 0.6263 -0.2621
vn 0.7535 0.5809 -0.3078
vn 0.6972 0.6775 -0.2341
vn 0.6746 0.7160 -0.1793
vn 0.6916 0.7060 -0.1524
vn 0.7133 0.6684 -0.2108
vn 0.6505 0.7502 -0.1180
vn 0.6694 0.7378 -0.0866
s 1
f 24/1/1 46/2/2 62/3/3 31/4/4
f 46/2/2 8/5/5 27/6/6 62/3/3
f 62/3/3 27/6/6 4/7/7 30/8/8
f 31/4/4 62/3/3 30/8/8 14/9/9
f 13/10/10 26/11/11 63/12/12 35/13/13
f 26/11/11 2/14/14 28/15/15 63/12/12
f 63/12/12 28/15/15 3/16/16 41/17/17
f 35/13/13 63/12/12 41/17/17 19/18/18
f 19/18/18 41/17/17 64/19/19 36/20/20
f 41/17/17 3/16/16 29/21/21 64/19/19
f 64/19/19 29/21/21 1/22/22 42/23/23
f 36/20/20 64/19/19 42/23/23 20/24/24
f 20/24/24 42/23/23 65/25/25 37/26/26
f 42/23/23 1/22/22 25/27/27 65/25/25
f 65/25/25 25/27/27 5/28/28 43/29/29
f 37/26/26 65/25/25 43/29/29 21/30/30
f 21/30/30 43/29/29 66/31/31 38/32/32
f 43/29/29 5/28/28 32/33/33 66/31/31
f 66/31/31 32/33/33 6/34/34 44/35/35
f 38/32/32 66/31/31 44/35/35 22/36/36
f 22/36/36 44/35/35 67/37/37 39/38/38
f 44/35/35 6/34/34 33/39/39 67/37/37
f 67/37/37 33/39/39 7/40/40 45/41/41
f 39/38/38 67/37/37 45/41/41 23/42/42
f 23/42/42 45/41/41 68/43/43 40/44/44
f 45/41/41 7/40/40 34/45/45 68/43/43
f 68/43/43 34/45/45 8/5/5 46/2/2
f 40/44/44 68/43/43 46/2/2 24/1/1
f 24/1/1 31/4/4 69/46/46 61/47/47
f 31/4/4 14/9/9 52/48/48 69/46/46
f 69/46/46 52/48/48 12/49/49 49/50/50
f 61/47/47 69/46/46 49/50/50 18/51/51
f 13/10/10 35/13/13 70/52/52 48/53/53
f 35/13/13 19/18/18 56/54/54 70/52/52
f 70/52/52 56/54/54 11/55/55 50/56/56
f 48/53/53 70/52/52 50/56/56 10/57/57
f 19/18/18 36/20/20 71/58/58 56/54/54
f 36/20/20 20/24/24 57/59/59 71/58/58
f 71/58/58 57/59/59 9/60/60 51/61/61
f 56/54/54 71/58/58 51/61/61 11/55/55
f 20/24/24 37/26/26 72/62/62 57/59/59
f 37/26/26 21/30/30 58/63/63 72/62/62
f 72/62/62 58/63/63 15/64/64 47/65/65
f 57/59/59 72/62/62 47/65/65 9/60/60
f 21/30/30 38/32/32 73/66/66 58/63/63
f 38/32/32 22/36/36 59/67/67 73/66/66
f 73/66/66 59/67/67 16/68/68 53/69/69
f 58/63/63 73/66/66 53/69/69 15/64/64
f 22/36/36 39/38/38 74/70/70 59/67/67
f 39/38/38 23/42/42 60/71/71 74/70/70
f 74/70/70 60/71/71 17/72/72 54/73/73
f 59/67/67 74/70/70 54/73/73 16/68/68
f 23/42/42 40/44/44 75/74/74 60/71/71
f 40/44/44 24/1/1 61/47/47 75/74/74
f 75/74/74 61/47/47 18/51/51 55/75/75
f 60/71/71 75/74/74 55/75/75 17/72/72
