# Blender v3.0.0 OBJ File: 'tropical-scene_volume.blend'
# www.blender.org
o Plane.034_Plane.001
v -0.297655 0.197900 -0.919866
v -0.326109 0.188827 -0.911794
v -0.312748 0.194905 -0.914553
v -0.231091 0.170769 -0.944321
v -0.282829 0.197186 -0.925778
v -0.268141 0.193701 -0.931378
v -0.253874 0.187456 -0.936534
v -0.240684 0.178874 -0.941037
v -0.308197 0.172472 -0.939755
v -0.329884 0.179721 -0.918916
v -0.320920 0.175192 -0.929971
v -0.232957 0.166268 -0.947842
v -0.330606 0.184634 -0.914432
v -0.228622 0.167324 -0.946357
v -0.293746 0.170852 -0.946375
v -0.278233 0.169358 -0.950417
v -0.261937 0.168005 -0.951747
v -0.245663 0.166864 -0.950430
v -0.317374 0.185848 -0.922998
v -0.303346 0.185992 -0.930618
v -0.288580 0.184820 -0.936947
v -0.273349 0.182315 -0.941817
v -0.257938 0.178491 -0.945095
v -0.242806 0.173399 -0.946606
v -0.290223 0.197934 -0.922817
v -0.329263 0.186597 -0.912741
v -0.235175 0.174430 -0.942841
v -0.320183 0.191887 -0.912572
v -0.305153 0.196937 -0.917066
v -0.228991 0.168550 -0.945484
v -0.235627 0.170434 -0.946620
v -0.275456 0.195777 -0.928636
v -0.260935 0.190926 -0.934015
v -0.247037 0.183351 -0.938906
v -0.324053 0.185321 -0.918783
v -0.310469 0.186082 -0.926958
v -0.296038 0.185573 -0.933955
v -0.281005 0.183734 -0.939573
v -0.265648 0.180566 -0.943662
v -0.250278 0.176097 -0.946095
v -0.315162 0.190526 -0.918913
v -0.300579 0.192098 -0.925394
v -0.285759 0.191153 -0.931526
v -0.270775 0.188155 -0.936770
v -0.255912 0.183116 -0.940994
v -0.241676 0.176236 -0.943985
v -0.301140 0.171601 -0.943412
v -0.331049 0.182289 -0.916111
v -0.238493 0.166425 -0.949103
v -0.326240 0.177277 -0.923998
v -0.314820 0.173619 -0.935304
v -0.229808 0.166581 -0.947024
v -0.286100 0.170102 -0.948718
v -0.270167 0.168657 -0.951432
v -0.253648 0.167405 -0.951377
v -0.319248 0.180670 -0.926623
v -0.305850 0.179383 -0.935338
v -0.291218 0.177987 -0.941824
v -0.275821 0.175984 -0.946289
v -0.259944 0.173391 -0.948600
v -0.244166 0.170231 -0.948682
v -0.235153 0.172404 -0.944863
v -0.322318 0.188720 -0.915753
v -0.307902 0.191661 -0.922157
v -0.293198 0.191904 -0.928543
v -0.278273 0.189905 -0.934273
v -0.263309 0.185891 -0.939014
v -0.248646 0.179859 -0.942679
v -0.236799 0.168433 -0.947969
v -0.325335 0.181443 -0.921444
v -0.312735 0.180002 -0.931276
v -0.298656 0.178738 -0.938841
v -0.283595 0.177067 -0.944313
v -0.267926 0.174757 -0.947723
v -0.251951 0.171886 -0.948915
vt 0.695647 0.765414
vt 0.786650 0.708578
vt 0.864993 0.758012
vt 0.817139 0.819239
vt 0.875404 0.651206
vt 0.912621 0.696731
vt 0.949838 0.742255
vt 0.944235 0.807660
vt 0.938631 0.873065
vt 0.032243 0.089830
vt 0.059811 0.095008
vt 0.064282 0.098343
vt 0.035611 0.092635
vt 0.087379 0.100186
vt 0.088997 0.102041
vt 0.090615 0.103896
vt 0.084575 0.109717
vt 0.038980 0.095439
vt 0.140399 0.140018
vt 0.065812 0.147409
vt 0.211165 0.128943
vt 0.331715 0.153989
vt 0.211505 0.185058
vt 0.092644 0.199379
vt 0.283410 0.246654
vt 0.154265 0.275467
vt 0.412621 0.215213
vt 0.493528 0.276438
vt 0.355044 0.318764
vt 0.215887 0.351555
vt 0.427083 0.399647
vt 0.295307 0.439703
vt 0.559062 0.359926
vt 0.624595 0.443414
vt 0.498313 0.479190
vt 0.374728 0.527851
vt 0.567364 0.547229
vt 0.449295 0.591880
vt 0.685275 0.504638
vt 0.745955 0.565863
vt 0.637043 0.607021
vt 0.523861 0.655909
vt 0.710543 0.659238
vt 0.609754 0.710662
vt 0.810680 0.608534
vt 0.864993 0.758012
vt 0.786650 0.708578
vt 0.944235 0.807660
vt 0.949838 0.742255
vt 0.912621 0.696731
vt 0.875404 0.651206
vt 0.064282 0.098343
vt 0.059811 0.095008
vt 0.084575 0.109717
vt 0.090615 0.103896
vt 0.088997 0.102041
vt 0.087379 0.100186
vt 0.140399 0.140018
vt 0.211505 0.185058
vt 0.331715 0.153989
vt 0.211165 0.128943
vt 0.283410 0.246654
vt 0.355044 0.318764
vt 0.493528 0.276438
vt 0.412621 0.215213
vt 0.427083 0.399647
vt 0.498313 0.479190
vt 0.624595 0.443414
vt 0.559062 0.359926
vt 0.567364 0.547228
vt 0.637043 0.607021
vt 0.745955 0.565863
vt 0.685275 0.504638
vt 0.710543 0.659238
vt 0.810680 0.608534
vn 0.1896 0.5549 -0.8100
vn 0.2409 0.6431 -0.7269
vn 0.3045 0.6364 -0.7087
vn 0.2466 0.5315 -0.8103
vn 0.2573 0.6706 -0.6957
vn 0.3191 0.6655 -0.6747
vn 0.3561 0.6681 -0.6533
vn 0.3060 0.6107 -0.7303
vn 0.2657 0.5231 -0.8097
vn -0.4715 0.6562 -0.5891
vn -0.4423 0.7375 -0.5103
vn -0.4340 0.7421 -0.5108
vn -0.4575 0.6577 -0.5984
vn -0.4442 0.7768 -0.4463
vn -0.4314 0.7622 -0.4826
vn -0.3935 0.7482 -0.5341
vn -0.4000 0.7280 -0.5568
vn -0.4183 0.6608 -0.6232
vn -0.3470 0.7204 -0.6005
vn -0.3654 0.6627 -0.6536
vn -0.3392 0.7394 -0.5815
vn -0.2813 0.7331 -0.6192
vn -0.2894 0.7149 -0.6365
vn -0.3092 0.6621 -0.6826
vn -0.2306 0.7096 -0.6658
vn -0.2519 0.6588 -0.7088
vn -0.2221 0.7274 -0.6492
vn -0.1616 0.7212 -0.6736
vn -0.1705 0.7034 -0.6901
vn -0.1935 0.6529 -0.7323
vn -0.1086 0.6958 -0.7100
vn -0.1338 0.6443 -0.7529
vn -0.0992 0.7138 -0.6932
vn -0.0341 0.7054 -0.7079
vn -0.0445 0.6868 -0.7255
vn -0.0728 0.6330 -0.7707
vn 0.0222 0.6768 -0.7358
vn -0.0107 0.6188 -0.7855
vn 0.0343 0.6964 -0.7168
vn 0.1065 0.6876 -0.7182
vn 0.0920 0.6666 -0.7397
vn 0.0526 0.6016 -0.7971
vn 0.1654 0.6557 -0.7366
vn 0.1193 0.5805 -0.8054
vn 0.1820 0.6793 -0.7109
vn 0.2076 0.4028 -0.8914
vn 0.1598 0.4474 -0.8799
vn 0.2286 0.4241 -0.8762
vn 0.2144 0.3264 -0.9206
vn 0.1936 0.3626 -0.9116
vn 0.1488 0.4092 -0.9002
vn -0.5096 0.5598 -0.6534
vn -0.5143 0.5637 -0.6463
vn -0.4589 0.5859 -0.6679
vn -0.4713 0.5606 -0.6809
vn -0.5271 0.5314 -0.6631
vn -0.5574 0.5037 -0.6599
vn -0.3966 0.6006 -0.6942
vn -0.3346 0.6060 -0.7216
vn -0.3428 0.5849 -0.7351
vn -0.4061 0.5780 -0.7077
vn -0.2740 0.6050 -0.7476
vn -0.2137 0.5991 -0.7716
vn -0.2208 0.5784 -0.7853
vn -0.2814 0.5844 -0.7611
vn -0.1530 0.5887 -0.7937
vn -0.0914 0.5736 -0.8140
vn -0.0981 0.5512 -0.8286
vn -0.1599 0.5675 -0.8077
vn -0.0291 0.5529 -0.8327
vn 0.0334 0.5251 -0.8504
vn 0.0274 0.4970 -0.8673
vn -0.0354 0.5283 -0.8483
vn 0.0965 0.4896 -0.8666
vn 0.0896 0.4564 -0.8852
s 1
f 24/1/1 46/2/2 62/3/3 31/4/4
f 46/2/2 8/5/5 27/6/6 62/3/3
f 62/3/3 27/6/6 4/7/7 30/8/8
f 31/4/4 62/3/3 30/8/8 14/9/9
f 13/10/10 26/11/11 63/12/12 35/13/13
f 26/11/11 2/14/14 28/15/15 63/12/12
f 63/12/12 28/15/15 3/16/16 41/17/17
f 35/13/13 63/12/12 41/17/17 19/18/18
f 19/18/18 41/17/17 64/19/19 36/20/20
f 41/17/17 3/16/16 29/21/21 64/19/19
f 64/19/19 29/21/21 1/22/22 42/23/23
f 36/20/20 64/19/19 42/23/23 20/24/24
f 20/24/24 42/23/23 65/25/25 37/26/26
f 42/23/23 1/22/22 25/27/27 65/25/25
f 65/25/25 25/27/27 5/28/28 43/29/29
f 37/26/26 65/25/25 43/29/29 21/30/30
f 21/30/30 43/29/29 66/31/31 38/32/32
f 43/29/29 5/28/28 32/33/33 66/31/31
f 66/31/31 32/33/33 6/34/34 44/35/35
f 38/32/32 66/31/31 44/35/35 22/36/36
f 22/36/36 44/35/35 67/37/37 39/38/38
f 44/35/35 6/34/34 33/39/39 67/37/37
f 67/37/37 33/39/39 7/40/40 45/41/41
f 39/38/38 67/37/37 45/41/41 23/42/42
f 23/42/42 45/41/41 68/43/43 40/44/44
f 45/41/41 7/40/40 34/45/45 68/43/43
f 68/43/43 34/45/45 8/5/5 46/2/2
f 40/44/44 68/43/43 46/2/2 24/1/1
f 24/1/1 31/4/4 69/46/46 61/47/47
f 31/4/4 14/9/9 52/48/48 69/46/46
f 69/46/46 52/48/48 12/49/49 49/50/50
f 61/47/47 69/46/46 49/50/50 18/51/51
f 13/10/10 35/13/13 70/52/52 48/53/53
f 35/13/13 19/18/18 56/54/54 70/52/52
f 70/52/52 56/54/54 11/55/55 50/56/56
f 48/53/53 70/52/52 50/56/56 10/57/57
f 19/18/18 36/20/20 71/58/58 56/54/54
f 36/20/20 20/24/24 57/59/59 71/58/58
f 71/58/58 57/59/59 9/60/60 51/61/61
f 56/54/54 71/58/58 51/61/61 11/55/55
f 20/24/24 37/26/26 72/62/62 57/59/59
f 37/26/26 21/30/30 58/63/63 72/62/62
f 72/62/62 58/63/63 15/64/64 47/65/65
f 57/59/59 72/62/62 47/65/65 9/60/60
f 21/30/30 38/32/32 73/66/66 58/63/63
f 38/32/32 22/36/36 59/67/67 73/66/66
f 73/66/66 59/67/67 16/68/68 53/69/69
f 58/63/63 73/66/66 53/69/69 15/64/64
f 22/36/36 39/38/38 74/70/70 59/67/67
f 39/38/38 23/42/42 60/71/71 74/70/70
f 74/70/70 60/71/71 17/72/72 54/73/73
f 59/67/67 74/70/70 54/73/73 16/68/68
f 23/42/42 40/44/44 75/74/74 60/71/71
f 40/44/44 24/1/1 61/47/47 75/74/74
f 75/74/74 61/47/47 18/51/51 55/75/75
f 60/71/71 75/74/74 55/75/75 17/72/72
