# Blender v3.0.0 OBJ File: 'tropical-scene_volume.blend'
# www.blender.org
o Plane.030_Plane.005
v -0.463795 0.374552 0.806762
v -0.450613 0.360397 0.837739
v -0.455675 0.365496 0.821638
v -0.531562 0.423984 0.775180
v -0.474478 0.384992 0.795246
v -0.487365 0.395614 0.786173
v -0.502261 0.406201 0.779764
v -0.518364 0.416267 0.776201
v -0.469331 0.399878 0.837340
v -0.452596 0.369466 0.848689
v -0.459967 0.385129 0.845344
v -0.532542 0.428467 0.780593
v -0.449500 0.363179 0.845047
v -0.535669 0.427605 0.776090
v -0.480211 0.411218 0.826914
v -0.492665 0.419858 0.815446
v -0.506496 0.425572 0.803154
v -0.520978 0.428229 0.790644
v -0.456512 0.375854 0.833280
v -0.465323 0.387866 0.821736
v -0.476192 0.398858 0.810665
v -0.488964 0.408580 0.800301
v -0.503442 0.416807 0.790866
v -0.519267 0.423219 0.782691
v -0.468841 0.379690 0.800659
v -0.449549 0.361175 0.842246
v -0.525801 0.420563 0.775435
v -0.452708 0.362076 0.830282
v -0.459392 0.369762 0.813707
v -0.534666 0.426270 0.775342
v -0.527437 0.425575 0.779260
v -0.480660 0.390307 0.790405
v -0.494575 0.400920 0.782617
v -0.510321 0.411390 0.777629
v -0.452870 0.369563 0.839150
v -0.460652 0.381970 0.827465
v -0.470509 0.393506 0.816127
v -0.482352 0.403893 0.805380
v -0.496004 0.412893 0.795454
v -0.511231 0.420283 0.786578
v -0.455848 0.370776 0.827419
v -0.464326 0.381331 0.814190
v -0.475119 0.392066 0.802878
v -0.487968 0.402256 0.793142
v -0.502676 0.411677 0.785204
v -0.518740 0.419925 0.779309
v -0.474573 0.405915 0.832325
v -0.450487 0.365465 0.847426
v -0.527543 0.428536 0.785062
v -0.455889 0.376626 0.847850
v -0.464468 0.392986 0.841748
v -0.535095 0.428231 0.777710
v -0.486250 0.415878 0.821281
v -0.499423 0.423099 0.809396
v -0.513792 0.427271 0.796804
v -0.457994 0.380593 0.839272
v -0.467094 0.393994 0.829480
v -0.477985 0.405180 0.818711
v -0.490618 0.414377 0.807778
v -0.504793 0.421362 0.796899
v -0.520047 0.425906 0.786530
v -0.526800 0.423285 0.777169
v -0.452510 0.365832 0.834784
v -0.459782 0.375978 0.820537
v -0.469450 0.386730 0.808324
v -0.481299 0.397250 0.797806
v -0.495103 0.407072 0.788932
v -0.510621 0.416015 0.781984
v -0.527664 0.427240 0.781944
v -0.454094 0.373080 0.843535
v -0.462321 0.387590 0.834557
v -0.472316 0.399843 0.824157
v -0.484094 0.410035 0.813244
v -0.497527 0.418162 0.802322
v -0.512357 0.423955 0.791571
vt 0.500000 0.857143
vt 0.750000 0.855349
vt 0.750000 0.921934
vt 0.500000 0.928572
vt 1.000000 0.857143
vt 1.000000 0.915655
vt 1.000000 0.974166
vt 0.750000 0.987083
vt 0.500000 1.000000
vt 0.500000 0.000000
vt 0.750000 0.000000
vt 0.750000 0.071429
vt 0.500000 0.071429
vt 1.000000 0.000000
vt 1.000000 0.071429
vt 1.000000 0.142857
vt 0.750000 0.142857
vt 0.500000 0.142857
vt 0.750000 0.214286
vt 0.500000 0.214286
vt 1.000000 0.214286
vt 1.000000 0.285714
vt 0.750000 0.285714
vt 0.500000 0.285714
vt 0.750000 0.357143
vt 0.500000 0.357143
vt 1.000000 0.357143
vt 1.000000 0.428571
vt 0.750000 0.428571
vt 0.500000 0.428571
vt 0.750000 0.500000
vt 0.500000 0.500000
vt 1.000000 0.500000
vt 1.000000 0.571429
vt 0.750000 0.571429
vt 0.500000 0.571429
vt 0.750000 0.642857
vt 0.500000 0.642857
vt 1.000000 0.642857
vt 1.000000 0.714286
vt 0.750000 0.714286
vt 0.500000 0.714286
vt 0.750000 0.785535
vt 0.500000 0.785714
vt 1.000000 0.785714
vt 0.750000 0.921934
vt 0.750000 0.855349
vt 0.750000 0.987083
vt 1.000000 0.974166
vt 1.000000 0.915655
vt 1.000000 0.857143
vt 0.750000 0.071429
vt 0.750000 0.000000
vt 0.750000 0.142857
vt 1.000000 0.142857
vt 1.000000 0.071429
vt 1.000000 0.000000
vt 0.750000 0.214286
vt 0.750000 0.285714
vt 1.000000 0.285714
vt 1.000000 0.214286
vt 0.750000 0.357143
vt 0.750000 0.428571
vt 1.000000 0.428571
vt 1.000000 0.357143
vt 0.750000 0.500000
vt 0.750000 0.571429
vt 1.000000 0.571429
vt 1.000000 0.500000
vt 0.750000 0.642857
vt 0.750000 0.714286
vt 1.000000 0.714286
vt 1.000000 0.642857
vt 0.750000 0.785535
vt 1.000000 0.785714
vn 0.4635 0.7219 -0.5139
vn 0.4658 0.6368 -0.6144
vn 0.4128 0.6334 -0.6544
vn 0.4086 0.7379 -0.5371
vn 0.4649 0.6053 -0.6460
vn 0.4134 0.5986 -0.6861
vn 0.3841 0.5851 -0.7142
vn 0.4002 0.6590 -0.6367
vn 0.3897 0.7427 -0.5445
vn 0.9255 0.3565 -0.1277
vn 0.9395 0.2724 -0.2076
vn 0.9370 0.2738 -0.2167
vn 0.9194 0.3681 -0.1384
vn 0.9503 0.2035 -0.2355
vn 0.9413 0.2436 -0.2334
vn 0.9197 0.3034 -0.2490
vn 0.9165 0.3274 -0.2296
vn 0.9013 0.3994 -0.1676
vn 0.8868 0.3818 -0.2604
vn 0.8745 0.4392 -0.2054
vn 0.8893 0.3617 -0.2798
vn 0.8555 0.4109 -0.3152
vn 0.8533 0.4291 -0.2962
vn 0.8434 0.4787 -0.2438
vn 0.8173 0.4702 -0.3330
vn 0.8090 0.5162 -0.2810
vn 0.8191 0.4529 -0.3519
vn 0.7800 0.4898 -0.3894
vn 0.7784 0.5069 -0.3702
vn 0.7713 0.5517 -0.3173
vn 0.7363 0.5401 -0.4077
vn 0.7301 0.5853 -0.3525
vn 0.7376 0.5227 -0.4275
vn 0.6912 0.5516 -0.4667
vn 0.6904 0.5697 -0.4458
vn 0.6855 0.6168 -0.3868
vn 0.6407 0.5950 -0.4852
vn 0.6373 0.6462 -0.4198
vn 0.6407 0.5757 -0.5080
vn 0.5857 0.5933 -0.5522
vn 0.5871 0.6148 -0.5267
vn 0.5853 0.6733 -0.4516
vn 0.5286 0.6286 -0.5704
vn 0.5276 0.6987 -0.4831
vn 0.5264 0.6031 -0.5993
vn 0.3697 0.8306 -0.4164
vn 0.4297 0.8019 -0.4151
vn 0.3658 0.8165 -0.4466
vn 0.3211 0.8734 -0.3661
vn 0.3576 0.8542 -0.3775
vn 0.4167 0.8259 -0.3797
vn 0.9034 0.4276 -0.0310
vn 0.9074 0.4190 -0.0306
vn 0.8903 0.4473 -0.0849
vn 0.8851 0.4617 -0.0579
vn 0.8988 0.4383 0.0017
vn 0.8999 0.4339 0.0426
vn 0.8647 0.4828 -0.1385
vn 0.8332 0.5209 -0.1852
vn 0.8281 0.5359 -0.1642
vn 0.8596 0.4978 -0.1154
vn 0.7980 0.5584 -0.2264
vn 0.7592 0.5949 -0.2640
vn 0.7537 0.6102 -0.2440
vn 0.7928 0.5735 -0.2063
vn 0.7165 0.6304 -0.2986
vn 0.6695 0.6651 -0.3306
vn 0.6628 0.6818 -0.3096
vn 0.7106 0.6462 -0.2784
vn 0.6179 0.6995 -0.3590
vn 0.5610 0.7341 -0.3826
vn 0.5505 0.7541 -0.3580
vn 0.6097 0.7176 -0.3367
vn 0.4980 0.7688 -0.4011
vn 0.4853 0.7911 -0.3722
s 1
f 24/1/1 46/2/2 62/3/3 31/4/4
f 46/2/2 8/5/5 27/6/6 62/3/3
f 62/3/3 27/6/6 4/7/7 30/8/8
f 31/4/4 62/3/3 30/8/8 14/9/9
f 13/10/10 26/11/11 63/12/12 35/13/13
f 26/11/11 2/14/14 28/15/15 63/12/12
f 63/12/12 28/15/15 3/16/16 41/17/17
f 35/13/13 63/12/12 41/17/17 19/18/18
f 19/18/18 41/17/17 64/19/19 36/20/20
f 41/17/17 3/16/16 29/21/21 64/19/19
f 64/19/19 29/21/21 1/22/22 42/23/23
f 36/20/20 64/19/19 42/23/23 20/24/24
f 20/24/24 42/23/23 65/25/25 37/26/26
f 42/23/23 1/22/22 25/27/27 65/25/25
f 65/25/25 25/27/27 5/28/28 43/29/29
f 37/26/26 65/25/25 43/29/29 21/30/30
f 21/30/30 43/29/29 66/31/31 38/32/32
f 43/29/29 5/28/28 32/33/33 66/31/31
f 66/31/31 32/33/33 6/34/34 44/35/35
f 38/32/32 66/31/31 44/35/35 22/36/36
f 22/36/36 44/35/35 67/37/37 39/38/38
f 44/35/35 6/34/34 33/39/39 67/37/37
f 67/37/37 33/39/39 7/40/40 45/41/41
f 39/38/38 67/37/37 45/41/41 23/42/42
f 23/42/42 45/41/41 68/43/43 40/44/44
f 45/41/41 7/40/40 34/45/45 68/43/43
f 68/43/43 34/45/45 8/5/5 46/2/2
f 40/44/44 68/43/43 46/2/2 24/1/1
f 24/1/1 31/4/4 69/46/46 61/47/47
f 31/4/4 14/9/9 52/48/48 69/46/46
f 69/46/46 52/48/48 12/49/49 49/50/50
f 61/47/47 69/46/46 49/50/50 18/51/51
f 13/10/10 35/13/13 70/52/52 48/53/53
f 35/13/13 19/18/18 56/54/54 70/52/52
f 70/52/52 56/54/54 11/55/55 50/56/56
f 48/53/53 70/52/52 50/56/56 10/57/57
f 19/18/18 36/20/20 71/58/58 56/54/54
f 36/20/20 20/24/24 57/59/59 71/58/58
f 71/58/58 57/59/59 9/60/60 51/61/61
f 56/54/54 71/58/58 51/61/61 11/55/55
f 20/24/24 37/26/26 72/62/62 57/59/59
f 37/26/26 21/30/30 58/63/63 72/62/62
f 72/62/62 58/63/63 15/64/64 47/65/65
f 57/59/59 72/62/62 47/65/65 9/60/60
f 21/30/30 38/32/32 73/66/66 58/63/63
f 38/32/32 22/36/36 59/67/67 73/66/66
f 73/66/66 59/67/67 16/68/68 53/69/69
f 58/63/63 73/66/66 53/69/69 15/64/64
f 22/36/36 39/38/38 74/70/70 59/67/67
f 39/38/38 23/42/42 60/71/71 74/70/70
f 74/70/70 60/71/71 17/72/72 54/73/73
f 59/67/67 74/70/70 54/73/73 16/68/68
f 23/42/42 40/44/44 75/74/74 60/71/71
f 40/44/44 24/1/1 61/47/47 75/74/74
f 75/74/74 61/47/47 18/51/51 55/75/75
f 60/71/71 75/74/74 55/75/75 17/72/72
